{"glyphs":{"0":{"ha":509,"x_min":35,"x_max":473,"o":"m 342 568 q 352 562 347 566 q 358 552 357 559 q 372 538 370 540 q 377 534 374 537 q 401 526 389 526 q 418 507 414 511 q 427 496 423 502 q 441 482 439 484 q 448 479 444 480 q 450 465 449 465 q 452 464 452 465 q 457 444 454 450 q 458 431 457 438 q 460 416 460 423 q 465 402 465 406 q 468 395 465 399 q 469 378 467 384 q 467 368 471 372 q 470 344 473 357 q 472 320 467 331 q 470 307 471 313 q 471 294 469 301 q 471 276 473 279 q 472 270 469 273 q 468 262 468 267 q 467 250 468 256 q 463 239 464 243 q 458 228 461 235 q 457 220 457 224 q 453 213 457 216 q 452 201 457 206 q 450 189 448 195 q 446 182 448 186 q 444 175 445 178 q 430 149 437 157 q 427 140 427 144 q 422 134 426 137 q 417 119 423 123 q 410 107 411 115 q 400 95 400 96 q 399 92 400 94 q 390 83 396 87 q 381 72 384 79 q 368 62 370 64 q 362 57 365 60 q 351 47 353 46 q 349 46 350 47 q 336 35 343 38 q 325 26 328 30 q 315 20 321 22 q 298 15 304 18 q 283 14 285 14 q 271 8 274 8 q 266 7 269 8 q 252 5 259 7 q 237 5 244 4 q 229 7 232 5 q 220 7 225 9 q 211 11 216 11 q 199 12 206 11 q 186 16 187 18 q 183 16 186 15 q 174 19 179 16 q 165 24 170 22 q 141 33 155 27 q 134 37 137 37 q 127 41 130 38 l 110 54 q 103 60 107 57 q 96 65 99 62 q 92 71 94 68 q 84 77 90 75 q 77 95 81 88 q 71 113 73 102 q 61 129 61 123 q 54 153 57 148 q 52 161 53 157 q 52 170 52 164 q 45 191 49 184 q 45 204 45 198 q 43 217 45 210 l 39 236 q 39 252 39 243 q 41 267 38 260 q 37 279 37 274 q 35 292 38 285 q 39 306 37 302 q 41 312 41 309 q 40 327 39 323 q 41 335 41 331 l 45 355 q 49 372 45 359 q 51 386 52 384 q 50 391 50 388 q 53 399 52 395 q 53 407 54 403 q 58 426 58 416 q 62 435 60 430 q 65 445 64 439 q 68 458 66 456 q 69 464 71 460 q 75 471 73 467 q 81 477 77 475 q 90 494 88 492 q 95 499 92 496 q 107 519 104 515 q 113 530 110 524 q 129 552 129 544 q 151 567 140 557 q 175 574 163 576 q 189 579 182 576 q 206 585 197 582 q 233 591 225 589 q 263 594 254 593 q 281 597 273 595 q 297 596 292 595 q 309 594 302 597 q 323 591 317 591 q 330 590 328 590 q 338 579 335 585 q 342 568 340 574 m 286 559 q 276 558 281 556 q 267 560 271 560 q 245 557 255 560 q 224 555 235 555 q 205 547 210 547 q 195 545 199 547 q 187 541 191 544 q 179 540 183 537 q 170 532 175 536 q 163 526 165 529 q 149 515 153 515 q 142 501 148 506 q 133 486 136 496 q 126 477 127 483 q 118 471 125 472 q 117 462 119 465 q 113 456 114 458 q 106 442 109 449 q 102 434 103 438 q 99 427 100 430 q 96 414 96 415 q 94 411 95 414 q 92 396 91 404 q 90 381 92 388 q 77 329 79 347 q 75 289 76 311 q 76 270 76 274 q 77 244 77 244 l 80 228 q 83 216 81 221 q 81 205 84 212 q 86 193 88 193 q 85 190 84 193 q 94 166 95 172 q 96 153 94 160 q 104 132 103 136 q 107 123 104 127 q 112 115 110 121 q 117 107 114 110 q 123 98 119 99 q 123 94 126 96 q 136 84 136 84 q 149 76 138 81 q 166 62 163 65 q 172 58 170 60 q 187 55 187 56 q 189 54 187 54 q 196 50 193 53 q 203 47 199 47 q 214 47 212 46 q 218 47 216 49 q 242 43 227 41 q 269 43 258 45 q 275 47 271 45 q 286 47 279 49 q 297 52 292 52 q 308 56 302 53 q 316 62 315 61 q 321 62 317 64 q 329 73 324 69 q 336 80 334 76 q 350 92 347 90 q 353 99 353 95 q 369 115 366 111 q 374 122 372 119 q 383 133 380 130 q 389 140 387 136 q 395 154 395 152 q 396 159 395 156 q 407 179 406 174 q 412 190 408 184 q 414 202 411 197 q 420 213 418 208 q 421 226 422 220 q 423 239 420 232 q 431 254 431 248 q 435 262 431 259 q 435 273 431 269 q 435 286 438 278 q 435 305 439 301 q 438 320 438 309 q 435 339 438 334 q 434 348 433 342 q 435 358 435 354 q 434 366 435 362 q 433 374 433 370 q 429 389 429 388 q 423 412 425 408 q 422 419 422 416 q 420 429 420 425 q 419 438 420 433 q 413 452 416 446 q 407 465 410 458 q 397 474 400 473 q 393 476 395 475 q 355 503 377 499 q 342 511 345 509 q 335 511 340 513 q 329 517 332 514 q 324 526 326 519 q 312 535 317 530 q 301 545 307 540 q 286 559 290 555 z "},"1":{"ha":294,"x_min":27,"x_max":267,"o":"m 183 9 q 159 3 168 0 q 152 8 155 3 q 146 18 149 14 q 140 27 140 23 q 140 34 140 31 q 141 47 142 41 q 142 60 140 53 q 138 67 140 62 q 138 76 136 72 q 134 83 136 79 q 130 90 133 87 q 132 100 134 95 q 129 110 130 104 q 130 121 130 119 q 129 125 129 123 q 132 138 130 132 q 129 152 133 144 q 132 169 133 165 q 129 175 130 172 q 129 210 127 191 q 126 232 127 224 q 127 244 125 240 q 124 264 122 254 q 126 286 126 275 q 125 298 126 293 q 123 311 123 304 q 125 329 127 324 q 123 338 123 334 q 127 361 123 349 q 123 384 130 373 q 104 376 109 378 q 98 377 100 374 q 81 369 91 370 q 60 365 71 368 l 43 361 q 35 369 39 365 q 27 381 30 373 q 37 395 35 389 q 50 397 49 397 q 52 397 50 396 q 69 402 65 400 q 81 403 73 404 q 103 410 98 410 q 113 415 109 411 q 127 421 125 418 q 133 422 130 425 q 137 438 133 434 q 140 456 140 450 q 141 467 142 467 q 140 471 140 468 q 144 478 141 475 q 144 486 146 481 q 154 506 152 502 q 156 517 156 510 q 165 527 165 526 q 164 533 164 528 q 174 547 168 536 q 180 564 178 556 q 200 583 194 579 q 209 593 206 586 q 219 595 214 595 q 228 595 224 594 q 244 593 240 598 q 255 586 248 589 q 258 576 256 581 q 264 568 259 571 q 265 559 263 563 q 267 552 267 556 q 264 530 263 536 q 263 518 264 525 q 249 503 251 506 q 244 495 247 499 q 237 477 237 483 q 225 465 229 468 q 220 456 221 461 q 207 446 210 446 q 205 439 203 445 q 195 435 198 439 q 187 427 191 430 q 176 416 176 419 q 172 414 176 412 q 167 386 167 393 q 167 368 167 378 q 166 358 167 363 q 168 346 165 353 q 165 315 167 327 q 163 293 163 304 q 164 277 165 282 q 163 269 163 271 q 164 249 165 254 q 163 239 163 244 q 165 227 165 228 q 164 224 164 225 q 165 214 164 218 q 168 205 167 209 q 168 193 168 198 q 170 184 167 189 q 169 171 170 176 q 168 160 168 165 q 169 152 168 156 q 171 141 170 148 q 170 117 174 129 q 173 98 172 107 q 176 77 174 88 l 179 61 q 182 50 179 53 q 186 45 184 47 q 186 29 184 33 q 189 23 189 26 l 183 9 m 191 477 q 197 482 197 477 q 205 487 198 487 q 213 500 213 498 q 214 503 213 502 q 225 519 225 517 q 227 522 225 521 q 236 545 235 540 q 232 555 233 555 q 229 559 231 556 q 221 555 224 556 q 216 552 218 553 q 199 518 202 534 q 190 505 191 507 q 187 492 187 496 q 186 484 187 487 q 183 469 184 469 q 182 468 182 469 l 191 477 z "},"2":{"ha":513,"x_min":14,"x_max":491,"o":"m 252 64 q 260 60 258 64 q 269 58 262 57 q 279 47 271 52 q 294 46 286 43 q 313 37 309 39 q 320 35 317 35 q 347 25 339 24 q 362 20 355 26 q 378 20 372 19 q 395 22 385 22 q 409 28 407 26 q 415 33 411 30 q 422 36 419 35 q 431 39 426 37 q 450 53 445 43 q 453 68 446 65 q 451 85 453 84 q 448 88 449 85 q 435 104 442 100 q 416 104 427 107 q 404 94 404 100 q 403 81 404 88 q 397 72 399 73 q 392 68 395 71 q 379 55 389 54 q 362 58 369 56 q 357 67 359 62 q 350 73 355 72 q 354 81 350 80 q 361 85 358 83 q 358 102 355 99 q 370 111 368 107 q 378 115 372 114 q 389 133 384 130 q 399 140 395 136 q 414 142 412 142 q 429 138 422 142 q 445 137 435 134 q 461 130 457 129 q 479 111 475 115 q 487 103 483 107 q 489 83 488 85 q 491 76 490 81 q 477 38 486 49 q 463 15 469 27 q 455 12 458 14 q 448 9 452 11 q 433 1 437 3 q 427 -3 430 -1 q 404 -9 412 -5 q 372 -16 384 -16 q 349 -15 359 -16 q 332 -12 336 -11 q 321 -11 327 -12 q 304 -4 302 -4 q 289 -1 298 -1 q 278 6 285 5 q 264 9 271 7 q 249 18 250 18 q 245 19 248 18 q 235 26 239 26 q 229 30 232 27 q 216 39 217 38 q 213 42 214 39 q 190 45 194 46 q 178 38 180 39 q 174 34 176 37 q 161 26 164 28 q 156 22 159 23 q 146 18 152 19 q 137 14 140 18 q 129 12 133 14 q 122 14 125 11 q 101 7 113 8 q 79 9 90 7 q 67 12 68 14 q 62 14 66 11 q 52 19 56 16 q 42 23 47 22 q 37 33 41 30 q 27 38 33 35 q 19 58 22 54 q 15 65 16 62 q 14 75 14 68 q 14 83 14 81 q 23 106 20 98 q 33 110 31 109 q 37 114 35 111 q 71 129 54 118 q 81 130 77 127 q 92 132 85 132 q 104 128 99 132 q 114 127 109 125 q 151 118 129 122 q 167 109 164 110 q 174 107 170 107 q 183 100 178 104 q 189 98 189 96 q 221 106 210 96 q 227 113 224 109 q 237 118 231 118 q 248 132 245 129 q 256 137 251 136 q 268 153 266 151 q 273 156 270 155 q 282 170 281 168 q 297 182 293 182 q 303 191 300 187 q 305 205 307 195 q 319 224 313 221 q 323 233 324 227 q 332 241 330 240 q 334 247 334 243 q 343 259 342 256 q 346 264 345 262 q 351 274 349 269 q 357 283 353 279 q 359 297 357 296 q 361 304 362 298 q 368 317 363 309 q 371 326 369 321 q 370 334 373 330 q 378 347 377 339 q 384 362 380 355 l 384 385 q 387 406 385 400 q 385 419 389 412 q 387 433 388 426 q 388 444 387 439 q 384 457 384 450 q 380 471 384 464 q 376 487 380 486 q 374 495 373 488 q 366 507 370 503 q 361 515 362 510 q 353 524 357 519 q 347 532 350 528 q 336 545 340 540 q 309 566 315 559 q 288 572 302 574 q 271 578 275 576 q 259 579 266 579 q 243 577 243 578 q 240 576 243 576 q 224 576 232 578 q 210 575 216 575 q 192 566 194 570 q 186 560 190 563 q 166 542 171 549 q 153 530 161 534 q 149 524 153 525 q 146 517 144 524 q 138 511 141 514 q 134 502 134 509 q 122 487 129 498 q 119 473 123 475 q 113 469 115 472 q 108 454 107 458 q 107 445 109 449 q 105 427 104 431 q 102 420 106 423 q 104 412 104 418 q 106 403 103 406 q 106 391 106 395 q 107 384 106 387 q 118 362 110 372 q 127 351 122 353 q 137 347 133 349 q 157 350 149 345 q 175 364 171 358 q 182 374 179 370 q 181 387 178 387 q 183 389 184 387 q 180 403 182 401 q 179 407 179 404 q 179 426 182 418 q 180 448 176 442 q 186 457 183 454 q 197 460 190 461 q 213 456 203 458 q 222 442 214 450 q 224 416 222 423 q 222 399 225 410 q 224 389 225 391 q 221 384 222 387 q 220 370 222 376 q 217 357 217 363 q 193 334 201 338 q 179 321 184 330 q 172 318 175 320 q 165 315 168 316 q 151 310 159 312 q 132 311 144 308 q 117 318 119 315 q 113 324 115 321 q 98 333 102 331 q 92 338 95 335 q 81 351 90 349 q 75 370 79 362 q 69 385 73 380 q 70 395 71 389 q 69 407 69 401 q 69 425 68 415 q 72 449 71 444 q 75 463 76 458 q 76 471 75 467 q 80 484 80 480 q 81 491 80 487 q 102 518 100 507 q 117 532 104 529 q 119 540 118 537 q 121 547 121 543 q 136 558 134 556 q 140 566 138 560 q 155 579 149 576 q 167 590 165 589 q 171 593 168 591 q 184 601 186 601 q 201 608 198 606 q 208 613 205 610 q 220 613 214 612 q 232 612 227 614 q 243 614 236 614 q 252 618 250 614 q 270 616 262 614 q 286 616 278 617 q 298 608 293 613 q 309 606 302 604 q 330 596 326 600 q 340 590 334 593 q 357 577 351 581 q 366 568 362 574 q 376 557 372 559 q 380 551 380 555 l 393 543 q 399 527 397 529 q 401 522 401 525 l 408 507 q 414 500 412 505 q 418 494 415 496 q 418 486 419 490 q 419 479 418 481 q 423 463 423 468 q 423 450 423 457 q 426 431 426 439 q 424 414 423 418 q 422 407 425 410 q 418 387 422 389 q 419 376 420 380 q 419 365 418 372 q 414 349 412 351 q 414 343 415 347 q 404 309 408 317 q 397 286 399 300 q 389 276 391 283 q 385 259 388 269 l 377 243 q 362 223 368 233 q 349 203 357 213 q 342 187 342 189 q 342 184 343 186 q 332 173 335 176 q 324 164 328 170 q 309 148 313 153 q 294 129 301 136 q 281 115 283 117 q 278 110 278 114 q 262 98 267 100 q 255 90 258 95 q 246 83 251 85 q 241 73 241 80 l 252 64 m 142 77 q 125 81 127 80 q 111 87 115 88 q 102 90 106 87 q 81 95 85 94 q 64 88 68 91 q 56 85 60 85 q 49 71 47 76 q 47 64 50 66 q 65 50 61 61 q 92 46 85 45 q 106 49 99 47 q 121 49 115 46 q 134 52 127 52 q 142 57 137 56 q 151 61 148 58 q 153 72 160 72 q 142 77 145 72 z "},"3":{"ha":445,"x_min":43,"x_max":410,"o":"m 137 330 q 153 339 152 339 q 167 351 164 349 q 187 357 183 355 q 194 359 190 358 q 203 362 198 361 q 215 365 214 363 q 218 366 216 366 q 233 364 232 363 q 236 365 233 365 q 254 360 251 362 q 263 361 258 358 q 275 354 274 355 q 277 354 275 353 q 286 361 283 355 q 294 369 289 366 q 304 387 301 385 q 309 393 307 389 q 312 406 312 400 q 315 418 312 411 q 317 431 317 427 q 320 438 317 434 q 321 457 323 450 q 325 476 328 476 q 323 480 321 476 q 320 493 321 487 q 316 506 319 499 q 308 522 308 519 q 305 528 308 525 q 299 538 302 533 q 293 551 296 544 q 275 566 277 563 q 269 567 273 564 q 259 570 264 570 q 236 570 247 572 q 219 570 228 570 q 205 567 210 571 q 184 566 194 570 q 163 560 174 562 q 157 556 159 559 q 148 553 155 553 q 138 544 144 547 q 130 534 133 541 q 111 519 117 525 q 94 484 98 499 q 89 473 91 476 q 91 468 87 471 q 96 441 91 450 q 111 430 100 433 q 125 437 125 437 q 132 453 132 448 q 129 461 133 458 q 140 476 133 469 l 171 477 q 178 457 179 460 q 172 435 180 441 q 160 418 164 429 q 149 413 152 415 q 144 408 146 411 q 132 406 136 410 q 122 401 129 401 q 106 399 109 396 q 94 397 99 396 q 81 399 90 399 q 74 408 79 406 q 66 416 69 411 q 59 427 62 426 q 58 431 56 429 q 49 448 52 439 q 52 481 52 469 q 58 502 52 492 q 68 525 65 514 q 77 541 79 537 q 94 549 88 543 q 104 563 99 556 q 125 579 121 570 q 144 590 137 587 q 157 598 152 593 q 168 597 163 597 q 178 600 172 597 q 195 604 193 604 q 208 607 199 608 q 222 606 217 606 q 241 606 237 605 q 247 606 244 606 q 254 605 250 606 q 262 604 258 604 q 286 593 283 602 q 317 580 308 586 q 331 562 327 574 q 345 544 340 547 q 352 524 350 528 q 358 518 354 519 q 361 508 358 513 q 363 496 363 503 q 363 489 365 492 q 362 481 362 486 q 364 468 362 469 q 365 464 366 467 q 359 429 362 438 q 357 410 357 419 q 352 399 354 400 q 351 393 350 397 q 339 377 342 377 q 334 357 334 363 q 326 349 327 354 q 320 340 324 343 q 326 333 323 336 q 335 330 328 330 q 340 322 338 327 q 350 316 343 317 q 369 297 357 304 l 380 282 q 391 259 389 267 q 399 247 392 251 q 399 236 396 240 q 404 228 401 232 q 407 206 403 218 l 407 191 q 408 176 407 180 q 410 168 410 172 q 408 155 410 161 q 410 141 406 149 q 404 121 404 125 q 403 114 404 117 q 397 108 400 110 q 392 103 395 106 q 385 82 384 85 q 382 76 385 79 q 372 62 376 64 q 368 54 368 60 q 355 45 361 49 q 342 37 349 42 q 332 30 334 33 q 328 24 331 27 q 313 16 312 19 q 301 12 307 16 q 289 9 296 7 q 279 3 281 3 q 274 4 278 4 q 245 -5 251 -3 q 228 -4 239 -7 q 208 -9 213 -8 q 194 -9 202 -9 q 183 -9 187 -9 q 174 -12 179 -8 q 168 -11 171 -11 q 159 -9 164 -11 q 152 -7 155 -9 q 142 -8 149 -5 q 134 -3 138 -5 q 123 0 130 0 q 111 11 113 9 q 111 15 110 12 q 96 26 96 24 q 87 30 90 26 q 81 37 84 34 q 72 41 75 38 q 64 47 69 45 q 56 68 57 64 q 53 75 54 72 q 52 85 52 80 q 47 95 52 91 q 47 106 50 102 q 47 117 45 111 q 44 138 43 136 q 43 148 45 141 q 61 163 49 157 q 88 163 73 168 q 87 152 92 156 q 83 142 83 148 q 85 127 80 133 q 85 109 85 115 q 85 94 84 103 l 91 77 q 95 71 91 72 q 100 65 99 71 q 113 55 110 57 q 119 47 117 53 q 127 43 126 47 q 132 37 129 39 q 149 32 148 31 q 153 33 151 33 q 186 24 176 24 q 210 24 195 23 q 220 27 216 26 q 229 26 225 28 q 241 32 235 31 q 255 35 248 33 q 274 42 271 42 l 289 46 q 307 56 304 54 q 312 61 309 58 q 332 72 326 68 q 340 84 335 79 q 349 95 345 90 q 354 111 351 109 q 359 115 357 114 q 363 130 363 125 q 366 140 363 136 q 366 159 366 156 q 368 165 365 163 q 366 179 365 172 q 366 193 368 186 q 363 208 365 208 q 362 210 362 208 q 359 229 361 227 q 347 255 351 250 q 340 269 343 260 q 332 278 335 273 q 324 289 328 283 q 310 295 313 294 q 305 301 307 296 q 288 310 292 308 q 282 311 285 312 q 270 301 273 302 q 263 298 267 300 q 237 288 243 290 q 228 279 231 286 q 216 274 224 277 q 201 269 209 271 q 190 265 193 266 q 184 264 187 264 q 176 268 182 266 q 168 270 171 270 q 152 274 155 271 q 142 279 149 277 q 138 286 140 282 q 132 292 137 289 q 131 301 133 298 q 127 309 129 304 l 137 330 m 244 328 q 213 332 227 335 q 206 329 213 331 q 199 326 199 327 q 186 322 187 328 q 179 312 186 316 q 187 303 178 301 q 206 308 197 305 q 229 315 228 312 q 236 323 229 319 l 244 328 z "},"4":{"ha":571,"x_min":-42,"x_max":598,"o":"m 357 617 q 361 604 359 605 q 361 597 363 604 q 364 574 363 579 q 369 567 365 570 q 368 553 366 560 q 368 538 369 545 q 370 515 368 522 q 372 496 372 507 q 372 479 370 483 q 373 473 373 476 q 374 458 374 468 q 378 449 377 454 q 382 437 380 444 q 380 429 380 431 q 382 420 380 426 q 381 404 381 408 q 382 396 381 400 q 383 382 382 389 q 384 369 384 376 q 385 354 384 354 q 387 351 387 354 q 384 341 382 349 q 385 326 385 334 q 385 315 384 321 q 384 302 385 308 q 387 288 384 294 q 385 277 391 282 q 388 268 387 273 q 389 258 389 263 q 387 233 385 239 q 387 221 389 228 q 389 202 387 206 q 391 195 391 198 q 400 194 395 195 q 411 195 406 193 q 420 195 414 197 q 433 195 426 194 q 452 199 446 199 q 463 201 457 199 q 479 208 476 206 q 486 210 483 209 q 495 214 494 213 q 499 217 496 216 q 511 222 507 220 q 517 225 514 224 q 536 233 532 229 q 548 239 541 237 q 554 247 551 244 q 560 254 557 250 q 561 265 562 262 q 560 271 560 269 q 555 286 556 286 q 553 286 555 285 q 540 292 543 290 q 534 289 537 293 q 518 291 521 293 q 510 286 515 289 q 496 267 496 274 q 501 254 503 255 q 499 251 499 254 q 500 241 499 244 q 500 235 502 239 q 492 224 499 231 q 477 221 484 218 l 464 228 q 458 237 461 231 q 457 251 454 244 q 457 278 453 270 q 467 292 463 289 q 469 300 471 294 q 480 312 476 309 q 481 321 484 315 q 498 331 492 321 q 515 334 514 332 q 545 334 533 339 q 570 326 557 328 q 585 311 582 313 q 590 308 587 308 q 591 300 590 304 q 593 292 591 297 q 597 268 597 275 q 595 251 598 260 q 589 237 591 240 q 567 210 576 217 q 558 204 564 208 q 545 199 552 201 q 528 190 538 193 q 509 183 518 187 q 500 178 505 180 q 490 175 496 176 q 483 174 487 174 q 475 171 479 174 q 464 167 471 168 q 450 163 457 165 q 433 162 441 165 q 415 159 425 159 q 405 159 410 157 q 395 160 400 161 q 389 149 389 152 q 391 138 389 146 q 391 127 391 133 q 392 115 392 122 q 391 105 392 110 q 391 98 389 100 q 393 79 393 83 q 392 73 392 76 q 395 53 392 66 q 395 39 395 46 q 400 23 396 33 q 398 10 397 16 q 400 -3 399 4 q 388 -6 389 -5 q 385 -9 387 -7 q 362 -16 368 -20 q 353 -4 357 -11 q 353 15 355 9 l 353 30 q 351 48 353 42 q 349 60 349 54 q 350 80 351 77 q 349 85 349 83 q 349 104 350 100 q 349 110 349 107 q 351 125 353 121 q 351 132 349 129 q 349 149 350 142 q 349 160 349 155 q 337 165 340 164 q 334 164 334 167 q 319 170 327 168 q 305 175 312 172 q 292 180 300 178 q 275 182 285 182 q 258 191 260 189 q 252 194 255 193 q 243 196 248 195 q 236 201 239 197 q 223 205 228 201 q 210 208 218 209 q 203 213 209 213 q 194 217 197 213 q 174 225 180 224 q 161 229 167 227 q 137 220 151 224 q 119 205 123 217 q 102 199 111 202 q 84 193 94 195 q 64 188 69 187 q 54 187 60 189 q 38 184 39 186 q 35 183 37 183 q 27 183 33 183 q 19 184 22 183 q 6 189 12 186 q -8 191 0 191 q -19 200 -19 199 q -22 203 -19 201 q -33 213 -33 212 q -35 217 -33 214 q -41 235 -41 233 q -42 243 -42 237 q -40 251 -42 247 q -41 262 -38 255 q -33 273 -34 270 q -30 278 -33 275 q -13 290 -15 290 q -8 290 -11 289 q 8 302 5 300 q 15 304 11 304 q 34 305 23 307 q 54 304 45 304 q 69 302 66 305 q 81 302 76 301 q 94 302 87 304 q 105 298 99 300 q 117 298 111 296 q 135 288 133 290 q 144 286 137 286 q 157 281 148 279 q 165 290 165 282 q 182 306 178 294 q 198 321 186 317 q 203 328 202 324 q 209 334 205 332 q 225 354 212 346 q 237 378 236 370 q 245 389 239 387 q 253 408 247 400 q 263 426 259 415 q 271 441 267 437 q 271 450 275 445 q 280 468 278 465 q 285 473 282 471 q 286 481 286 477 q 286 490 285 486 q 293 511 293 505 q 299 528 297 526 q 302 530 301 529 q 304 543 302 540 q 307 551 305 545 q 310 563 308 560 q 312 570 312 566 q 321 594 311 591 q 323 608 320 604 q 330 618 327 612 q 347 619 342 621 q 357 617 353 617 m 331 496 q 326 486 328 488 q 323 481 324 484 q 320 471 320 476 q 315 463 320 465 q 313 448 313 454 q 296 418 305 426 q 290 403 293 404 q 285 399 286 401 q 275 372 281 381 q 266 353 270 363 q 259 347 260 350 q 255 342 258 345 q 249 332 251 334 q 245 330 247 331 q 231 311 233 316 q 227 301 229 307 q 213 290 213 292 q 210 285 213 288 q 201 278 203 278 q 197 275 199 278 q 197 262 194 263 q 203 258 199 260 q 225 244 221 245 q 240 241 239 243 q 244 237 241 239 q 261 233 258 233 q 266 228 264 232 q 282 223 278 225 q 293 221 286 221 q 301 217 296 217 q 312 214 307 217 q 331 208 326 208 q 343 206 336 208 q 349 224 351 220 q 347 227 347 229 q 347 241 349 236 q 345 250 346 245 q 348 264 347 262 q 349 269 349 266 q 347 285 349 281 q 345 292 345 289 q 343 336 349 320 q 347 349 347 340 q 345 359 346 357 q 345 373 343 366 q 346 387 346 380 q 345 394 346 391 q 343 403 343 397 q 343 421 345 416 q 340 431 342 426 q 340 472 334 456 l 335 496 l 331 496 m 115 254 q 96 261 102 262 q 84 263 91 260 q 60 267 68 270 q 37 269 52 274 q 12 266 23 263 q -1 254 5 258 q -5 237 -8 250 q 1 233 -3 235 q 5 227 4 231 q 27 222 16 225 q 49 218 38 218 q 62 221 57 220 q 71 224 66 222 q 85 228 83 228 q 102 239 99 237 q 107 243 104 240 l 115 254 z "},"5":{"ha":465,"x_min":47,"x_max":446,"o":"m 95 132 q 94 119 96 119 q 90 117 91 119 q 93 104 91 110 q 95 92 95 99 q 98 82 96 84 q 103 77 100 80 q 109 67 107 69 q 114 62 111 65 q 126 52 125 54 q 132 52 127 50 q 147 41 144 45 q 157 39 151 38 q 174 34 170 35 q 186 33 179 33 q 191 29 189 31 q 205 26 194 27 q 215 24 208 27 q 227 26 222 22 q 248 26 244 24 q 254 27 251 27 q 267 30 264 27 q 274 35 270 33 q 283 37 278 37 q 293 39 289 37 q 304 46 300 42 q 313 52 308 50 q 323 60 320 54 q 334 68 327 65 q 343 80 340 80 q 348 94 346 87 q 354 104 350 100 q 355 118 354 118 q 357 119 357 118 q 359 130 357 126 q 363 136 362 133 q 367 154 366 151 q 368 163 368 157 q 371 175 372 171 q 370 182 370 179 q 371 189 370 186 q 372 197 372 193 q 372 222 370 217 q 368 231 373 227 q 368 256 369 243 q 358 275 366 269 q 348 300 355 290 q 335 321 340 309 q 317 340 323 336 q 307 351 311 345 q 279 361 283 355 q 261 363 263 363 q 258 363 259 362 q 237 366 244 368 q 222 368 229 365 q 193 363 201 366 q 178 361 186 361 q 170 355 172 358 q 160 353 167 353 q 149 341 152 343 q 146 335 146 339 q 138 330 140 335 q 129 323 136 324 q 119 304 121 309 q 104 294 107 297 q 96 289 102 290 q 87 289 92 288 q 77 290 83 290 q 79 308 76 308 q 83 335 81 323 q 84 361 85 347 q 83 378 81 373 q 84 387 84 382 q 84 398 83 396 q 84 401 85 400 q 81 419 80 415 q 80 430 81 423 q 78 441 80 437 q 76 453 76 446 q 77 462 76 456 q 75 472 77 468 q 70 488 72 486 q 66 496 68 491 q 57 509 58 509 q 54 513 56 510 q 51 526 47 522 q 61 532 54 529 q 71 546 69 541 q 81 547 73 551 q 94 545 94 545 q 96 544 94 544 q 119 542 114 544 q 129 540 123 540 q 148 543 142 543 q 156 543 153 543 q 189 544 178 545 q 210 541 199 543 q 220 543 216 541 q 229 544 225 544 q 274 536 252 538 q 288 536 285 537 q 293 534 290 534 q 307 533 304 534 q 309 529 311 532 q 322 528 319 529 q 332 525 326 528 q 341 526 336 525 q 353 528 346 528 q 360 526 357 528 q 368 528 363 525 q 373 528 370 529 q 382 529 376 528 q 395 533 389 532 q 404 537 401 534 q 401 558 401 553 q 395 560 401 563 q 380 572 384 568 q 363 566 366 567 q 355 566 359 566 q 350 572 353 568 q 343 578 347 575 q 343 592 343 585 q 347 602 343 600 q 374 610 365 610 q 391 613 384 610 q 408 604 404 604 q 415 602 412 604 q 425 593 423 594 q 426 590 427 593 q 435 580 433 581 q 441 576 438 579 q 445 559 446 563 q 444 551 444 555 q 441 535 444 538 q 439 528 438 532 q 418 512 427 521 q 395 500 410 503 q 372 494 378 495 q 362 490 366 492 q 356 492 359 490 q 347 494 353 495 q 333 494 339 495 q 323 495 327 494 q 313 496 316 496 q 308 496 311 495 q 292 500 294 499 q 286 502 290 502 q 273 506 275 505 q 269 507 270 507 q 260 505 264 507 q 254 506 256 503 q 239 504 241 502 q 235 509 237 506 q 218 511 218 511 q 192 513 198 513 q 179 510 186 513 q 167 511 167 513 q 164 510 167 510 q 151 511 157 513 q 140 506 145 509 q 127 508 134 510 q 114 506 121 506 q 113 492 110 495 q 115 487 115 490 q 116 470 118 471 q 114 467 114 469 q 117 460 115 464 q 117 452 118 457 q 119 439 122 439 q 117 437 115 439 q 119 423 119 429 q 122 415 118 418 q 121 401 122 401 q 119 399 119 401 q 119 391 121 393 q 121 384 118 388 q 120 370 118 370 q 122 366 122 369 q 131 371 127 369 q 137 380 134 373 q 153 385 148 381 q 167 389 159 388 q 180 393 178 395 q 184 392 182 392 q 197 395 191 392 q 209 399 202 399 l 224 397 q 254 400 244 403 q 275 399 263 397 q 294 392 290 396 q 308 389 298 388 q 322 384 315 387 q 338 378 330 381 q 354 362 345 363 q 361 350 355 354 q 370 342 366 346 q 374 332 373 336 q 382 326 376 328 q 391 307 385 315 q 393 296 391 297 q 397 292 395 294 q 401 277 403 277 q 400 274 400 277 q 412 212 408 239 q 406 163 416 186 q 405 146 406 151 q 401 136 404 141 q 398 125 397 127 q 399 121 399 123 q 393 110 396 115 q 391 98 391 104 q 387 92 388 96 q 384 84 387 88 q 366 56 370 68 q 346 37 355 42 q 334 27 339 31 q 324 18 328 23 q 312 15 317 19 q 301 8 307 11 q 294 5 298 5 q 286 1 289 4 q 274 0 277 1 q 269 -1 271 -1 q 252 -3 254 -3 q 248 -4 250 -4 l 232 -8 q 216 -12 221 -12 q 205 -9 210 -11 q 190 -5 197 -8 q 176 -3 183 -1 q 133 7 148 5 q 111 20 118 9 q 96 30 100 23 q 81 41 91 37 q 67 65 69 58 q 60 76 65 72 q 53 95 61 87 l 53 111 q 56 124 54 118 q 60 137 57 130 q 65 153 66 151 q 65 157 64 155 q 72 163 69 160 q 79 170 75 167 q 85 181 84 180 q 88 183 85 182 q 98 195 98 193 q 100 199 98 197 q 112 207 110 203 q 117 212 114 210 q 131 214 130 216 q 134 214 132 213 q 151 218 148 218 q 160 220 153 218 q 174 222 171 222 q 180 221 178 221 q 187 222 183 221 q 195 221 191 222 q 206 216 206 218 q 209 212 206 214 q 222 205 220 205 q 234 185 231 189 q 237 178 237 182 q 241 159 241 168 q 247 140 248 149 q 241 133 245 134 q 237 127 237 132 q 222 117 225 117 q 216 114 218 117 q 191 137 198 118 q 199 153 199 152 q 198 157 198 155 q 195 168 197 165 q 191 174 194 171 q 180 182 182 183 q 176 186 178 182 q 158 183 165 183 q 140 180 151 183 q 134 174 136 178 q 125 170 132 171 q 113 158 115 161 q 107 152 110 155 q 100 134 98 136 l 95 132 z "},"6":{"ha":479,"x_min":20,"x_max":445,"o":"m 381 529 q 373 538 374 537 q 369 538 372 540 q 363 544 368 543 q 355 548 359 545 q 340 555 342 555 q 320 558 327 556 q 309 553 313 560 q 297 556 305 556 q 282 555 289 556 q 267 551 271 551 q 258 547 263 551 q 250 543 255 544 q 243 538 245 541 q 233 538 236 540 q 227 533 229 536 q 212 524 217 526 q 205 518 208 522 q 191 513 193 515 q 187 510 190 511 q 177 501 182 507 q 165 490 172 495 q 157 479 161 484 q 148 472 153 475 q 133 454 134 458 q 126 449 132 450 q 119 435 119 437 q 115 430 118 433 q 108 418 110 420 q 106 411 106 415 q 96 401 95 403 q 96 396 98 399 q 88 379 88 381 q 84 378 88 377 q 79 364 83 369 q 76 351 76 359 l 71 332 q 64 316 64 319 q 62 300 61 308 q 60 290 62 293 q 61 281 61 286 q 62 270 61 275 q 64 243 61 251 q 73 210 71 216 q 81 197 75 203 q 91 178 81 180 q 96 161 92 163 q 98 152 99 159 q 107 140 104 148 q 113 126 110 133 q 127 110 125 114 q 132 104 130 109 q 133 95 133 99 q 152 85 145 92 q 159 79 156 81 q 164 75 163 77 q 183 66 176 71 q 195 62 190 64 q 206 56 201 60 q 214 55 209 57 q 221 52 218 53 q 233 49 228 52 q 245 46 239 46 q 261 46 256 47 q 270 46 266 45 q 299 51 285 46 q 328 60 313 56 q 340 67 338 66 q 346 71 342 68 q 363 81 361 79 q 369 88 366 84 q 378 98 373 94 q 387 104 382 102 q 393 124 393 121 q 396 129 392 127 q 400 149 397 146 q 401 159 403 152 q 406 167 407 161 q 404 179 406 172 q 401 197 403 189 q 395 210 400 206 q 393 222 391 221 q 393 227 395 224 q 388 235 391 231 q 382 243 385 240 q 379 253 382 250 q 373 259 376 256 q 366 273 372 270 q 358 283 361 275 q 345 289 353 288 q 331 294 338 290 q 313 291 323 293 q 296 290 302 289 q 279 286 279 289 q 277 283 279 283 q 266 281 269 282 q 255 277 263 279 q 241 264 243 267 q 236 258 239 260 q 234 248 236 251 q 229 240 232 244 q 229 229 232 233 q 224 220 225 225 q 222 201 221 212 q 221 180 224 191 q 229 165 228 167 q 243 156 240 159 q 254 154 245 153 q 269 153 263 155 q 278 141 275 141 q 279 137 281 141 q 271 121 274 125 q 266 111 269 117 q 252 111 259 114 q 240 109 245 109 q 231 113 235 110 q 221 117 228 117 q 208 126 209 126 q 208 127 208 126 q 201 134 202 132 q 194 136 199 136 q 191 146 195 141 q 184 155 186 151 q 180 170 180 168 q 179 174 179 171 q 178 192 178 182 q 182 210 178 202 q 182 225 179 217 q 183 237 184 233 l 189 255 q 197 270 195 266 q 201 279 198 274 q 212 289 210 286 q 214 296 213 292 q 227 303 220 300 q 239 312 233 307 q 250 313 245 312 q 258 317 254 315 q 271 324 270 321 q 274 326 271 327 q 284 328 277 326 q 298 332 292 331 l 313 330 q 328 332 328 334 q 331 331 328 331 q 347 330 343 332 q 353 331 350 328 q 369 317 368 321 q 382 311 380 312 q 388 307 385 309 q 399 295 397 298 q 406 290 400 292 q 412 273 412 274 q 417 261 415 269 q 426 251 419 254 q 430 227 429 237 q 437 209 431 216 q 437 192 437 198 q 445 180 438 186 q 441 161 444 165 q 438 149 438 156 q 433 142 434 146 q 431 136 433 138 q 428 124 430 130 q 425 110 426 118 q 417 94 420 96 q 415 83 414 91 q 409 78 412 81 q 403 72 406 75 q 391 60 395 65 q 385 53 388 56 q 374 48 378 52 q 363 42 369 45 q 347 31 355 37 q 331 23 338 28 q 312 15 316 19 q 303 14 308 14 q 294 12 298 14 q 283 10 285 9 q 278 11 281 11 q 252 7 260 7 q 235 7 244 8 q 227 10 232 9 q 217 12 221 11 q 207 15 212 14 q 197 15 202 16 q 182 23 186 23 q 161 37 167 34 q 149 41 156 39 q 132 50 136 47 q 119 61 119 60 q 117 65 119 62 q 100 79 102 76 q 94 83 98 83 q 89 92 92 90 q 83 98 85 95 q 73 120 77 114 q 66 133 69 126 q 58 145 60 141 q 52 152 56 149 q 46 176 49 164 q 35 195 43 189 q 35 203 35 198 q 34 212 35 208 q 31 221 33 217 q 27 233 30 225 q 23 260 23 251 q 20 275 23 269 q 24 299 26 286 q 31 323 23 312 q 35 346 35 340 q 39 354 35 351 q 43 366 41 361 q 47 378 45 372 q 51 389 52 385 q 52 395 50 392 q 64 416 61 410 q 69 429 66 422 l 79 448 q 87 452 84 449 q 94 458 91 456 q 104 471 104 471 q 113 486 113 483 q 118 488 114 490 q 125 502 119 499 q 132 515 132 505 q 140 517 137 514 q 146 522 142 519 q 165 535 161 533 q 171 543 170 537 q 181 548 178 544 q 189 555 184 552 q 198 560 194 560 q 205 562 202 560 q 220 568 216 568 q 226 573 222 571 q 233 576 229 575 q 252 583 248 581 q 263 586 256 585 q 278 589 278 587 q 291 591 289 591 q 296 591 293 590 q 312 591 304 594 q 328 594 320 591 q 345 589 340 590 q 353 587 349 587 q 368 583 362 585 q 382 579 374 582 q 400 567 395 572 q 408 553 406 555 q 412 548 410 552 q 412 525 418 533 q 391 521 393 515 q 381 529 388 526 z "},"7":{"ha":477,"x_min":7,"x_max":562,"o":"m 562 601 q 555 589 557 595 q 551 576 553 583 q 532 569 540 574 q 518 557 525 564 q 508 556 511 559 q 500 551 505 553 q 481 546 486 547 q 469 545 476 545 q 457 541 460 541 q 452 540 454 540 q 441 541 448 540 q 427 538 434 541 q 409 537 412 536 q 399 537 406 538 q 386 536 387 536 q 382 537 385 537 q 370 532 369 532 q 369 530 370 532 q 361 522 363 522 q 357 521 359 521 q 351 513 354 515 q 349 505 349 510 q 339 492 342 500 q 328 480 336 483 q 318 460 321 463 q 315 453 315 458 q 304 443 307 450 q 296 430 302 435 q 291 412 294 419 q 283 399 288 406 q 280 387 279 389 q 281 382 281 385 q 278 368 275 374 q 270 354 273 362 q 266 339 267 346 q 262 325 263 334 q 254 312 260 316 q 253 296 252 304 q 250 283 254 289 q 244 262 245 266 q 241 254 243 258 q 239 247 240 251 q 235 236 237 243 q 234 222 236 224 q 231 218 232 221 q 228 191 229 199 q 224 179 227 183 q 224 165 224 172 q 224 152 225 159 q 221 144 222 148 q 218 136 220 140 l 218 121 q 216 110 216 118 q 216 95 216 102 q 213 72 214 83 q 216 53 212 61 q 213 43 212 49 q 210 31 214 37 q 213 24 213 27 q 214 14 213 20 q 218 -7 216 -1 q 218 -17 220 -12 q 218 -27 217 -22 q 212 -34 214 -31 q 205 -37 209 -37 q 188 -38 193 -39 q 178 -38 183 -37 q 173 -23 175 -31 q 168 -5 171 -15 q 172 3 172 -1 q 171 15 171 8 q 171 40 172 33 q 170 54 170 47 q 173 77 174 72 q 176 84 172 81 q 176 103 174 94 q 179 121 179 113 q 180 132 179 130 q 182 137 182 134 q 182 148 180 142 q 183 156 183 153 q 184 179 184 176 q 186 192 186 186 q 187 205 186 198 q 191 220 189 209 q 199 239 198 235 q 203 248 199 244 q 206 271 205 264 q 210 288 208 278 q 212 299 213 297 q 213 304 212 301 q 216 313 214 309 q 221 321 218 316 q 222 339 218 332 q 232 353 227 346 q 233 362 231 359 q 235 372 236 365 q 239 380 237 374 q 243 392 240 387 q 250 413 250 407 q 252 425 250 419 q 263 439 262 438 q 263 444 264 441 q 271 454 269 452 q 274 457 273 456 q 281 472 275 465 q 309 514 292 499 q 314 526 311 521 q 320 537 317 530 q 302 538 304 538 q 297 541 300 538 q 288 538 294 538 q 281 534 282 538 q 264 539 269 537 q 255 541 260 541 q 238 539 241 538 q 232 540 235 540 q 217 538 220 537 q 212 538 214 538 q 203 536 208 538 q 197 537 199 534 q 168 533 180 537 q 150 526 155 528 q 138 524 145 525 q 121 519 122 519 q 118 517 121 518 q 102 509 104 509 q 91 501 96 505 q 79 498 85 498 q 76 488 79 491 q 76 480 73 486 q 57 459 60 467 q 52 445 54 452 q 45 412 45 431 q 38 408 41 411 q 30 404 35 406 q 18 407 23 404 q 7 411 12 410 l 7 437 q 15 451 14 448 q 16 461 16 454 q 24 468 22 464 q 31 475 26 472 q 37 492 33 486 q 46 506 42 499 q 56 515 56 513 q 60 519 57 517 q 79 530 68 526 q 96 544 90 534 q 112 553 106 551 q 122 552 118 555 q 146 559 130 563 l 163 566 q 180 569 174 567 q 190 572 186 571 q 214 575 210 571 q 223 572 218 571 q 235 575 228 574 q 278 576 262 571 q 301 572 296 572 q 316 572 307 572 q 331 572 328 571 q 336 571 334 572 q 347 569 345 570 q 354 571 350 568 q 366 577 359 572 q 377 589 373 582 q 388 591 384 589 q 396 598 392 594 q 412 612 411 606 q 429 617 426 617 q 450 627 445 625 q 458 633 456 629 q 468 634 464 632 q 475 636 472 636 q 489 637 481 635 q 505 635 496 639 q 530 632 524 637 q 545 623 536 627 q 553 612 548 616 q 562 601 559 608 m 510 601 q 502 601 505 600 q 494 602 499 602 q 479 598 487 598 q 461 592 467 595 q 453 586 456 589 q 437 578 439 581 q 431 574 434 576 q 454 572 441 571 q 475 578 467 572 q 498 584 494 579 q 509 586 503 589 q 515 590 511 589 q 521 597 519 591 l 510 601 z "},"8":{"ha":445,"x_min":27,"x_max":403,"o":"m 301 324 q 315 315 312 315 q 321 312 319 315 q 340 295 335 297 q 346 286 345 293 q 356 279 351 282 q 363 270 361 277 q 378 254 374 256 q 384 248 381 251 q 388 236 387 239 q 387 233 389 233 q 391 220 392 222 q 392 216 391 218 q 395 208 393 212 q 399 201 396 205 q 399 186 400 190 q 400 175 399 182 q 400 155 403 160 q 400 144 397 151 q 395 127 396 137 q 389 111 393 118 q 388 96 393 103 q 385 81 382 90 q 380 74 381 79 q 377 65 380 69 q 371 58 374 61 q 369 49 368 54 q 361 41 363 46 q 355 34 359 37 q 331 15 335 23 q 312 7 320 15 q 296 2 297 1 q 293 3 294 3 q 269 -3 277 -4 q 255 -5 262 -3 l 240 -9 q 224 -10 227 -11 q 220 -9 222 -9 q 211 -10 216 -9 q 201 -11 206 -11 q 189 -11 195 -11 q 175 -9 182 -11 q 157 -7 157 -7 q 144 1 149 -3 q 123 7 127 5 q 113 11 119 9 q 92 32 98 28 q 80 41 87 35 q 67 54 69 52 q 64 58 65 56 q 58 64 61 61 q 53 71 56 68 q 45 85 47 83 q 41 100 39 98 q 38 104 43 103 q 35 121 35 114 q 27 130 34 127 q 29 149 31 146 q 27 155 27 152 q 28 167 30 165 q 27 171 27 168 q 35 184 30 178 q 35 201 39 190 q 43 214 42 212 q 43 221 43 217 q 49 229 47 224 q 53 240 50 235 q 65 256 62 245 q 77 271 68 266 q 87 286 84 282 q 95 292 91 289 q 104 299 102 298 q 109 302 106 300 q 121 313 118 312 q 123 311 123 313 q 138 321 140 321 q 126 336 129 336 q 110 347 110 343 q 104 350 110 350 q 94 363 103 357 q 81 383 85 378 q 76 392 77 388 l 72 412 q 66 429 65 427 q 68 433 68 430 q 66 446 65 446 q 68 448 68 446 q 71 469 68 458 q 71 480 72 475 q 73 490 71 486 q 78 500 75 496 q 80 510 81 503 q 88 517 87 513 q 94 525 90 522 q 100 545 96 541 q 104 555 103 548 q 114 567 114 562 q 127 574 121 571 q 140 585 134 578 q 155 592 153 591 q 159 595 157 593 q 174 599 174 600 q 176 598 175 598 q 194 602 189 600 q 212 610 209 610 q 218 610 216 609 q 236 610 231 613 q 248 609 241 606 q 271 596 267 600 q 279 589 275 593 q 297 570 297 582 q 302 551 297 557 q 323 530 315 536 q 334 517 332 518 q 338 515 336 517 q 344 500 343 503 q 345 495 345 498 q 349 487 347 490 q 353 480 351 484 q 359 467 359 467 q 362 450 363 450 q 361 448 361 449 q 365 429 365 433 q 368 420 365 425 q 362 392 366 403 q 350 363 359 370 q 340 343 351 349 q 321 328 328 338 q 310 328 315 330 q 301 324 305 327 m 205 570 q 189 564 198 566 q 172 559 180 562 q 161 549 163 553 q 155 547 160 545 q 143 536 145 538 q 138 534 141 534 q 133 524 137 528 q 127 514 129 521 q 117 498 117 502 q 117 491 117 494 q 110 477 113 483 q 104 462 104 465 q 103 456 104 458 q 108 435 104 441 q 109 423 111 430 q 113 414 113 420 q 118 404 114 407 q 125 391 122 397 q 132 380 127 385 q 148 363 142 368 q 155 362 152 363 q 164 362 159 361 q 185 349 178 353 q 199 347 193 345 q 212 342 212 340 q 214 345 212 343 q 230 347 228 347 q 235 349 232 346 q 250 346 247 347 q 256 346 254 345 q 272 348 269 349 q 279 349 275 347 q 292 354 285 353 q 304 362 300 355 q 320 372 317 368 q 324 378 323 376 q 330 393 328 392 q 331 397 331 395 q 330 410 332 404 q 332 422 328 415 q 330 429 330 425 q 330 441 331 434 q 323 460 323 456 q 320 467 323 464 q 314 479 317 476 q 311 487 311 481 q 302 503 302 492 q 286 517 292 514 q 270 524 271 525 q 253 536 256 533 q 245 540 250 538 q 231 543 233 543 q 215 549 216 547 q 212 553 214 552 q 209 570 209 562 l 205 570 m 346 239 q 338 248 340 247 q 334 248 335 248 q 328 258 328 258 q 327 262 328 259 q 313 271 315 269 q 307 274 311 274 q 296 286 298 285 q 293 285 294 288 q 274 293 285 292 q 258 297 267 294 q 245 299 247 300 q 241 300 244 298 q 230 302 232 302 q 225 301 228 301 q 211 304 218 307 q 195 304 203 302 q 188 300 193 301 q 178 297 183 298 q 160 290 168 290 q 142 281 144 283 q 134 279 140 278 q 130 271 133 274 q 123 262 126 267 q 116 257 118 262 q 109 251 114 252 q 92 233 103 241 q 85 216 85 218 q 83 213 84 214 q 75 190 75 197 q 71 182 71 187 q 68 174 71 176 q 68 146 65 153 q 69 133 72 140 q 72 124 72 129 q 75 115 72 119 q 79 106 76 110 q 81 95 83 102 q 94 79 92 91 q 111 65 107 68 q 123 52 119 56 q 133 47 126 47 q 144 38 137 41 q 157 33 151 35 q 174 27 165 30 q 189 24 182 24 q 208 21 202 22 q 221 20 214 20 q 239 23 232 23 q 260 24 255 22 q 269 27 264 27 q 284 33 281 30 q 294 34 288 37 q 311 45 308 42 q 323 49 315 47 q 339 65 335 61 q 350 88 343 76 q 354 115 357 100 q 361 127 362 125 q 359 133 359 129 q 366 155 366 152 q 362 174 368 165 q 363 191 363 182 q 359 209 362 199 q 355 221 354 220 q 355 225 357 222 q 349 231 351 227 q 346 239 347 235 z "},"9":{"ha":448,"x_min":41,"x_max":406,"o":"m 119 39 q 134 37 127 41 q 150 35 144 38 q 167 34 156 31 q 183 37 180 38 q 189 37 186 37 q 197 40 191 38 q 209 45 202 42 q 222 50 221 49 q 224 52 222 52 q 234 54 232 53 q 239 57 236 56 q 256 67 254 64 q 266 69 259 71 q 279 80 278 76 q 288 84 281 84 q 300 99 294 92 q 313 113 305 106 q 318 124 313 119 q 327 133 323 129 q 330 143 327 140 q 331 153 334 146 q 340 163 338 156 q 346 176 343 170 q 349 189 347 184 q 349 199 351 194 q 357 215 357 212 q 355 221 358 218 q 359 234 362 233 q 357 237 357 235 q 362 274 359 259 q 363 297 365 292 q 362 309 362 302 q 363 326 363 324 q 362 331 362 328 q 361 341 361 336 q 361 351 362 346 q 360 364 359 359 q 361 372 361 369 q 358 390 359 387 q 359 396 357 393 q 353 416 353 406 q 351 431 351 423 q 349 448 351 439 q 341 461 342 457 q 340 469 340 465 q 331 484 331 483 q 323 499 327 495 q 312 514 312 509 q 302 522 308 518 q 292 532 297 526 q 281 543 281 541 q 279 545 281 544 q 272 553 275 551 q 264 559 269 556 q 248 560 252 559 q 225 564 237 563 q 198 562 213 564 q 182 558 190 559 q 168 555 175 557 q 153 547 160 552 q 137 538 146 541 q 118 522 121 526 q 109 515 115 517 q 100 499 109 507 q 99 489 103 492 q 98 481 95 486 q 87 453 87 469 q 79 423 88 437 q 78 409 81 416 q 76 393 75 401 q 77 373 75 381 q 80 358 80 365 q 82 347 80 349 q 85 342 84 345 q 102 312 92 317 q 111 292 107 297 q 129 279 123 283 q 140 270 134 274 q 152 269 152 271 q 155 267 152 267 q 170 265 164 269 q 182 259 175 262 q 195 267 189 263 q 210 273 201 270 q 216 277 213 275 q 222 282 218 279 q 232 300 229 294 q 233 311 232 308 q 233 320 235 315 q 230 335 231 335 q 229 336 229 335 q 228 347 227 345 q 228 351 229 349 q 223 363 225 358 q 221 374 221 369 q 233 391 232 389 q 240 393 235 392 q 261 378 259 388 q 269 361 263 368 q 269 344 269 353 q 273 330 269 335 q 275 311 269 320 l 273 296 q 264 283 266 285 q 263 278 262 282 q 250 264 252 267 q 247 255 248 260 q 237 250 240 254 q 231 243 233 245 q 203 228 210 236 q 180 230 187 229 q 170 228 172 231 q 149 232 161 233 q 142 235 146 235 q 133 236 137 236 q 126 241 130 240 q 118 244 122 241 q 103 254 103 254 q 77 278 84 267 q 68 290 69 289 q 66 294 66 290 q 60 303 61 297 q 56 316 58 309 q 45 345 49 335 q 43 366 41 355 q 43 387 42 382 q 43 395 45 391 q 43 405 42 401 q 45 411 45 408 q 48 427 49 425 q 47 430 47 429 q 50 439 47 435 q 50 448 53 444 q 56 469 57 457 q 65 496 64 488 q 72 510 66 505 q 85 540 83 526 q 101 553 95 545 q 118 563 107 560 q 125 569 121 567 q 132 575 129 571 q 159 586 152 585 q 171 586 167 587 q 189 593 186 595 q 200 595 198 597 q 206 594 202 594 q 224 595 218 595 q 233 593 229 595 q 262 593 254 593 q 278 590 270 594 q 302 578 294 582 q 315 563 311 574 q 326 552 324 556 q 332 545 328 548 q 347 532 336 540 q 362 507 357 518 q 369 496 366 499 q 374 488 372 494 q 378 481 377 486 q 381 471 378 476 q 385 462 382 464 q 388 457 387 460 l 389 442 q 393 426 392 429 q 395 420 395 423 q 397 403 395 410 q 399 393 399 396 q 399 370 397 376 q 401 358 400 365 q 400 340 399 343 q 403 330 401 335 q 404 316 404 324 q 404 300 403 301 q 406 296 406 298 q 405 282 406 283 q 404 278 404 281 q 402 264 401 267 q 403 259 403 262 q 401 239 400 244 q 399 231 403 235 q 397 222 397 228 q 395 213 397 216 q 392 193 395 199 q 389 178 389 187 q 378 164 387 170 q 375 145 381 153 q 369 126 369 137 q 360 117 363 122 q 354 109 357 113 q 347 100 347 102 q 345 96 347 99 q 333 81 336 84 q 326 76 330 79 q 322 69 324 72 q 317 62 320 66 q 307 56 313 58 q 300 47 301 54 q 287 43 288 42 q 285 43 286 45 q 270 34 275 37 q 264 29 267 31 q 254 27 260 27 q 241 20 248 22 q 228 14 233 18 q 216 12 221 15 q 208 7 212 8 q 198 6 202 5 q 190 5 194 7 q 170 -1 174 -1 q 161 -1 165 0 q 138 -4 144 -5 q 127 -5 133 -3 q 111 4 117 -1 q 109 12 110 7 q 107 19 109 16 q 119 39 117 37 z "},"Ð":{"ha":811,"x_min":14,"x_max":776,"o":"m 227 476 q 201 470 209 473 q 186 469 193 467 q 152 467 170 461 q 132 462 140 464 q 121 457 123 460 q 111 459 117 460 q 99 461 104 458 q 91 473 92 465 q 92 488 90 481 q 101 499 95 495 q 114 500 107 503 q 127 505 126 506 q 133 500 129 503 q 144 502 138 503 q 155 500 149 500 q 168 503 161 502 q 180 505 174 505 q 192 505 190 503 q 197 506 194 506 q 212 506 212 505 q 216 507 213 507 q 215 522 213 519 q 214 526 217 525 q 212 536 212 528 q 212 545 213 545 l 209 564 q 208 578 210 571 q 206 591 206 585 q 205 602 203 600 q 205 609 206 604 q 199 633 198 627 q 198 647 201 639 q 195 665 197 661 q 191 674 193 670 q 190 697 191 692 q 190 709 189 703 l 191 726 q 188 736 189 731 q 186 743 187 741 q 187 761 184 753 q 190 780 190 769 q 189 789 190 785 q 187 798 187 793 q 189 806 187 802 q 191 818 191 811 q 193 836 193 836 q 196 852 194 849 q 198 859 198 856 q 197 872 197 871 q 198 876 198 873 q 208 892 206 890 q 217 913 217 906 q 201 911 206 913 q 194 909 197 910 q 172 899 175 902 q 163 899 168 897 q 157 893 160 895 q 152 888 155 891 q 139 884 145 886 q 129 879 133 882 q 119 872 123 876 q 109 868 115 868 q 95 851 98 856 q 85 844 92 846 q 79 831 80 834 q 75 826 79 827 q 65 809 65 815 q 58 802 65 803 q 58 783 60 785 q 56 779 56 781 q 53 767 54 772 q 52 753 52 762 q 52 731 50 732 q 54 715 54 715 q 59 706 56 709 q 62 697 62 703 q 73 692 66 694 q 83 686 79 690 q 90 688 85 690 q 98 693 95 686 q 119 692 115 696 q 126 684 123 688 q 117 661 118 665 q 92 654 102 658 q 65 654 83 651 q 46 668 49 663 q 37 674 43 673 l 16 697 q 17 705 19 701 q 15 713 15 708 q 17 736 15 724 q 14 755 19 747 q 15 762 15 758 q 16 770 15 766 l 19 791 q 23 798 20 795 q 24 807 26 802 q 35 823 35 821 q 45 841 45 838 q 47 842 45 844 q 56 857 56 853 q 60 864 57 861 q 80 887 77 880 q 92 892 87 890 q 99 901 96 894 q 111 907 109 905 q 114 911 113 909 q 125 916 122 913 q 136 922 129 918 q 156 925 149 925 q 167 934 163 928 q 178 939 171 940 q 199 947 190 943 q 217 949 209 952 q 233 960 222 952 q 241 960 237 960 q 250 962 245 959 q 257 964 254 963 q 267 966 260 964 q 285 970 282 968 q 303 973 297 975 q 313 978 309 971 q 329 979 328 979 q 332 978 330 978 q 355 980 350 981 q 366 981 359 979 q 380 982 377 983 q 385 981 382 981 q 393 981 389 981 q 401 981 396 982 q 416 979 415 978 q 419 979 418 979 q 435 976 430 975 q 442 971 439 977 q 456 968 450 972 q 468 962 461 964 q 482 955 476 958 q 495 945 488 952 q 513 940 510 940 q 519 937 517 940 q 540 920 534 924 q 555 913 545 916 q 574 899 568 905 q 592 882 587 886 q 600 873 597 879 q 612 863 606 869 q 618 858 616 861 q 624 853 620 854 q 639 837 628 842 q 648 826 646 826 q 651 823 650 826 q 661 812 659 812 q 665 808 662 811 q 677 795 674 798 q 684 789 681 792 q 688 780 686 785 q 696 773 690 774 q 701 763 701 764 q 703 760 701 762 q 716 734 713 746 q 724 723 720 728 q 727 711 727 718 q 734 696 735 700 q 736 690 734 693 q 746 673 742 674 q 750 655 749 656 q 751 651 751 654 q 758 632 758 639 q 761 620 758 625 q 764 593 762 600 q 768 585 765 587 q 768 572 766 574 q 769 568 769 571 q 770 549 769 556 q 773 536 772 543 q 774 517 773 521 q 776 510 776 513 q 775 492 774 498 q 776 484 776 487 q 774 472 773 475 q 776 467 776 469 q 775 447 776 456 q 774 429 774 438 q 774 412 773 415 q 774 407 774 410 q 770 393 773 400 q 769 378 768 387 q 764 361 761 362 q 757 334 760 342 q 751 321 754 326 q 748 305 753 311 q 746 290 743 300 q 739 279 739 288 q 730 267 738 270 q 731 260 735 263 q 730 250 727 256 q 721 241 723 247 q 716 229 719 235 q 707 215 708 218 q 703 206 705 212 q 696 192 694 194 q 696 190 697 190 q 685 180 689 184 q 677 171 681 175 q 668 165 673 168 q 662 156 663 163 q 652 147 655 153 q 642 138 648 141 q 633 129 639 132 q 625 119 628 126 q 613 114 617 114 q 606 111 609 114 q 593 98 594 103 q 581 93 586 96 q 570 85 576 90 q 564 80 567 81 q 555 75 560 79 l 538 65 q 525 58 529 58 q 518 57 521 58 q 500 49 507 52 q 481 43 496 46 q 471 41 473 42 q 467 39 469 39 q 441 37 452 37 q 433 33 437 35 q 425 31 429 31 q 408 30 416 33 q 395 27 400 27 q 365 28 374 30 q 347 31 355 27 q 322 40 328 37 q 311 39 316 43 q 288 48 293 45 q 275 52 282 52 q 257 56 260 60 q 251 47 254 52 q 236 39 236 41 q 233 37 236 38 q 217 22 217 27 q 186 12 202 14 q 174 7 180 7 q 161 4 168 8 q 154 5 159 7 q 146 4 149 4 q 121 5 133 4 q 99 8 110 7 q 82 19 92 15 q 65 31 72 23 q 60 48 61 45 q 57 57 60 52 q 53 73 53 69 q 54 77 53 76 q 50 88 53 83 q 45 99 46 94 q 44 115 45 113 q 43 121 43 118 q 50 134 46 130 q 54 153 47 145 q 62 170 60 160 q 79 183 76 182 q 84 187 81 184 q 100 197 96 195 q 107 203 104 199 q 125 208 121 203 q 151 210 137 209 q 172 201 165 212 q 189 194 186 197 q 195 191 191 191 q 208 182 199 182 q 216 168 210 174 q 218 152 221 161 q 223 144 222 148 q 225 137 224 140 q 214 129 213 133 q 213 123 216 125 q 203 121 209 121 q 193 122 198 122 q 187 127 190 125 q 180 133 184 130 q 173 150 176 146 q 172 157 170 153 q 164 163 167 160 q 157 170 161 167 q 146 174 146 172 q 142 174 145 175 q 128 169 129 171 q 121 168 127 167 q 110 161 115 164 q 102 151 104 159 l 88 141 q 84 129 84 136 q 79 117 84 122 q 81 105 81 111 q 83 92 81 99 q 87 79 88 83 q 92 75 87 76 q 93 66 90 69 q 95 57 96 64 q 106 45 103 45 q 119 39 118 38 q 121 41 119 41 q 148 39 132 39 q 171 45 164 38 q 193 49 190 49 q 203 54 198 52 q 216 60 209 57 q 229 72 227 71 q 233 73 231 73 q 245 91 243 88 q 252 103 251 100 q 254 111 254 106 q 262 121 262 119 q 266 126 263 123 q 267 141 266 137 q 267 148 264 144 q 270 156 270 152 q 271 175 270 168 q 273 187 273 182 q 271 202 273 194 q 270 217 270 210 q 273 244 274 236 q 269 263 271 252 q 267 279 267 274 q 266 289 267 283 q 264 300 263 298 q 264 304 264 302 q 261 321 263 320 q 258 326 259 323 q 256 342 258 340 q 254 346 255 343 q 252 360 252 353 q 250 377 252 368 q 246 389 245 388 q 245 393 247 391 q 243 418 240 410 q 238 433 239 430 q 236 439 237 437 q 231 456 231 453 q 229 461 232 460 q 228 469 228 465 q 227 476 228 473 m 382 471 q 367 472 368 469 q 365 477 366 475 q 344 476 351 473 q 324 477 336 479 q 308 480 312 476 q 300 480 304 480 q 293 483 296 480 q 284 480 289 480 q 275 480 279 480 q 273 469 274 471 q 273 464 273 467 q 279 445 278 448 q 280 437 281 439 q 282 430 279 434 l 288 408 q 289 392 288 392 q 290 389 290 392 q 291 376 292 378 q 292 372 290 373 q 297 359 297 363 q 298 350 297 354 q 300 336 301 339 q 301 331 300 334 q 304 319 302 321 q 307 313 307 316 q 307 297 307 297 q 309 278 308 282 q 312 271 311 274 q 311 259 312 262 q 312 254 311 256 q 315 238 316 239 q 315 236 315 237 q 315 222 315 222 q 316 220 316 222 q 314 197 313 202 q 316 187 315 193 q 312 176 312 183 q 312 161 312 170 q 308 141 307 153 q 301 127 302 133 q 294 90 296 103 q 303 83 301 84 q 308 83 305 83 q 332 72 327 76 q 347 69 336 68 q 357 65 350 66 q 370 66 365 64 q 384 62 376 62 q 400 61 392 62 q 409 64 403 65 q 420 65 415 64 q 429 68 425 66 q 438 71 433 71 q 456 71 453 69 q 464 75 460 72 q 475 76 471 73 q 486 77 479 79 q 493 81 488 81 q 500 83 498 81 q 517 94 513 91 q 526 102 522 98 q 547 111 538 107 q 562 122 555 115 q 569 126 566 125 q 575 130 572 127 q 595 143 594 138 q 601 151 597 148 q 612 157 610 156 q 617 161 614 159 q 629 173 628 171 q 632 178 631 175 q 647 191 644 190 q 648 197 650 193 q 661 213 656 208 q 669 225 666 218 q 680 235 680 233 q 684 239 681 236 q 686 252 682 247 q 692 267 690 256 q 698 278 697 270 q 704 289 699 286 q 708 304 708 298 q 712 313 708 311 q 718 342 715 332 q 719 358 720 351 l 727 385 q 734 410 732 401 q 736 429 735 419 q 735 440 736 435 q 735 450 734 445 q 736 470 735 461 q 739 490 738 479 q 738 502 736 500 q 739 506 739 503 q 736 521 738 521 q 736 524 735 521 q 735 536 736 533 q 734 541 734 538 q 732 553 731 547 q 730 566 732 560 q 726 584 726 581 q 727 590 727 587 q 725 603 727 594 q 720 614 723 612 q 717 625 716 623 q 716 631 718 628 l 712 647 q 707 662 708 659 q 704 669 705 665 q 697 684 700 681 q 697 690 694 688 q 688 705 690 701 q 685 716 686 709 q 674 729 677 726 q 669 736 671 732 q 661 747 663 747 q 659 749 659 747 q 646 766 650 761 q 639 777 642 770 q 627 791 631 788 q 620 796 623 793 q 613 810 616 800 q 605 815 606 811 q 598 821 604 819 q 588 832 590 830 q 585 836 586 834 q 575 845 579 841 q 568 854 571 849 q 562 859 563 856 q 557 865 560 863 q 534 880 536 875 q 515 891 517 888 q 510 895 513 894 q 495 903 498 901 q 486 906 492 906 q 477 916 477 914 q 473 917 476 917 q 457 925 460 924 q 449 929 454 926 q 425 938 430 935 q 412 944 419 941 q 395 945 399 944 q 389 947 392 947 q 378 946 384 947 q 368 948 372 945 q 359 946 366 944 q 350 945 353 948 l 330 944 q 308 941 319 945 q 288 935 297 936 q 274 919 277 924 q 264 914 271 914 q 251 892 252 898 q 245 883 250 887 q 242 871 243 873 q 239 868 241 869 q 234 836 236 852 q 232 802 232 821 q 228 787 227 789 q 224 785 229 785 q 225 774 227 776 q 225 770 224 773 q 227 755 227 758 q 227 749 228 751 q 229 735 229 742 q 229 722 228 728 q 233 708 232 711 q 233 704 233 705 q 234 692 235 693 q 233 689 233 692 q 235 671 235 677 q 236 662 236 666 q 237 650 235 652 q 239 644 239 647 q 239 629 237 632 q 241 621 240 625 q 244 604 243 609 q 244 591 245 598 l 254 560 q 254 549 251 557 q 255 537 258 540 q 258 524 256 530 q 262 513 259 517 q 270 511 266 513 q 277 510 274 510 q 296 514 290 514 q 307 514 302 514 q 334 511 327 510 q 347 513 340 513 q 367 519 361 517 q 380 519 373 522 q 391 509 384 518 q 396 494 397 500 q 391 481 396 486 q 382 471 385 477 z "},"ð":{"ha":406,"x_min":28,"x_max":395,"o":"m 309 227 q 308 237 309 232 q 308 247 307 241 q 309 263 308 256 q 308 277 309 270 q 304 286 307 282 q 304 294 302 289 q 286 309 294 307 q 278 324 281 324 q 267 338 269 338 q 263 340 266 338 q 252 350 255 350 q 247 353 250 350 q 242 361 245 358 q 239 370 239 363 q 229 377 233 373 q 218 382 225 381 q 203 382 206 381 q 197 382 199 382 q 189 382 193 382 q 180 381 184 381 q 171 381 175 382 q 163 378 167 380 q 144 372 148 373 q 138 370 140 372 q 119 351 121 358 q 105 347 109 353 q 95 339 102 342 q 92 330 95 332 q 88 321 88 328 q 79 310 80 313 q 76 305 79 307 q 75 292 79 298 q 72 278 71 286 q 66 263 65 264 q 68 258 68 262 q 66 236 68 241 q 66 227 65 231 q 72 209 71 210 q 79 189 79 193 q 81 182 79 186 q 96 163 94 168 q 102 156 98 159 q 116 147 115 146 q 118 146 117 148 q 136 123 133 134 q 159 118 152 121 q 172 115 165 115 q 190 115 189 114 q 193 115 191 115 q 206 113 203 114 q 210 113 209 111 q 227 116 225 117 q 231 117 228 115 q 254 122 247 123 q 281 144 273 137 q 291 152 289 149 q 297 156 293 155 q 298 170 296 164 q 301 184 301 175 q 306 193 304 187 q 305 205 308 198 q 307 221 307 221 l 309 227 m 387 614 q 370 609 372 606 q 366 614 369 612 q 347 604 355 604 q 328 600 339 605 q 317 595 319 594 q 312 595 315 597 q 304 593 308 595 q 297 594 300 591 q 290 589 294 590 q 282 585 286 587 q 290 569 289 571 q 294 567 292 567 q 298 554 297 555 q 302 551 300 553 q 304 541 302 544 q 307 533 307 538 q 313 517 311 526 q 323 505 315 509 q 323 492 323 495 q 327 486 324 488 q 329 467 324 476 q 332 448 334 458 q 338 423 339 435 q 340 406 338 411 q 339 397 342 400 q 345 384 346 392 q 347 370 343 376 q 347 344 345 358 q 350 315 350 330 q 349 296 351 304 q 351 279 347 288 q 349 264 349 271 q 347 247 349 258 q 347 237 346 240 q 346 228 347 233 q 343 210 346 212 q 342 195 345 202 q 338 182 339 189 q 336 166 336 174 q 330 155 335 159 q 325 138 330 142 q 317 127 320 134 q 309 122 312 125 q 302 115 305 119 q 285 106 293 114 q 268 98 278 100 q 251 88 258 95 q 239 85 240 88 q 236 81 239 83 q 216 78 227 80 q 194 77 205 76 q 182 76 186 75 q 174 77 178 77 q 157 79 161 80 q 151 83 153 79 q 129 90 136 84 q 110 99 122 96 q 100 107 106 104 q 91 117 94 110 q 75 127 80 125 q 71 136 71 129 q 63 140 65 137 q 57 146 61 144 q 51 162 49 161 q 50 165 53 163 q 43 180 45 178 q 39 189 42 183 q 35 200 35 197 q 33 206 35 203 q 31 218 34 213 q 34 227 28 222 q 33 256 30 245 q 33 274 35 266 q 37 286 37 283 q 35 289 38 289 q 39 302 39 296 q 42 316 39 309 q 54 345 53 334 q 62 349 61 345 q 69 357 64 354 q 84 374 77 370 q 95 384 91 377 q 118 397 107 393 q 138 408 129 401 l 155 415 q 173 415 167 415 q 182 419 179 415 q 199 416 189 416 q 216 418 209 415 q 227 414 225 414 q 232 415 229 415 q 248 407 244 407 q 267 393 263 396 q 277 388 271 391 q 297 368 283 370 q 302 357 298 361 q 308 347 305 353 q 307 358 308 354 q 305 369 305 362 q 303 387 302 385 q 302 393 304 388 q 299 414 298 406 q 294 431 300 423 q 294 443 296 442 q 293 446 293 444 q 289 472 288 465 q 281 490 282 486 q 277 495 281 494 q 270 519 274 511 q 263 534 266 526 q 251 551 255 541 q 240 567 247 560 q 215 551 221 557 q 201 545 209 545 q 170 530 189 533 q 144 513 152 524 q 133 511 138 513 q 122 509 127 509 q 112 517 115 510 q 109 532 109 525 q 112 546 109 540 q 123 552 115 552 q 141 557 134 560 q 151 562 145 562 q 161 564 156 562 q 172 570 167 567 q 184 576 178 574 q 195 580 194 578 q 199 583 197 582 q 213 587 213 586 q 216 591 213 589 q 215 602 217 598 q 210 610 213 605 q 203 615 208 613 q 199 621 199 617 q 189 630 193 624 q 176 639 184 636 q 164 652 167 650 q 159 658 161 655 q 142 669 145 667 q 137 673 140 671 q 134 683 137 678 q 134 694 132 688 q 138 701 137 699 q 140 712 140 704 q 166 707 160 711 q 175 701 172 704 q 189 686 183 690 q 198 677 198 678 q 201 674 198 675 q 218 657 214 663 q 232 648 222 651 q 241 634 239 636 q 244 628 244 632 q 254 618 254 620 q 255 616 255 617 q 267 613 263 613 q 274 614 271 613 q 290 625 285 623 q 300 628 296 627 q 327 634 321 631 q 339 640 332 637 q 355 652 350 647 q 366 658 359 656 q 380 652 370 658 q 392 639 389 646 q 391 627 395 632 q 387 614 387 621 z "},"Ł":{"ha":663,"x_min":-1,"x_max":651,"o":"m 373 643 q 380 650 377 646 q 389 652 382 654 q 401 671 392 665 q 416 685 410 677 q 428 694 426 692 q 431 700 430 697 q 438 706 435 703 q 444 712 441 709 q 453 724 453 722 q 454 727 453 726 q 471 745 468 743 q 480 757 477 757 q 494 777 483 772 q 496 788 491 785 q 500 798 502 791 q 515 833 515 808 q 530 873 526 860 q 536 903 533 887 q 541 921 537 914 q 543 936 545 928 q 547 952 549 941 q 551 968 545 963 q 547 975 547 971 q 548 983 548 979 q 545 996 547 990 q 547 1009 544 1002 q 541 1017 543 1013 q 538 1025 540 1021 q 531 1039 534 1038 q 525 1046 528 1040 q 505 1053 507 1050 q 498 1054 503 1055 q 470 1062 476 1061 q 452 1062 464 1063 q 445 1058 449 1059 q 437 1054 441 1057 q 416 1042 423 1051 q 407 1028 408 1034 q 385 1005 395 1012 q 385 996 387 998 q 382 987 382 994 q 378 982 381 985 q 373 975 374 979 q 368 954 370 963 q 366 945 366 949 q 363 939 365 940 q 358 920 358 926 q 357 909 358 914 q 355 892 354 895 q 355 886 355 888 q 353 869 354 872 q 351 864 353 867 q 354 841 354 853 q 352 829 351 830 q 353 825 353 827 q 351 814 350 815 q 353 810 353 812 q 351 797 350 802 q 354 785 351 792 q 352 765 347 774 q 353 745 357 755 q 356 736 357 741 q 355 727 355 731 q 357 715 355 724 q 357 703 359 707 q 362 666 362 680 q 365 643 362 652 l 373 643 m 304 95 q 291 104 293 104 q 288 107 289 104 q 271 122 279 119 q 260 134 264 132 q 255 140 255 136 l 243 149 q 232 163 233 161 q 216 174 221 165 q 205 177 206 178 q 201 178 203 176 q 183 189 187 184 q 169 189 171 191 q 165 189 167 187 q 156 191 159 191 q 151 193 153 190 q 139 190 145 190 q 123 190 133 190 q 106 183 109 186 q 96 182 103 180 q 84 167 87 171 q 75 161 81 163 q 68 151 69 152 q 64 148 66 149 q 62 138 65 141 q 57 130 58 136 q 57 119 58 123 q 53 111 56 115 q 54 91 57 102 q 61 76 61 77 q 64 61 64 65 q 80 33 77 46 q 91 26 90 30 q 96 24 92 23 q 103 18 99 19 q 111 15 107 16 q 120 10 115 12 q 130 7 125 8 q 144 3 138 5 q 157 -1 151 0 q 170 -1 168 0 q 174 -1 171 -1 q 193 2 190 3 q 201 1 197 1 q 210 4 206 3 q 218 7 214 5 q 235 11 231 8 q 241 16 239 14 q 261 31 256 28 q 269 38 266 34 q 278 44 275 39 q 288 52 281 49 q 300 69 293 64 q 303 80 300 76 q 307 91 307 84 l 304 95 m 509 422 q 488 423 494 415 q 469 413 477 412 q 450 408 461 414 q 427 402 430 404 q 419 403 423 400 q 412 397 416 399 q 404 393 408 396 q 399 389 401 391 q 392 384 396 387 q 391 362 389 372 q 393 346 392 353 q 392 320 391 330 q 391 304 393 311 q 392 283 387 289 q 389 272 388 274 q 391 267 391 270 q 389 248 387 254 q 388 235 387 237 q 389 232 389 233 q 386 220 385 222 q 385 216 387 218 l 381 191 q 376 179 376 186 q 373 164 376 172 q 370 151 369 152 q 370 148 370 149 q 364 130 363 133 q 362 125 365 127 q 356 107 355 111 q 357 100 357 103 q 370 89 366 90 q 372 81 373 88 q 380 76 378 80 q 389 72 382 72 q 397 60 393 62 q 407 57 400 57 q 414 51 408 52 q 420 45 419 50 q 434 39 431 41 q 438 34 437 37 q 456 25 454 27 q 460 22 457 23 q 468 20 464 19 q 475 18 472 20 q 494 16 490 18 q 503 14 499 14 q 517 14 515 15 q 522 14 519 12 q 534 15 529 14 q 544 18 538 16 q 559 19 553 18 q 569 23 564 20 q 579 27 574 26 q 593 40 591 37 q 598 46 595 43 q 603 56 601 56 q 606 60 605 57 q 606 79 613 76 q 612 100 613 85 q 602 117 612 114 q 591 130 597 129 q 578 134 585 132 q 567 130 570 130 q 564 127 564 130 q 555 109 553 110 q 549 97 551 98 q 547 94 547 96 q 530 85 536 90 q 514 90 524 80 q 507 105 506 104 q 507 109 507 106 q 505 127 507 114 q 513 150 509 146 q 514 157 517 153 q 534 170 529 168 q 541 176 538 171 q 550 178 547 175 q 557 184 553 182 q 571 182 566 187 q 583 183 576 178 q 599 174 594 180 q 614 167 604 167 q 623 157 621 161 q 628 156 625 153 q 633 149 631 153 q 640 141 636 144 q 644 126 643 130 q 647 117 644 122 q 650 109 650 111 q 650 99 651 106 q 648 82 650 84 q 647 77 647 80 q 646 71 646 75 q 646 62 647 66 q 639 46 643 53 q 632 33 635 39 q 621 22 623 23 q 610 11 616 14 q 597 -5 600 -1 q 589 -6 593 -3 q 582 -11 586 -9 q 568 -14 575 -14 q 557 -20 562 -14 q 543 -22 545 -23 q 538 -22 541 -22 q 520 -24 524 -26 q 514 -27 517 -23 q 507 -24 511 -23 q 496 -24 502 -24 q 482 -23 487 -22 q 473 -23 477 -24 q 455 -18 458 -18 q 449 -18 452 -19 q 432 -10 437 -11 q 423 -7 427 -9 q 407 -1 410 -4 q 399 1 404 1 q 386 15 388 12 q 380 18 384 18 q 372 28 377 24 q 359 35 366 33 q 346 47 351 45 q 328 42 328 56 q 318 36 319 38 q 316 33 317 34 q 301 18 308 26 q 288 3 294 9 q 275 -9 275 -5 q 251 -22 251 -16 q 234 -28 235 -26 q 231 -30 233 -30 q 198 -35 210 -34 q 184 -37 189 -38 q 178 -37 180 -37 q 163 -39 167 -38 q 156 -39 159 -39 q 146 -37 149 -35 q 140 -35 142 -38 q 118 -30 126 -33 q 105 -24 110 -24 q 98 -23 100 -24 q 82 -14 87 -16 q 72 -11 77 -12 q 66 -1 69 -5 q 57 5 64 3 q 47 20 49 19 q 43 23 46 22 q 38 39 42 34 q 27 50 34 45 q 22 73 23 69 q 19 85 20 77 q 16 95 18 88 q 16 107 15 102 q 18 117 19 115 q 19 122 18 119 q 21 130 19 126 q 20 137 23 134 q 27 148 23 142 q 31 161 31 153 q 37 166 34 164 q 41 175 41 168 q 48 184 45 182 q 53 193 52 186 q 65 199 61 194 q 76 208 69 205 q 86 216 80 213 q 99 222 92 220 q 112 223 106 220 q 122 229 118 227 q 133 230 127 228 q 144 232 138 232 q 152 232 148 233 q 159 231 156 231 q 169 232 164 231 q 178 232 174 233 q 206 224 193 229 q 219 217 218 220 q 222 213 220 214 q 236 208 235 208 q 240 206 237 208 l 255 195 q 261 190 256 191 q 270 186 266 189 q 277 178 277 178 q 283 179 278 179 q 287 170 283 172 q 292 164 290 168 q 304 154 301 156 q 308 149 307 152 q 314 142 311 146 q 323 136 317 138 q 328 142 328 137 q 331 152 328 148 q 336 171 335 164 q 340 182 336 178 q 341 193 339 186 q 346 205 343 199 q 347 239 342 222 q 345 248 345 241 q 349 259 346 255 q 348 275 347 271 q 350 282 349 279 q 351 298 353 298 q 350 300 350 298 q 353 315 353 307 q 349 331 353 324 q 351 345 350 345 q 353 349 351 346 q 351 357 350 353 q 351 366 351 361 q 337 358 343 363 q 324 353 331 353 q 293 338 312 340 q 277 327 283 331 q 269 320 271 323 q 245 313 258 316 q 231 338 231 320 q 247 357 231 355 q 258 365 256 365 q 266 363 259 365 q 274 368 269 368 q 285 370 279 368 q 295 377 290 373 q 307 384 300 381 q 318 387 316 385 q 323 391 320 389 q 336 395 336 393 q 339 399 336 396 q 347 409 346 408 q 347 412 347 410 l 346 442 q 341 465 340 460 q 340 476 342 471 q 338 491 338 490 q 339 495 339 492 l 336 511 q 336 523 336 521 q 338 526 335 525 q 334 544 334 534 q 332 564 334 553 q 319 571 323 571 q 311 568 315 571 q 298 563 304 563 q 288 560 293 563 q 279 555 282 557 q 271 551 275 552 q 259 552 260 553 q 255 548 258 551 q 235 541 237 548 q 220 538 228 538 q 206 534 212 538 q 186 530 190 533 q 179 530 182 528 q 164 527 164 528 q 163 526 164 526 q 141 528 145 528 q 110 529 121 526 q 93 537 99 536 q 80 541 87 538 q 65 544 76 541 q 54 551 54 549 q 49 552 53 552 q 36 561 43 557 q 24 572 28 564 q 14 575 18 571 q 7 583 11 579 q 2 605 -1 600 q 9 617 5 610 q 28 619 16 617 q 41 610 39 621 q 46 608 45 613 q 53 601 47 602 q 58 593 54 595 q 62 587 61 591 q 77 582 69 587 q 94 580 92 582 q 99 575 96 578 q 107 574 104 578 q 114 574 110 570 q 130 567 125 568 q 142 567 140 566 q 151 566 145 568 q 168 566 167 564 q 172 567 170 567 q 194 568 190 564 q 212 570 210 568 q 217 570 214 572 q 231 578 225 575 q 244 580 243 579 q 248 579 245 581 q 269 586 264 583 q 279 589 273 589 q 292 595 288 597 q 298 597 296 594 q 313 604 309 602 q 323 609 316 606 q 327 621 328 617 q 328 628 326 625 q 323 649 321 640 q 323 667 324 658 q 320 675 321 671 q 321 685 319 680 q 316 711 316 700 q 313 732 316 722 q 313 755 315 750 q 311 764 312 760 q 313 775 313 773 q 313 783 312 777 q 314 791 313 785 q 315 799 315 796 q 313 818 311 812 q 315 842 313 829 q 313 868 316 854 q 316 881 315 878 q 317 887 317 884 q 316 902 316 894 q 324 913 316 910 q 326 929 323 925 q 327 937 330 933 q 336 965 334 959 q 338 979 338 971 q 343 987 342 982 q 349 994 345 991 q 349 1002 347 1000 q 350 1009 351 1004 q 356 1019 351 1016 q 358 1031 361 1021 q 369 1043 369 1040 q 387 1058 380 1050 q 403 1073 393 1066 q 418 1084 414 1081 q 429 1090 422 1088 q 448 1096 445 1095 q 484 1099 464 1101 q 493 1095 488 1097 q 502 1090 498 1093 q 519 1086 517 1088 q 524 1084 521 1085 q 538 1077 532 1084 q 559 1069 552 1073 q 569 1051 568 1055 q 571 1044 570 1047 q 578 1025 578 1025 q 581 1006 579 1010 q 579 1000 582 1002 q 583 981 582 986 q 583 972 583 977 q 582 964 583 968 q 581 956 581 960 q 577 932 579 937 q 578 924 575 928 q 572 907 575 913 q 573 900 574 903 q 571 890 572 897 q 568 880 570 883 q 564 871 567 876 q 561 859 560 860 q 562 854 562 857 q 553 838 553 841 q 553 833 553 836 q 547 818 547 822 q 537 800 540 804 q 532 789 534 795 q 525 776 529 783 q 519 765 522 769 q 515 755 515 761 l 506 742 q 498 734 500 735 q 494 730 496 732 q 475 705 488 715 q 457 682 465 688 q 446 669 446 670 q 441 667 445 667 l 429 654 q 420 646 423 648 q 412 640 416 643 q 402 629 406 632 q 396 623 399 627 q 382 614 385 618 q 372 606 378 609 q 368 595 369 602 q 372 585 366 589 q 374 562 377 567 q 377 551 372 556 q 376 536 376 540 q 378 530 377 533 q 378 500 376 515 q 380 488 380 491 q 378 486 381 486 q 385 461 385 468 q 385 448 384 454 q 388 440 387 444 q 389 430 389 437 q 400 424 399 422 q 404 427 401 426 q 412 433 407 430 q 422 437 418 435 q 449 444 444 439 q 461 450 454 448 q 477 462 472 457 q 487 467 481 467 q 502 461 492 467 q 514 449 511 456 q 512 436 517 442 q 509 422 507 430 z "},"ł":{"ha":320,"x_min":-14,"x_max":361,"o":"m 307 747 q 294 737 293 741 q 292 735 294 734 q 279 725 283 732 q 271 709 274 718 q 256 692 262 694 q 251 677 255 682 q 245 662 247 671 q 237 646 240 650 q 232 639 235 643 q 225 618 227 625 q 222 602 224 612 q 213 584 216 595 q 208 560 210 572 q 200 550 201 557 q 198 536 199 543 q 193 525 194 530 q 190 517 193 519 q 190 505 193 510 q 186 495 187 499 q 183 479 183 480 q 180 465 182 467 q 179 461 178 464 q 181 454 180 458 q 184 446 182 449 q 201 462 198 458 q 205 469 203 465 q 222 484 217 480 q 228 495 227 487 q 238 507 236 503 q 240 514 240 510 q 254 529 251 524 q 264 544 264 543 q 266 547 264 545 q 275 563 275 562 q 278 566 275 564 q 290 589 281 581 q 292 599 290 595 q 297 605 294 602 q 306 630 304 620 q 313 647 308 640 q 316 661 316 656 q 317 670 316 665 q 323 686 324 680 q 326 699 323 692 q 329 715 328 711 q 330 724 330 720 q 326 732 328 728 q 327 742 324 736 q 317 745 323 745 q 307 747 312 746 m 286 241 q 267 243 273 235 q 247 233 255 232 q 228 228 239 233 q 205 222 209 224 q 197 222 202 220 q 190 217 194 218 q 182 213 186 216 q 176 208 179 210 q 170 203 174 206 q 170 184 170 193 q 175 170 170 176 q 174 156 172 163 q 179 144 175 149 q 179 125 179 130 q 182 113 179 121 q 185 99 186 103 q 186 92 184 95 q 189 83 187 87 q 190 76 190 80 q 199 65 195 72 q 208 53 202 58 q 217 42 216 43 q 221 39 218 41 q 226 31 224 34 q 231 23 228 28 q 237 18 233 20 q 240 11 240 15 q 250 5 247 9 q 255 -1 252 1 q 265 -3 263 -1 q 270 -7 267 -4 q 284 -3 281 -5 q 298 -3 288 -1 q 313 -12 313 -9 q 317 -15 312 -14 q 317 -24 317 -22 q 313 -34 316 -27 q 300 -40 301 -42 q 297 -37 300 -38 q 287 -47 288 -46 q 283 -50 286 -49 q 262 -49 273 -53 q 240 -43 251 -45 q 230 -34 235 -38 q 218 -26 225 -30 q 208 -13 212 -16 q 201 -5 205 -9 q 189 9 189 8 q 180 17 182 15 q 176 22 178 19 q 172 28 174 24 q 167 35 170 33 q 159 47 163 39 q 151 62 155 56 q 149 72 149 65 q 146 84 148 79 q 141 103 142 100 q 136 127 136 121 q 136 141 137 134 q 134 154 136 152 q 133 159 133 156 q 130 172 130 165 q 127 184 130 179 q 115 177 121 182 q 102 172 109 172 q 87 162 95 165 q 71 157 79 159 q 55 146 61 151 q 46 138 49 141 q 35 136 41 137 q 23 133 30 134 q 8 157 8 138 q 24 176 8 175 q 43 183 37 184 q 52 187 46 187 q 62 190 57 187 q 73 196 68 193 q 84 203 77 199 q 96 207 95 205 q 100 210 98 209 q 114 214 114 213 q 117 218 114 216 q 125 233 125 232 q 123 262 123 251 q 122 282 122 274 q 123 300 121 297 q 122 307 125 302 q 123 321 126 321 q 125 334 123 331 q 125 340 127 338 q 117 336 119 339 q 111 330 114 332 q 98 325 99 327 q 92 323 96 323 q 87 317 90 320 q 84 309 85 313 q 68 304 69 307 q 47 297 53 298 q 37 292 41 296 q 22 288 26 290 q 14 285 19 286 q 3 283 5 281 q -5 288 1 286 q -9 312 -14 308 q -1 323 -4 316 q 11 323 5 321 q 23 327 16 324 q 43 333 38 332 q 56 336 49 334 l 73 345 q 98 359 84 349 q 110 370 109 368 q 114 374 111 372 q 120 380 117 378 q 125 388 123 382 q 135 399 133 395 q 138 411 137 404 q 138 425 137 420 q 141 433 138 430 q 142 454 140 448 q 141 467 145 460 l 146 487 q 151 500 149 492 q 151 513 152 507 q 157 533 156 528 q 160 543 159 538 q 163 554 164 552 q 163 559 163 556 q 172 577 172 574 q 174 585 172 581 q 176 591 174 587 q 178 600 179 595 q 182 606 180 602 q 187 614 184 610 q 188 623 189 618 q 189 631 187 627 q 197 644 197 639 q 201 652 198 650 q 208 670 206 667 q 215 685 213 682 q 218 690 217 688 q 222 707 224 700 q 236 731 235 716 q 248 742 244 739 q 252 751 252 745 q 271 768 266 764 q 283 777 277 773 q 292 777 288 774 q 300 783 297 780 q 307 781 302 783 q 316 779 311 780 q 340 772 336 776 q 351 765 345 768 q 357 745 355 749 q 361 738 359 742 q 360 726 359 727 q 361 722 361 724 q 359 713 361 718 q 358 704 358 708 q 356 688 358 693 q 354 678 354 684 q 350 659 353 665 q 344 642 343 643 q 345 640 345 642 q 336 623 339 627 q 330 602 334 605 q 327 591 327 598 q 318 581 320 583 q 313 575 316 578 q 307 558 311 566 q 297 540 302 551 q 289 527 293 533 q 283 514 285 521 q 275 505 277 506 q 270 502 273 503 q 266 492 266 495 q 264 487 266 488 q 254 477 255 479 q 252 471 252 475 q 245 465 248 468 q 237 461 243 463 q 233 452 237 454 q 228 444 228 450 q 203 420 212 423 q 197 413 201 415 q 194 404 194 411 q 183 392 184 400 q 172 377 172 384 q 168 362 171 370 q 165 344 164 346 q 164 339 165 342 q 164 330 165 334 q 161 320 163 326 q 162 309 163 309 q 161 305 161 308 q 162 294 163 296 q 161 289 161 292 q 162 275 161 282 q 163 262 163 269 q 163 250 163 255 q 165 239 163 245 q 178 243 176 241 q 182 247 179 245 q 199 255 191 252 q 227 262 221 258 q 239 270 232 267 q 254 281 250 277 q 266 286 259 286 q 279 281 270 286 q 292 269 289 275 q 290 255 294 260 q 286 241 285 250 z "},"Š":{"ha":574,"x_min":35,"x_max":518,"o":"m 366 724 q 358 709 358 713 q 358 692 357 694 q 367 671 362 674 q 377 665 372 669 q 393 666 391 667 q 401 667 396 665 q 412 673 411 674 q 415 674 414 673 q 422 681 419 680 q 427 685 426 682 q 443 692 441 692 q 446 693 445 692 q 458 708 457 705 q 463 712 460 711 q 469 728 464 723 q 473 745 475 734 q 478 764 476 760 q 479 770 480 768 q 478 782 479 780 q 477 787 477 784 q 475 804 475 803 q 476 808 476 806 q 469 823 471 823 q 468 825 468 823 q 444 863 457 857 q 441 871 444 869 q 437 878 438 873 q 430 882 434 880 q 423 887 426 883 q 408 892 410 891 q 404 892 407 892 q 372 905 392 906 q 357 909 358 906 q 354 911 357 911 q 344 911 347 909 q 334 913 340 914 q 319 918 320 916 q 315 920 317 920 q 288 919 300 920 q 262 917 275 918 q 246 915 248 914 q 241 913 244 916 q 228 905 231 907 q 221 903 225 903 q 186 886 197 894 q 179 882 182 887 q 174 873 176 876 q 161 862 161 865 q 155 859 160 859 q 149 852 152 854 q 146 844 146 849 q 133 828 137 837 q 121 812 129 819 q 115 780 114 798 q 109 763 110 769 q 109 750 109 757 q 110 732 107 738 q 112 713 110 715 q 114 705 114 712 q 118 684 118 686 q 125 671 123 671 q 129 669 127 670 q 140 655 133 659 q 143 648 140 650 q 149 643 146 646 q 168 618 161 625 q 182 605 175 612 q 189 596 187 595 q 194 594 191 597 q 203 586 197 589 q 212 578 209 583 q 229 564 224 568 q 255 540 248 552 q 275 532 266 532 q 298 510 288 515 q 309 502 304 506 q 320 495 313 498 q 331 481 327 483 q 338 476 335 479 l 351 467 q 362 453 361 454 q 366 450 363 452 q 376 441 377 442 q 377 439 374 441 q 383 433 380 437 q 391 430 387 430 q 410 410 404 414 q 427 389 422 393 q 438 377 433 384 q 449 363 450 363 q 457 355 454 357 q 461 351 460 354 q 467 335 464 343 q 474 320 475 321 q 475 316 473 319 q 481 302 479 305 q 486 294 484 298 q 491 286 487 289 q 502 264 494 274 q 503 255 500 259 q 507 247 506 251 q 511 229 511 231 q 510 224 510 227 q 513 214 511 218 q 515 205 515 210 q 515 189 514 190 q 517 187 517 189 q 515 176 514 176 q 517 172 517 175 q 515 156 515 159 q 511 138 513 140 q 513 137 510 136 q 502 122 505 123 q 488 95 498 107 q 481 77 484 83 l 469 62 q 457 50 458 50 q 454 47 456 49 q 445 35 445 37 q 442 31 445 34 q 433 24 438 26 q 426 19 429 22 q 412 5 423 14 q 404 2 408 3 q 396 -1 400 1 q 385 -8 388 -8 q 377 -11 381 -8 q 357 -20 362 -20 q 349 -23 353 -20 q 330 -33 334 -33 q 324 -35 327 -33 q 290 -45 301 -43 q 269 -50 279 -46 q 250 -49 252 -49 q 244 -50 247 -49 q 231 -49 235 -50 q 220 -49 227 -47 q 210 -50 212 -50 q 205 -49 208 -49 q 191 -47 191 -49 q 190 -46 191 -46 q 176 -44 180 -45 q 167 -41 172 -43 q 150 -36 152 -38 q 142 -37 148 -34 q 122 -14 129 -22 q 104 -3 111 -5 q 94 12 98 8 q 88 22 91 15 q 80 31 81 24 q 72 37 79 37 q 60 54 61 52 q 57 60 60 57 q 53 73 56 72 q 49 76 50 73 q 47 83 50 79 q 42 92 43 87 q 40 106 39 106 q 41 110 41 107 l 37 125 q 35 136 35 132 q 38 148 35 141 q 37 159 35 153 q 38 168 38 164 q 39 186 37 180 q 45 209 42 201 q 50 227 49 217 q 56 233 56 229 q 64 239 57 237 q 66 256 62 247 q 73 273 71 264 q 96 293 94 289 q 109 305 104 297 q 119 313 115 308 q 130 320 123 317 q 144 331 142 330 q 155 332 155 331 q 159 334 156 332 q 178 345 176 343 q 189 345 184 345 q 198 349 193 345 q 214 348 208 346 q 229 350 220 350 q 252 349 247 350 q 264 345 258 347 q 283 334 278 339 q 302 324 296 330 q 313 313 313 317 q 332 296 323 298 q 337 283 335 288 q 345 274 339 279 q 354 252 354 256 q 354 243 354 247 q 357 224 358 228 q 357 216 357 220 q 357 200 359 205 q 358 191 355 195 q 353 183 355 187 q 351 172 351 179 q 345 166 346 171 q 339 163 343 161 q 320 146 328 153 q 309 140 309 141 q 305 137 308 138 q 292 135 298 134 q 278 130 285 136 q 256 130 260 130 q 245 127 251 130 q 238 131 241 129 q 228 132 235 133 q 212 140 214 136 q 188 149 194 145 q 179 157 182 153 q 180 168 179 164 q 178 179 180 172 q 199 190 193 189 q 208 194 205 191 q 224 191 225 194 q 228 183 222 187 q 233 170 228 172 q 245 167 239 167 q 258 168 256 167 q 263 168 259 168 q 279 169 274 168 q 286 171 283 170 l 300 180 q 313 191 313 189 q 313 212 312 209 q 315 217 315 214 q 312 237 311 233 q 307 244 313 241 q 302 256 302 254 q 298 262 301 259 q 292 273 293 274 q 288 274 290 271 q 275 290 279 288 q 269 290 271 292 q 257 302 267 301 q 237 305 247 302 q 218 309 221 309 q 212 307 216 308 q 197 304 198 304 q 194 305 197 305 q 180 300 187 302 q 165 294 172 297 q 151 287 155 292 q 142 277 148 282 q 125 270 130 274 q 117 259 119 266 q 109 253 111 256 q 102 247 107 250 q 100 239 104 241 q 98 232 96 237 q 90 220 92 224 q 85 214 88 217 q 82 208 83 212 q 79 201 81 203 q 78 192 81 194 q 79 184 75 190 q 75 177 76 180 q 76 170 73 174 q 73 151 72 156 q 72 134 75 145 q 74 124 75 129 q 75 114 73 119 q 78 102 79 103 q 79 99 77 102 l 85 80 q 99 68 96 68 q 107 54 102 56 q 116 42 113 45 q 123 37 119 39 q 129 25 123 26 q 136 18 134 24 q 165 1 155 4 q 182 -9 175 -3 q 195 -10 193 -11 q 199 -12 197 -9 q 228 -13 214 -11 q 259 -12 241 -15 q 280 -9 273 -9 q 294 -5 288 -9 q 319 -1 311 -4 q 334 7 328 3 q 349 14 347 11 q 368 21 361 15 q 387 30 376 27 q 400 42 400 41 q 401 45 400 43 q 414 56 414 56 q 431 71 426 65 q 438 84 435 77 q 447 95 445 94 q 448 102 449 96 q 457 114 456 113 q 457 118 458 115 q 464 131 464 122 q 469 146 464 140 q 473 166 472 157 q 468 182 473 175 q 471 199 473 198 q 468 203 469 199 q 471 210 472 201 q 469 221 469 218 q 462 237 461 235 q 460 243 463 240 q 453 256 453 255 q 450 270 449 269 q 449 273 450 271 q 446 279 448 275 q 444 290 444 283 q 433 303 437 294 q 425 317 430 312 q 420 329 422 328 q 415 332 418 330 q 405 347 408 342 q 396 354 401 351 q 391 368 393 363 q 384 370 389 372 q 372 383 374 382 q 368 385 370 384 q 361 393 362 389 q 358 399 361 396 q 342 412 347 408 q 334 422 336 415 q 323 430 324 429 q 323 435 321 431 q 310 446 311 444 q 307 449 309 448 q 287 463 290 458 q 278 468 283 467 q 269 478 271 477 q 264 481 267 479 q 253 492 254 490 q 251 496 252 494 q 244 501 247 499 q 237 505 241 503 q 222 517 227 514 q 213 525 218 519 q 199 535 203 532 q 190 541 194 538 q 182 548 186 544 q 172 553 178 552 q 155 571 164 566 q 138 590 144 582 q 125 604 133 598 q 108 628 114 617 q 92 646 102 639 q 90 654 91 650 q 84 659 88 658 q 79 678 81 670 q 71 690 77 686 q 70 705 69 703 q 71 711 71 708 q 67 724 69 718 q 68 738 65 731 q 66 753 65 750 q 68 758 66 755 q 67 770 68 766 q 69 776 66 773 q 79 800 77 795 q 80 812 80 806 q 98 842 90 830 q 109 857 109 856 q 110 860 109 857 q 114 866 111 863 q 118 873 117 869 q 133 891 130 887 q 144 900 141 894 q 153 910 148 906 q 165 915 164 913 q 170 920 167 917 q 184 928 180 928 q 191 929 187 928 q 229 945 216 939 q 250 952 244 949 q 270 953 266 952 q 277 954 274 954 q 290 953 283 954 q 307 954 296 952 q 322 955 319 956 q 328 952 326 954 q 355 946 347 947 q 370 943 363 945 q 388 941 384 941 q 395 937 392 940 q 406 935 401 939 q 418 933 410 932 q 436 923 431 926 q 445 917 441 920 q 465 901 457 906 q 475 884 472 895 q 489 867 487 869 q 494 859 491 864 q 507 825 503 837 q 518 803 511 814 q 516 789 515 798 q 513 774 517 781 q 513 761 511 761 q 515 758 515 761 q 513 751 513 755 q 511 742 514 747 q 508 731 509 732 q 505 728 507 730 q 502 717 502 722 q 499 708 502 712 q 494 701 498 704 q 488 694 491 699 q 477 685 481 690 q 468 673 473 680 q 456 665 461 670 q 446 656 452 661 q 438 652 442 654 q 429 647 434 650 q 418 642 420 646 q 412 635 415 639 q 401 631 403 629 q 397 631 399 632 q 378 628 385 627 q 361 629 370 629 q 355 635 358 632 q 346 636 353 637 q 336 645 342 642 q 328 656 331 648 q 321 667 323 666 q 320 670 320 669 q 316 697 313 693 q 313 708 312 703 q 312 719 315 713 q 318 728 315 723 q 324 736 321 732 q 339 742 335 739 q 353 742 343 745 q 366 724 362 728 m 326 1072 q 315 1060 319 1061 q 312 1057 312 1059 q 296 1061 296 1058 q 278 1079 282 1070 q 270 1095 274 1088 q 262 1105 264 1103 q 258 1111 260 1108 q 243 1128 247 1119 q 229 1137 232 1134 q 224 1142 227 1139 q 208 1149 209 1147 q 202 1149 206 1150 q 195 1156 199 1153 q 189 1161 191 1158 q 189 1181 186 1173 q 197 1195 193 1188 q 208 1196 202 1194 q 220 1196 213 1199 q 230 1190 228 1190 q 231 1184 232 1190 q 240 1173 237 1176 q 245 1162 243 1169 q 254 1156 250 1160 q 263 1150 258 1153 q 286 1129 279 1139 q 307 1115 293 1119 q 319 1128 319 1126 q 324 1130 320 1131 q 330 1137 327 1135 q 335 1146 334 1139 q 345 1155 343 1149 q 354 1164 347 1161 q 368 1183 358 1177 q 389 1191 377 1188 q 400 1182 400 1181 q 401 1181 400 1183 q 406 1165 408 1165 q 403 1162 404 1165 q 401 1155 403 1157 q 397 1147 399 1153 l 381 1139 q 368 1133 370 1135 q 368 1126 366 1131 q 351 1112 354 1115 q 346 1104 349 1109 q 335 1088 336 1090 q 331 1082 334 1086 l 326 1072 z "},"š":{"ha":331,"x_min":35,"x_max":289,"o":"m 102 450 q 100 441 100 446 q 94 433 99 435 q 85 391 81 410 q 91 366 91 370 q 94 355 91 361 q 98 347 98 351 q 103 343 99 343 q 111 328 103 332 q 115 321 111 323 q 119 312 119 319 q 127 304 125 309 q 137 297 130 300 q 146 288 142 290 q 152 282 149 285 q 164 271 164 271 l 180 255 q 198 233 184 243 q 217 216 213 220 q 225 208 221 213 q 235 191 224 195 q 242 174 236 180 q 255 160 248 167 q 259 147 255 152 q 267 137 263 142 q 271 120 270 122 q 275 115 273 118 q 279 92 278 104 q 281 66 281 79 q 279 51 278 54 q 281 45 281 47 q 271 16 277 24 q 268 7 270 12 q 266 -3 266 3 q 247 -27 248 -20 q 225 -41 228 -35 q 219 -47 222 -43 q 213 -54 216 -52 q 199 -62 199 -61 q 195 -62 198 -64 q 174 -72 183 -69 q 156 -76 157 -75 q 153 -77 155 -77 q 138 -78 145 -76 q 126 -77 132 -80 q 109 -69 114 -69 q 102 -68 104 -69 q 90 -61 92 -61 q 84 -60 87 -61 q 71 -47 73 -47 q 66 -45 68 -46 q 57 -28 60 -34 q 47 -22 54 -23 q 45 -9 46 -15 q 39 -1 43 -4 q 36 20 37 16 q 37 30 35 24 q 37 52 37 47 q 35 64 38 57 q 41 81 41 68 q 48 86 47 81 q 50 96 49 91 q 64 106 60 102 q 75 114 69 110 q 86 123 83 123 q 88 126 90 123 q 100 126 96 125 q 104 130 103 127 q 120 128 114 127 q 129 132 126 129 q 134 128 132 127 q 144 129 137 129 q 159 121 156 122 q 161 118 161 121 q 177 101 168 109 q 190 84 186 94 q 182 68 187 73 q 171 56 178 62 q 158 56 164 54 q 142 58 152 57 q 133 81 134 68 q 125 83 130 81 q 113 84 121 85 q 94 76 102 83 q 80 66 87 69 q 75 44 77 57 q 75 18 72 31 q 78 8 76 12 q 80 1 80 4 q 87 -3 83 -1 q 90 -11 91 -4 q 99 -18 95 -14 q 107 -24 103 -22 q 131 -36 125 -31 q 146 -41 137 -41 q 168 -36 165 -37 q 176 -33 171 -35 q 186 -26 183 -27 q 191 -23 189 -26 q 199 -15 197 -15 q 203 -14 201 -15 q 212 -7 209 -9 q 218 -1 216 -4 q 221 7 218 4 q 227 14 224 9 q 233 30 233 24 q 236 38 232 35 q 237 70 237 54 q 229 96 237 85 q 227 111 228 110 q 222 115 225 113 q 221 127 221 125 q 220 132 221 129 q 205 151 209 146 q 199 163 201 156 q 191 173 193 172 q 189 176 190 174 q 182 187 183 186 q 179 191 180 189 q 170 205 172 191 q 157 214 159 212 q 130 240 141 235 q 119 252 125 247 q 106 262 114 258 q 98 275 104 271 q 91 286 92 278 q 66 317 73 304 q 50 342 58 331 q 47 361 49 355 q 45 373 46 366 q 43 388 45 387 q 42 392 42 389 q 44 408 43 408 q 45 411 45 408 q 43 422 43 418 q 46 433 42 427 q 52 446 49 442 q 52 453 54 450 q 58 458 54 456 q 61 468 62 461 q 95 494 85 479 q 106 500 102 496 q 119 505 111 503 q 136 513 133 510 q 142 514 140 517 q 157 517 153 517 q 163 514 160 517 q 176 515 175 513 q 179 515 176 517 q 203 512 197 514 q 216 510 209 510 q 229 503 218 506 q 243 491 240 495 q 251 484 245 487 q 258 475 256 476 q 263 472 260 473 q 272 452 269 454 q 273 448 275 449 q 280 441 277 445 q 288 433 283 437 q 288 420 286 420 q 289 416 289 419 q 285 401 289 410 q 283 389 285 392 q 281 384 282 387 q 277 369 278 376 q 270 358 275 362 q 255 340 262 345 q 241 331 248 336 q 224 327 231 328 q 210 323 217 326 q 197 322 198 323 q 193 323 195 321 q 186 327 189 324 q 178 331 183 330 q 178 351 174 342 q 191 363 183 361 q 203 363 201 362 q 208 363 205 363 q 222 366 220 365 q 228 368 225 366 q 239 379 240 378 q 240 382 237 380 q 248 397 247 396 q 250 399 250 397 q 248 413 251 407 q 241 426 244 419 q 239 435 239 431 q 237 442 239 439 q 221 459 228 456 q 209 469 214 463 q 195 471 195 469 q 191 473 194 473 q 178 475 184 476 q 165 475 172 475 q 140 473 145 475 q 130 468 136 471 q 111 458 115 461 q 109 450 107 454 l 102 450 m 187 598 q 177 587 180 587 q 174 583 174 586 q 157 587 157 585 q 140 606 144 597 q 132 621 136 614 q 124 632 126 629 q 119 637 122 635 q 104 655 109 646 q 91 663 94 661 q 85 669 88 666 q 69 675 71 674 q 64 675 68 677 q 57 682 61 680 q 50 688 53 685 q 51 707 47 700 q 58 722 54 715 q 69 723 64 720 q 81 723 75 726 q 92 716 90 716 q 92 711 94 716 q 102 699 99 703 q 107 689 104 696 q 115 683 111 686 q 125 677 119 680 q 148 656 141 666 q 168 642 155 646 q 181 655 180 652 q 186 656 182 658 q 192 664 189 662 q 197 673 195 666 q 207 682 205 675 q 216 690 209 688 q 229 709 220 704 q 251 718 239 715 q 262 709 262 708 q 263 708 262 709 q 268 692 270 692 q 264 689 266 692 q 262 682 264 684 q 259 674 260 680 l 243 666 q 230 660 232 662 q 229 652 228 658 q 213 639 216 642 q 208 631 210 636 q 197 615 198 617 q 193 609 195 613 l 187 598 z "},"Ý":{"ha":590,"x_min":-132,"x_max":625,"o":"m 292 53 q 290 79 286 64 q 287 89 288 83 q 283 100 286 95 q 269 113 269 111 q 266 118 269 115 q 250 117 254 117 q 241 117 247 118 q 225 107 227 109 q 221 107 224 106 q 212 100 217 103 q 199 95 206 98 q 191 84 195 90 q 180 76 187 79 q 180 66 183 69 q 175 58 178 62 q 170 41 172 43 q 167 12 165 22 q 170 -5 168 3 q 176 -19 174 -12 q 181 -24 179 -22 q 183 -33 183 -27 q 197 -40 191 -35 q 214 -42 203 -45 q 233 -54 228 -54 q 243 -56 239 -54 q 258 -58 258 -58 q 277 -56 271 -58 q 300 -50 294 -52 q 311 -45 305 -47 q 326 -40 326 -41 q 327 -39 326 -39 q 337 -35 335 -37 q 342 -33 339 -34 q 359 -20 357 -23 q 363 -15 361 -18 q 377 -4 376 -5 q 381 -1 378 -3 q 395 12 395 9 q 396 16 395 14 q 404 22 401 19 q 410 27 407 24 q 422 45 414 38 q 427 57 420 53 q 430 68 433 61 q 437 78 435 76 q 441 83 439 80 q 444 92 442 88 q 448 102 445 96 q 452 123 454 117 q 456 132 454 126 q 461 141 457 138 q 463 158 460 157 q 465 161 465 159 q 467 184 467 171 q 467 193 465 189 q 469 199 469 197 q 469 220 468 217 q 468 229 469 224 q 466 241 468 237 q 468 248 464 244 q 467 262 468 258 q 469 269 467 266 q 468 289 468 275 q 468 307 465 301 q 466 330 465 317 q 463 353 467 343 l 461 384 q 460 399 460 395 q 461 408 461 404 q 459 423 458 422 q 460 427 460 425 q 461 439 460 438 q 460 442 463 439 q 446 436 446 437 q 444 435 446 435 q 439 425 442 429 q 433 415 435 422 q 425 405 427 407 q 423 400 423 403 q 414 388 415 389 q 410 387 412 387 q 395 363 404 374 q 382 351 382 353 q 378 346 381 349 q 366 336 374 342 l 347 320 q 334 302 336 308 q 324 295 326 296 q 320 294 323 294 q 302 279 313 283 q 285 264 292 274 q 273 258 278 262 q 263 251 269 254 q 245 244 248 244 q 239 243 241 244 q 225 236 231 237 q 205 233 212 235 q 193 229 198 232 q 164 236 171 233 q 152 235 152 232 q 149 237 152 237 q 138 239 142 237 q 129 243 134 241 q 113 256 117 250 q 100 263 110 262 q 83 282 98 273 q 78 294 79 292 q 75 298 77 296 q 66 313 69 307 q 58 338 61 331 q 58 351 56 345 q 54 361 54 357 q 50 373 53 366 q 54 395 57 382 q 57 415 50 408 q 56 422 56 419 q 57 433 57 426 q 57 441 56 438 q 60 448 58 445 q 60 458 61 454 q 62 469 60 463 q 65 479 64 475 q 68 491 66 484 q 70 505 69 502 q 71 510 71 507 l 72 525 q 74 539 75 537 q 73 544 73 541 q 75 557 76 556 q 76 562 75 559 q 81 577 81 575 q 81 582 80 579 q 85 591 83 586 q 90 601 88 595 q 90 617 92 608 q 94 625 92 620 q 98 635 95 631 q 102 663 104 648 q 110 680 107 671 q 115 700 113 689 l 121 719 q 125 731 123 726 q 132 742 127 736 q 133 761 130 753 q 134 772 134 768 q 138 780 134 777 q 137 789 136 785 q 141 796 138 792 q 142 808 141 808 q 144 811 142 808 q 146 822 146 817 q 148 831 146 827 q 150 839 149 836 q 152 846 151 842 q 157 863 157 860 q 156 869 156 867 q 158 886 159 886 q 157 890 157 887 q 159 910 157 901 q 160 928 160 920 q 159 940 160 935 q 157 952 157 945 q 158 965 159 964 q 157 967 157 966 q 155 989 159 981 q 149 1004 152 997 q 140 1020 141 1016 q 129 1044 132 1038 q 113 1059 115 1058 q 107 1065 110 1061 q 98 1067 102 1063 q 88 1074 94 1070 q 71 1084 71 1081 q 49 1084 61 1081 q 27 1081 37 1086 q 5 1078 15 1080 q -9 1073 -5 1073 q -15 1073 -12 1073 q -34 1061 -30 1065 q -53 1051 -46 1055 q -64 1040 -62 1042 q -71 1036 -66 1038 q -60 1027 -64 1027 q -54 1028 -57 1028 q -42 1025 -43 1024 q -38 1025 -41 1027 q -27 1019 -33 1023 q -15 1016 -22 1016 q -12 1007 -12 1009 q -8 1001 -11 1005 q -3 994 -4 998 q 3 989 -1 990 q 5 975 5 975 q 7 971 4 974 q 16 949 14 958 q 20 932 19 933 q 22 930 22 932 q 22 901 24 917 q 18 886 19 887 q 8 875 8 876 q 7 872 8 873 q 1 866 4 869 q -5 860 -3 863 q -20 853 -20 856 q -20 850 -19 850 l -39 848 q -54 846 -45 846 q -69 848 -62 845 q -79 852 -76 852 q -85 854 -83 853 q -99 868 -94 863 q -113 882 -110 876 q -123 899 -122 894 q -127 907 -125 905 l -127 922 q -132 943 -132 940 q -132 954 -132 947 q -130 970 -129 968 q -130 975 -130 972 q -123 997 -127 986 q -119 1021 -119 1008 q -113 1029 -114 1024 q -104 1038 -111 1035 q -91 1057 -95 1053 q -79 1065 -87 1062 q -58 1085 -62 1077 q -33 1096 -43 1089 q -5 1104 -22 1103 q 20 1112 4 1111 q 47 1119 37 1114 q 72 1114 58 1115 q 96 1109 85 1114 q 109 1104 107 1103 q 113 1105 110 1105 q 127 1094 125 1096 q 134 1093 129 1092 q 140 1088 137 1090 q 151 1085 144 1085 q 157 1074 153 1078 q 163 1063 160 1070 q 176 1046 172 1051 q 182 1034 179 1040 q 188 1021 184 1027 q 195 1008 191 1015 l 195 993 q 198 965 198 975 q 201 947 198 955 q 198 918 198 928 q 198 899 198 909 q 197 886 197 892 q 197 873 198 880 q 192 857 191 859 q 193 854 193 856 q 189 838 189 842 q 187 827 189 833 q 184 816 183 818 q 183 811 184 814 q 178 795 179 798 q 178 782 176 785 q 178 776 179 779 q 168 761 175 765 q 168 742 170 753 q 164 727 167 732 q 161 716 161 722 q 157 708 160 711 q 152 693 155 693 q 147 681 151 686 q 146 669 144 675 q 141 653 142 656 q 137 646 140 650 q 130 623 130 632 q 125 612 130 614 q 125 603 127 606 q 123 595 123 600 q 121 581 121 582 q 116 566 117 574 q 115 556 115 559 q 113 544 113 545 q 114 541 114 543 q 109 522 109 530 q 104 507 109 513 q 106 492 107 500 q 100 476 106 483 q 98 455 95 464 q 94 445 100 446 q 95 406 91 422 q 94 377 99 389 q 98 363 96 370 q 102 351 99 357 q 109 333 106 338 q 114 323 111 328 q 121 309 118 309 q 132 294 126 297 q 140 285 137 292 q 152 279 152 278 q 156 278 152 279 q 171 273 168 274 q 210 266 195 271 q 250 281 240 273 q 274 294 259 290 q 279 300 277 297 q 288 307 282 304 q 301 318 300 315 q 307 321 302 321 q 312 328 309 324 q 317 334 315 331 q 325 338 321 336 q 330 345 328 340 q 340 352 336 349 q 346 358 343 355 q 355 369 354 366 q 361 370 357 372 q 380 396 368 384 q 393 413 391 411 q 395 420 396 415 q 406 433 401 431 q 407 442 410 434 q 419 458 415 446 q 431 473 430 471 q 437 477 433 476 q 441 489 438 484 q 446 502 445 494 q 463 530 461 521 q 464 553 464 538 q 464 569 465 567 q 463 574 463 571 l 463 589 q 461 621 465 610 q 463 633 464 625 q 464 651 463 642 q 468 677 468 670 q 471 690 468 685 q 473 706 475 705 q 472 708 472 707 q 472 724 469 723 q 475 727 475 724 q 476 741 475 736 q 479 750 477 745 q 483 776 483 764 q 488 798 486 791 q 495 808 490 806 q 498 826 495 819 q 500 834 498 830 q 505 846 503 838 q 512 855 510 853 q 514 864 514 857 q 524 876 521 869 q 534 888 528 883 q 551 899 548 897 q 555 902 553 901 q 566 912 566 909 q 574 914 567 916 q 591 923 587 922 q 602 922 595 924 q 608 916 605 918 q 614 909 612 913 q 617 902 617 906 q 620 894 617 898 q 624 876 623 879 q 625 869 625 872 q 623 844 625 853 q 625 829 621 836 q 620 806 623 811 q 618 793 617 800 q 614 777 614 785 q 612 762 614 769 q 606 749 608 751 q 602 743 604 746 q 596 727 600 736 q 587 711 593 718 q 582 691 587 697 q 576 671 576 685 q 567 656 570 658 q 563 647 564 654 l 556 631 q 551 623 552 628 q 544 617 551 618 q 536 595 543 602 q 528 574 529 587 q 521 565 521 570 q 515 560 521 560 q 513 545 518 551 q 506 536 507 540 q 505 513 502 519 q 503 500 502 507 q 505 486 503 494 q 505 478 505 483 q 506 471 506 473 q 504 453 503 457 q 505 445 505 449 q 503 435 505 439 q 503 425 502 431 q 505 415 503 419 q 502 407 506 411 q 505 390 503 400 q 503 372 506 380 q 505 355 503 359 q 509 346 507 350 q 509 321 507 327 q 511 309 511 315 q 511 278 510 289 q 513 252 513 267 q 513 244 511 250 q 510 237 514 239 q 512 221 514 231 q 514 203 510 212 q 509 171 513 180 q 506 151 506 161 q 498 126 495 144 q 486 95 488 117 q 480 87 483 92 q 473 79 477 81 q 468 60 471 68 q 458 45 465 52 q 445 18 450 27 q 433 3 439 9 q 426 -5 430 -1 q 419 -12 422 -8 q 412 -19 415 -15 q 404 -26 408 -23 q 392 -36 395 -33 q 387 -42 389 -39 q 372 -52 378 -50 q 365 -58 366 -53 q 346 -69 350 -64 q 324 -79 334 -72 q 310 -81 312 -80 q 305 -85 308 -83 q 293 -87 296 -88 q 288 -92 290 -87 q 280 -92 283 -91 q 273 -95 277 -94 q 265 -96 269 -94 q 258 -98 262 -98 q 220 -93 239 -100 q 191 -75 202 -85 q 178 -72 183 -75 q 164 -69 172 -69 q 153 -58 159 -61 q 142 -43 152 -50 q 137 -25 141 -33 q 129 -11 133 -18 q 128 1 130 -4 q 126 11 126 5 q 130 34 129 30 q 132 43 132 39 q 133 54 133 47 q 136 63 134 57 q 141 76 138 69 q 165 109 153 102 q 170 116 168 113 q 174 123 172 119 q 181 125 179 123 q 189 126 183 126 q 206 140 195 133 q 224 146 214 140 q 243 154 237 152 q 254 157 248 156 q 273 156 269 156 q 281 149 277 156 q 297 138 296 149 q 307 134 304 138 q 317 127 311 129 q 324 119 323 121 q 328 117 326 118 q 330 104 330 111 q 332 91 330 98 q 336 73 338 76 q 334 68 335 71 q 335 60 334 65 q 334 50 336 56 q 322 30 326 34 q 315 23 319 26 q 302 14 308 20 q 289 11 296 8 q 273 5 274 1 q 252 4 255 1 q 244 8 248 7 q 243 22 240 19 q 248 30 245 26 q 285 47 274 39 l 292 53 m -88 998 q -95 981 -95 982 q -96 965 -98 968 q -95 958 -95 962 q -95 939 -96 941 q -94 933 -94 936 q -91 915 -91 918 q -90 909 -91 911 q -80 897 -80 899 q -79 892 -80 895 q -68 886 -71 884 q -64 886 -66 888 q -41 880 -47 880 q -31 882 -35 879 q -18 897 -20 894 q -15 903 -15 901 q -17 933 -14 924 q -23 948 -20 943 q -28 960 -27 959 q -31 962 -30 960 q -39 972 -37 970 q -39 978 -41 975 q -47 984 -43 981 q -56 990 -50 987 q -68 993 -65 990 q -73 994 -71 996 l -84 1006 l -88 998 m 514 625 q 522 641 521 639 q 525 644 522 643 q 533 665 525 656 q 538 680 533 675 q 543 692 543 684 q 555 713 553 707 q 562 722 556 719 q 571 749 564 739 q 578 779 578 760 q 582 786 581 781 q 581 795 583 791 q 585 804 585 799 q 586 815 585 810 q 589 825 590 823 q 591 830 589 827 q 590 849 589 846 q 591 854 591 852 q 587 867 589 861 q 582 879 585 873 q 562 865 567 872 q 548 856 557 859 q 543 842 543 846 q 541 830 543 838 q 534 817 537 821 q 532 807 530 814 q 525 787 525 792 q 522 774 525 781 q 524 765 525 768 q 519 755 522 762 q 520 747 521 750 q 519 738 519 745 q 517 722 514 730 q 511 695 511 705 q 507 677 511 685 q 509 663 510 667 q 507 656 507 659 q 509 644 507 650 q 510 632 510 637 l 514 625 m 507 1114 q 509 1101 510 1107 q 507 1089 507 1096 q 498 1080 499 1082 q 491 1074 498 1077 q 479 1064 480 1066 q 473 1063 477 1062 q 466 1056 469 1059 q 460 1048 463 1053 q 450 1041 453 1046 q 441 1034 448 1036 q 431 1025 435 1029 q 420 1019 427 1021 q 414 1011 419 1015 q 406 1005 408 1008 q 399 1001 401 1004 q 392 998 397 998 q 372 996 376 993 q 363 1002 368 1000 q 364 1012 365 1009 q 369 1020 363 1015 q 391 1040 385 1031 q 399 1042 396 1039 q 406 1047 403 1044 q 420 1058 419 1055 q 428 1064 423 1061 q 435 1073 433 1067 q 447 1084 445 1082 q 450 1089 449 1086 q 463 1099 458 1097 q 467 1104 468 1101 q 483 1114 475 1108 q 496 1116 491 1112 q 507 1114 502 1119 z "},"ý":{"ha":460,"x_min":38,"x_max":431,"o":"m 232 -232 q 218 -235 222 -233 q 209 -237 214 -237 q 194 -235 201 -239 q 182 -228 187 -231 q 182 -212 179 -218 q 182 -195 184 -206 q 201 -193 195 -193 q 209 -193 206 -194 q 218 -170 217 -176 q 216 -157 218 -164 q 208 -147 213 -151 q 203 -136 203 -144 q 183 -119 184 -125 q 165 -115 170 -114 q 156 -114 160 -117 q 148 -118 153 -118 q 137 -121 142 -118 q 119 -130 122 -129 q 113 -133 115 -130 q 106 -140 109 -136 q 99 -148 104 -145 q 91 -161 96 -159 q 84 -195 84 -182 q 82 -204 83 -199 q 79 -212 81 -209 q 81 -220 79 -216 q 83 -227 83 -224 q 85 -253 85 -247 q 85 -266 84 -259 q 94 -279 94 -275 q 96 -286 94 -283 q 106 -298 103 -296 q 116 -309 117 -308 q 117 -311 115 -311 q 126 -323 125 -321 q 132 -327 127 -324 q 151 -331 146 -328 q 161 -336 156 -334 q 186 -336 174 -334 q 213 -339 199 -339 q 224 -336 222 -335 q 229 -336 227 -336 q 247 -330 236 -335 q 259 -323 256 -324 q 262 -320 262 -323 q 277 -315 273 -317 q 286 -311 282 -313 q 298 -300 293 -302 q 311 -284 311 -290 q 320 -278 312 -278 q 326 -262 321 -271 q 331 -235 331 -244 q 335 -217 331 -225 q 334 -209 332 -213 q 336 -199 336 -205 q 339 -180 336 -189 q 338 -167 340 -167 q 336 -164 336 -167 q 338 -142 339 -157 q 335 -117 338 -127 q 332 -104 334 -110 q 334 -91 330 -98 q 330 -82 332 -85 q 327 -75 328 -79 q 324 -57 326 -60 q 321 -52 323 -54 q 317 -37 316 -37 q 317 -34 317 -37 q 317 -25 317 -31 q 316 -15 317 -19 q 307 18 308 9 q 300 35 307 27 q 300 50 301 42 q 296 71 294 64 q 293 84 297 79 q 282 79 285 84 q 275 72 279 75 q 260 68 263 68 q 254 65 256 68 q 236 58 240 60 q 228 54 232 56 q 209 52 213 54 q 198 47 205 50 q 169 53 184 50 q 140 53 153 56 q 123 64 132 60 q 102 71 114 68 q 90 86 96 79 q 76 100 83 94 q 73 110 75 106 q 68 118 71 114 q 63 127 65 122 q 57 137 61 133 q 54 151 57 145 q 50 167 52 157 q 45 193 46 187 q 43 208 45 201 q 42 222 42 216 q 44 240 45 236 q 43 248 43 244 q 44 260 43 254 q 45 271 45 267 q 45 282 45 278 q 49 289 45 286 q 50 304 47 298 q 51 321 50 311 q 54 340 52 332 q 58 355 58 353 q 60 359 58 357 q 65 374 65 370 q 65 380 65 377 q 75 391 72 389 q 80 393 79 392 q 92 390 90 391 q 95 387 94 389 q 102 373 100 376 q 100 351 98 355 q 94 334 94 346 q 88 315 94 323 q 90 302 92 304 q 85 297 88 300 q 86 284 91 290 q 85 271 81 278 q 82 249 80 260 q 80 227 84 237 q 81 209 81 217 q 83 190 80 201 q 91 171 88 174 q 97 154 95 160 q 102 141 99 148 q 117 115 111 126 q 134 101 129 103 q 144 96 138 99 q 157 92 153 91 q 163 88 160 92 q 181 86 179 87 q 186 84 183 85 q 205 83 194 81 q 225 88 222 85 q 236 92 232 90 q 247 98 240 95 q 254 102 250 99 q 262 109 259 104 q 278 117 271 111 q 292 127 285 122 q 293 142 290 134 q 294 152 294 148 q 292 163 293 156 q 292 180 293 178 q 290 186 290 183 q 291 204 290 195 q 293 221 292 213 q 294 250 293 239 q 292 271 296 260 q 298 300 294 292 q 300 309 301 307 q 300 315 298 312 q 305 336 307 330 q 312 344 311 339 q 313 351 313 349 q 330 370 326 369 q 336 382 336 380 q 338 388 335 385 q 361 406 358 399 q 382 412 380 408 q 391 416 385 415 q 408 405 404 406 q 414 401 411 404 q 417 393 416 397 q 422 388 418 389 q 427 368 426 373 q 430 361 427 363 q 429 352 427 357 q 431 342 431 347 q 420 301 429 308 q 416 277 418 285 q 408 264 415 269 q 406 250 410 254 q 403 237 401 245 q 393 220 395 224 q 391 213 392 216 q 383 199 382 201 q 382 195 384 198 q 376 189 380 193 q 373 178 372 184 q 361 168 363 168 q 347 146 353 151 q 339 137 342 142 q 331 122 335 126 q 334 109 334 115 q 336 92 334 102 q 338 67 336 80 q 345 47 339 54 q 346 35 343 41 q 351 22 349 28 q 354 1 354 15 q 357 -20 354 -12 q 362 -35 362 -30 q 363 -43 362 -39 q 370 -71 370 -62 q 372 -85 370 -79 q 376 -98 377 -96 q 374 -102 374 -99 q 380 -120 378 -118 q 381 -125 381 -122 q 380 -143 378 -137 q 381 -152 381 -149 q 382 -170 384 -168 q 381 -175 381 -172 q 378 -193 380 -189 q 377 -201 377 -197 q 379 -216 380 -214 q 378 -220 378 -217 q 374 -235 380 -227 q 371 -246 370 -244 q 372 -250 372 -248 q 365 -263 369 -256 q 361 -278 361 -270 q 355 -286 357 -281 q 351 -294 354 -290 q 342 -307 342 -305 q 340 -312 342 -309 q 332 -323 336 -319 q 323 -332 327 -327 q 306 -341 307 -339 q 302 -345 305 -343 q 288 -351 288 -351 q 272 -359 273 -358 q 270 -362 271 -361 q 258 -365 264 -365 q 245 -368 252 -365 q 239 -370 241 -369 q 231 -373 236 -372 q 220 -375 225 -376 q 210 -378 214 -374 q 191 -376 197 -377 q 179 -374 186 -374 q 171 -374 175 -373 q 164 -373 167 -374 q 151 -368 157 -372 q 138 -365 145 -365 q 110 -355 119 -363 q 90 -340 100 -347 q 73 -323 79 -326 q 64 -308 72 -312 q 48 -268 54 -285 q 49 -236 42 -251 q 44 -220 46 -229 q 45 -206 42 -212 q 44 -188 38 -194 q 47 -168 50 -182 q 56 -155 54 -159 q 58 -148 57 -152 q 62 -132 61 -132 q 65 -132 64 -133 l 84 -107 q 96 -100 91 -103 q 106 -91 102 -96 q 136 -72 123 -83 q 147 -73 142 -73 q 157 -71 152 -73 q 170 -73 164 -73 q 184 -75 176 -73 q 206 -82 202 -80 q 216 -85 210 -84 q 227 -102 224 -98 q 233 -106 229 -104 q 239 -111 236 -109 q 246 -120 244 -115 q 251 -132 248 -125 q 256 -140 254 -136 q 258 -148 258 -144 q 258 -162 258 -157 q 262 -170 259 -167 q 258 -192 260 -189 q 252 -201 255 -195 q 239 -218 243 -213 q 232 -232 235 -224 m 363 359 q 355 346 355 349 q 347 321 349 327 q 342 312 345 316 q 338 288 338 297 q 335 271 338 278 q 335 246 335 250 q 332 236 335 243 q 334 221 336 229 q 334 203 331 213 q 331 193 332 198 q 334 184 330 187 q 340 195 340 187 q 347 206 340 202 q 361 225 350 220 q 364 237 358 235 q 368 250 370 240 q 376 266 373 264 q 377 271 378 267 q 385 286 385 283 q 385 290 385 289 q 388 307 389 298 q 392 321 392 309 q 396 340 395 338 q 396 343 397 342 q 390 363 391 359 q 387 370 389 368 q 375 366 376 372 q 363 359 374 359 m 342 587 q 343 575 345 581 q 342 563 342 570 q 333 553 334 556 q 326 548 332 551 q 313 538 315 540 q 308 537 312 536 q 300 530 304 533 q 294 522 297 526 q 285 515 288 519 q 275 507 282 510 q 266 499 270 503 q 255 492 262 495 q 248 485 254 488 q 240 479 243 481 q 234 475 236 477 q 227 472 232 472 q 206 470 210 467 q 198 476 202 473 q 199 486 199 483 q 203 494 198 488 q 225 514 220 505 q 234 515 231 513 q 240 521 237 518 q 255 532 254 529 q 262 538 258 534 q 270 547 267 541 q 281 558 279 556 q 285 563 283 560 q 298 573 293 571 q 301 578 302 575 q 317 587 309 582 q 331 589 326 586 q 342 587 336 593 z "},"Þ":{"ha":749,"x_min":-81,"x_max":755,"o":"m -81 582 l -81 597 q -77 616 -79 613 q -76 621 -76 618 q -71 634 -73 632 q -69 639 -69 636 q -68 650 -69 650 q -66 654 -68 651 q -62 669 -65 669 q -54 686 -54 681 q -42 707 -47 703 q -35 722 -37 719 q -30 727 -34 724 q -20 739 -23 735 q -12 754 -14 754 q -3 770 -5 768 q 4 776 0 773 q 9 787 5 784 q 14 798 12 791 q 32 815 24 810 q 43 827 39 821 q 56 837 49 830 q 71 852 68 850 q 76 859 75 854 q 87 866 87 865 q 90 867 88 867 q 103 878 102 876 q 112 884 110 883 q 115 887 114 884 q 131 897 129 894 q 134 902 133 899 q 146 906 141 905 q 153 911 151 907 q 174 922 168 920 q 183 928 179 925 q 193 930 191 929 q 197 935 194 932 q 208 937 206 935 q 213 940 209 940 q 223 941 220 939 q 232 944 227 943 q 265 953 252 948 q 289 958 278 958 q 309 958 304 958 l 324 959 q 335 957 334 956 q 339 958 336 958 q 355 956 355 956 q 372 955 369 954 q 380 956 376 956 q 396 954 396 952 q 411 951 404 951 q 427 946 426 945 q 429 947 427 947 q 443 944 439 945 q 448 939 446 943 q 457 935 453 939 q 464 929 461 932 q 479 925 476 929 q 495 925 494 926 q 498 922 496 924 q 511 919 511 920 q 513 918 511 918 q 519 914 517 917 q 528 911 522 911 q 563 892 548 897 q 579 880 576 882 q 600 865 595 871 q 614 853 610 857 q 628 837 627 841 q 644 822 640 825 q 651 815 647 819 q 657 805 654 808 q 662 795 661 802 q 669 788 667 792 q 677 783 671 784 q 681 766 677 770 q 688 754 685 762 q 693 747 692 751 q 699 742 694 743 q 701 730 701 732 q 703 726 701 728 q 709 713 708 713 q 713 709 711 712 q 716 692 716 694 q 724 677 722 681 q 728 667 727 673 q 732 659 730 662 q 738 640 736 643 q 741 635 739 637 q 742 628 742 632 q 743 620 742 624 l 746 604 l 750 589 q 751 572 750 574 q 753 568 753 571 q 755 551 753 552 q 753 530 753 537 q 753 511 753 515 q 749 485 750 491 q 745 472 747 479 l 742 457 q 736 443 736 444 q 734 442 735 442 q 732 429 731 435 q 730 416 732 423 q 722 400 724 400 q 715 387 716 388 q 705 366 708 373 l 699 350 q 684 330 689 334 q 675 312 677 317 q 670 300 673 307 q 654 282 662 286 q 646 269 651 275 q 636 256 642 263 q 624 241 625 245 q 601 227 606 232 q 587 218 595 221 l 574 210 q 567 208 571 210 q 557 203 563 205 q 541 195 551 197 q 528 189 532 194 q 519 189 524 189 q 513 190 515 190 q 494 186 502 186 l 477 183 q 461 181 463 182 q 457 180 460 180 q 448 180 453 180 q 441 182 444 180 q 429 183 434 182 q 419 187 425 184 q 403 194 410 189 q 388 203 396 198 q 369 212 380 209 q 357 225 359 224 q 353 229 355 227 q 342 244 342 244 q 332 256 332 255 q 331 273 332 271 q 328 287 327 286 q 328 289 328 288 q 323 309 326 304 q 323 326 326 326 q 325 333 326 331 q 326 340 324 335 q 335 353 331 347 q 345 366 339 359 q 353 378 350 377 q 358 382 357 380 q 373 385 372 387 l 385 395 q 400 395 397 396 q 416 393 411 395 q 426 392 420 392 q 441 392 439 393 q 456 377 453 380 q 461 372 458 374 q 472 359 468 359 q 479 346 473 353 q 480 327 477 330 q 481 313 480 315 q 481 308 481 311 q 475 294 476 296 q 465 274 468 279 q 430 259 438 267 q 415 259 416 259 q 408 274 411 263 q 407 286 408 283 q 406 292 406 289 q 409 300 406 298 q 415 305 412 302 l 431 309 q 434 319 435 316 q 433 327 433 323 q 428 342 429 342 q 427 345 427 342 q 411 346 412 347 q 389 347 395 347 q 376 340 377 340 q 373 338 376 339 l 366 320 q 366 301 363 301 l 370 286 q 377 273 370 277 q 380 258 377 262 q 385 248 382 255 q 403 237 399 244 q 416 227 415 227 q 463 221 448 221 q 471 221 467 221 q 481 222 476 221 q 498 226 494 225 q 505 229 502 227 q 517 230 515 229 q 521 231 518 231 q 538 237 536 235 q 559 244 556 243 q 567 248 563 245 q 581 257 579 255 q 586 262 582 259 q 593 271 591 269 q 597 273 594 273 q 605 279 602 275 q 613 285 608 282 q 625 298 621 297 q 641 323 636 317 q 648 339 646 330 q 658 354 655 350 q 662 365 661 358 q 675 381 670 376 q 682 399 678 393 q 688 416 686 406 q 695 437 693 434 q 697 446 697 441 q 705 463 704 457 q 707 475 707 468 l 712 490 l 711 505 q 714 524 715 519 q 713 530 713 528 q 713 553 716 548 q 711 578 711 574 q 711 589 712 583 l 707 604 q 703 616 704 616 q 700 620 701 617 q 696 639 700 631 q 690 655 692 655 q 682 672 685 666 q 677 681 680 678 q 673 692 675 689 q 670 703 671 696 q 662 713 665 709 q 656 720 659 718 l 651 736 l 644 750 q 637 759 639 758 q 633 762 636 760 q 625 779 627 779 q 617 790 620 784 q 609 799 614 796 q 598 810 601 807 q 583 822 586 819 q 578 829 581 825 q 563 841 566 836 q 533 859 548 856 q 518 871 525 864 q 505 875 506 873 q 502 879 503 876 q 488 881 495 880 q 477 888 481 882 q 467 890 469 890 q 463 892 465 891 q 449 899 449 898 q 448 901 449 899 l 433 903 q 418 906 425 906 q 406 909 412 906 l 391 913 q 374 916 378 916 q 360 917 363 916 q 353 918 357 918 q 331 921 335 921 q 314 919 320 918 q 302 920 308 920 l 288 918 q 269 914 274 917 q 248 913 258 916 q 233 907 239 910 q 218 902 222 905 q 210 898 214 899 l 195 890 q 180 883 184 887 q 164 873 168 883 q 148 867 153 869 q 140 861 142 865 q 122 852 133 860 q 113 843 115 846 q 106 836 110 840 q 90 827 92 827 q 79 814 81 817 q 72 810 77 812 q 65 800 69 803 q 57 793 61 796 q 50 782 52 784 q 46 779 49 780 q 37 766 39 770 q 26 754 27 755 q 14 741 14 743 q 12 736 14 738 q 5 723 8 727 q 0 715 3 719 q -8 697 -8 707 q -21 681 -19 684 q -24 675 -23 678 q -30 661 -27 661 q -38 646 -34 647 q -39 631 -38 632 q -41 629 -41 631 q -41 617 -42 624 q -45 605 -41 610 q -45 587 -45 594 q -46 572 -46 579 q -43 555 -46 566 q -45 547 -45 551 q -46 540 -45 543 q -47 525 -49 529 q -45 514 -45 521 q -42 490 -42 500 q -38 473 -35 476 q -35 458 -35 465 q -31 441 -34 450 l -26 422 q -22 407 -23 410 q -13 395 -14 395 q -12 393 -12 395 q -6 385 -8 388 q -3 377 -4 381 q 6 364 1 368 q 14 354 11 361 l 24 343 l 38 336 l 52 328 q 66 324 65 323 q 83 323 80 320 q 94 321 91 321 q 104 320 98 321 q 118 327 113 324 q 134 353 132 347 q 135 370 134 365 q 136 381 136 374 q 133 400 133 396 q 134 416 133 415 q 141 427 138 426 q 146 431 144 429 q 161 427 155 429 q 172 419 168 426 q 176 400 176 403 q 175 395 175 397 q 174 372 174 380 q 174 357 176 359 l 174 342 q 170 334 171 338 q 168 324 168 331 q 160 311 163 321 q 151 304 153 308 q 141 298 148 301 q 126 286 129 289 q 119 283 123 283 q 101 281 104 281 q 95 278 98 281 q 83 277 83 278 q 80 273 83 275 q 65 279 73 279 q 44 283 49 282 q 33 286 39 285 l 19 294 q 6 309 9 305 q -3 315 3 312 q -10 324 -8 323 q -14 330 -12 326 q -24 342 -20 336 l -35 353 q -46 366 -39 362 q -50 380 -46 377 q -53 387 -53 382 l -57 401 q -64 438 -64 425 q -68 445 -68 441 q -71 454 -69 449 q -75 469 -71 465 q -76 484 -73 479 q -79 505 -79 499 q -80 529 -80 522 q -80 543 -80 536 l -80 572 l -81 582 m 235 597 q 239 584 239 586 q 240 579 240 582 q 240 566 239 567 q 241 563 241 564 q 243 551 243 552 q 245 547 244 549 q 248 530 245 534 q 250 524 250 526 q 251 507 252 509 q 250 500 250 505 l 264 454 q 271 412 260 433 q 272 395 273 400 q 274 385 271 391 q 274 361 269 370 l 281 320 q 278 301 277 304 q 275 294 279 298 q 279 283 278 289 q 281 271 281 278 q 282 259 281 264 q 282 248 283 254 q 281 235 278 235 q 283 232 283 235 q 283 220 286 224 q 283 212 281 217 q 282 176 286 187 q 279 148 278 164 q 273 104 274 121 q 269 91 267 95 q 269 84 270 87 q 263 69 263 76 q 258 58 260 65 q 254 47 256 52 q 254 37 258 41 q 247 30 250 33 q 237 5 244 15 q 225 -18 229 -4 q 209 -19 209 -19 q 180 -20 191 -28 q 172 -12 174 -9 q 168 -11 171 -14 q 172 5 170 4 q 176 7 175 5 q 192 26 190 20 q 201 35 194 33 q 205 50 202 47 q 209 54 209 52 q 210 66 206 61 q 210 77 213 71 q 216 90 216 81 q 222 103 217 99 q 224 122 221 114 q 224 140 228 130 q 230 161 227 159 q 231 170 233 163 q 233 199 231 187 q 237 220 236 210 q 235 234 237 233 q 233 237 233 235 q 237 244 236 240 q 240 251 237 248 q 235 263 233 259 q 235 270 237 267 q 232 283 233 279 q 231 290 231 288 q 229 327 232 308 q 224 353 225 346 q 222 374 221 361 q 218 395 222 387 q 220 408 221 401 q 217 422 218 415 q 216 441 217 427 q 213 457 214 454 q 212 471 214 463 q 206 490 209 480 q 202 510 203 500 q 205 525 201 519 q 199 532 203 528 q 199 540 195 537 q 195 548 198 545 q 193 557 193 551 q 191 574 191 570 q 184 598 189 586 q 183 614 180 610 q 180 642 186 628 q 174 667 174 655 q 168 677 170 671 q 163 688 165 684 q 159 702 161 701 q 156 705 156 703 q 160 730 160 713 q 155 736 155 732 q 155 746 156 741 q 145 763 149 753 q 140 774 141 773 q 139 781 140 776 q 137 793 138 787 q 135 804 136 799 q 133 808 134 808 q 125 831 125 823 q 123 846 125 838 q 120 854 122 849 q 121 865 118 860 q 111 883 114 880 q 109 888 109 886 q 109 901 110 898 q 106 906 107 903 q 103 917 104 914 q 99 922 102 920 q 98 930 100 928 q 98 939 96 933 q 94 945 96 943 q 91 954 91 947 q 77 970 81 967 q 68 975 73 972 q 65 985 68 982 q 62 996 62 989 q 74 1015 69 1010 q 90 1019 79 1019 q 104 1012 100 1015 q 113 1008 107 1009 q 121 987 118 998 q 134 970 125 977 q 142 948 137 954 q 144 941 142 944 q 148 933 146 937 q 153 909 153 914 q 155 898 152 905 q 163 874 160 882 q 167 859 165 867 q 168 847 165 853 q 171 838 171 841 q 180 819 176 819 l 191 777 q 194 759 190 766 q 195 745 198 751 q 199 736 198 741 q 199 724 201 731 q 207 712 205 720 q 206 697 209 704 q 216 671 213 686 q 225 646 218 656 q 239 617 235 628 q 236 602 237 605 q 235 597 235 600 z "},"þ":{"ha":507,"x_min":7,"x_max":465,"o":"m 134 495 q 127 513 129 509 q 129 521 125 518 l 123 537 q 122 555 123 553 q 119 559 121 556 q 115 578 118 575 q 112 595 114 587 q 106 606 110 602 q 104 620 106 620 q 100 623 102 620 q 97 638 98 629 q 92 652 96 647 q 88 673 92 665 q 81 690 84 682 q 74 704 76 703 q 72 708 72 705 q 60 726 62 712 q 66 732 62 730 q 68 739 69 734 q 75 744 73 742 q 81 746 76 746 q 92 749 88 750 q 100 747 96 747 q 106 727 103 732 q 110 715 109 722 q 115 709 113 712 q 119 703 117 705 q 125 682 122 688 q 127 668 125 670 q 130 661 130 666 q 133 645 130 648 q 140 639 136 642 q 141 629 140 633 q 142 621 142 625 q 146 611 148 612 q 146 606 144 610 q 152 591 152 595 q 156 585 152 587 q 159 568 157 571 q 163 562 160 564 q 165 549 165 559 q 168 536 164 538 q 168 522 170 522 q 167 519 167 522 q 170 505 170 506 q 170 502 171 505 q 172 494 172 500 q 172 483 171 488 l 174 467 q 176 456 176 457 q 179 448 176 456 q 189 451 186 449 q 194 454 191 453 q 206 454 199 454 q 216 458 213 454 q 235 458 224 456 q 258 461 247 460 l 279 460 q 297 458 294 458 q 313 456 313 456 q 324 454 320 458 q 335 450 328 450 q 366 435 359 442 q 387 427 372 427 q 403 414 399 418 q 412 410 407 411 q 425 396 420 400 q 430 384 429 392 q 439 365 437 368 q 445 358 442 362 q 449 351 448 355 q 453 345 450 347 q 454 332 453 334 q 457 328 456 331 q 459 316 458 317 q 461 312 460 315 q 463 296 464 300 q 463 289 463 293 q 465 274 463 285 q 464 261 463 263 q 465 256 465 259 q 464 241 465 241 q 463 239 463 240 l 461 224 q 452 197 456 202 q 448 182 448 191 q 431 155 437 171 q 411 130 425 138 q 387 100 397 107 q 380 92 384 92 q 374 91 377 92 q 361 73 366 79 q 347 65 349 71 q 331 56 334 58 q 327 52 328 54 q 313 46 315 49 q 305 43 311 43 q 285 35 289 38 q 278 35 281 33 q 266 33 269 34 q 258 30 263 31 l 240 27 q 229 14 227 19 q 227 4 231 8 q 229 -5 231 0 q 228 -16 228 -9 q 230 -30 231 -27 q 229 -35 229 -33 q 230 -45 229 -41 q 227 -53 231 -49 q 229 -72 229 -66 q 229 -87 229 -79 q 225 -100 228 -95 q 224 -115 224 -115 q 225 -130 227 -130 q 224 -132 224 -130 q 223 -147 225 -146 q 222 -149 221 -148 q 222 -165 222 -153 q 221 -183 222 -176 q 217 -203 216 -194 q 218 -218 218 -212 q 215 -233 214 -232 q 216 -237 216 -235 q 213 -250 214 -247 q 214 -255 212 -252 q 203 -258 202 -255 q 198 -259 203 -262 q 184 -272 187 -274 q 175 -270 180 -270 q 171 -256 172 -266 q 172 -243 170 -245 q 170 -235 171 -240 q 172 -225 168 -229 q 172 -210 171 -218 q 178 -195 176 -197 q 180 -190 180 -193 q 180 -175 179 -176 q 183 -172 182 -174 q 183 -156 182 -165 q 184 -138 184 -146 q 185 -122 183 -130 q 183 -111 187 -114 q 185 -94 186 -95 q 184 -90 184 -92 q 187 -75 186 -77 q 189 -57 189 -60 q 188 -50 189 -53 q 187 -42 187 -46 q 189 -26 189 -37 q 184 -14 189 -16 q 186 4 186 -8 q 185 14 187 11 q 184 22 183 16 q 149 25 161 26 q 126 31 136 24 q 115 34 118 34 q 110 35 113 34 l 98 46 q 83 58 85 54 q 77 61 81 61 q 75 75 77 69 q 69 88 72 80 q 71 116 69 107 q 76 133 73 125 q 88 142 83 136 q 103 148 94 148 q 125 152 118 149 q 138 153 132 155 q 142 136 141 140 q 144 127 144 133 q 134 115 136 119 q 126 109 132 111 q 119 111 121 109 q 110 110 117 113 q 106 96 104 98 q 111 91 109 94 q 113 82 110 84 q 114 76 115 80 q 130 67 129 69 q 133 62 130 65 q 151 60 144 60 q 165 56 159 61 q 173 58 170 57 q 182 58 176 60 q 181 73 183 65 q 182 91 179 81 q 178 111 179 106 q 175 125 176 117 q 175 146 176 142 q 174 154 175 151 q 171 161 172 157 q 171 176 172 174 q 170 203 170 193 q 167 221 170 214 q 164 231 165 227 q 165 241 163 236 l 161 266 q 159 281 160 278 q 159 290 157 285 q 157 309 159 298 q 152 323 155 319 q 153 330 155 326 q 151 339 152 335 q 151 352 153 349 q 149 361 149 355 l 151 381 q 144 404 149 397 q 123 395 129 401 q 106 392 113 393 q 98 387 100 391 q 82 380 85 382 q 73 374 79 377 q 53 357 58 361 q 42 347 47 353 q 49 331 42 336 q 68 330 65 328 q 75 334 72 332 q 89 322 85 326 q 91 313 92 319 q 85 304 85 307 q 81 301 84 302 q 68 294 69 294 q 41 294 53 293 q 33 298 35 296 q 24 298 31 301 q 22 305 24 304 q 18 312 19 307 q 11 323 11 320 q 12 330 11 327 q 10 352 7 346 q 15 366 14 358 q 25 377 22 370 q 35 389 28 384 q 50 397 49 392 q 58 400 52 401 q 72 407 71 406 q 89 419 80 415 q 107 426 98 423 q 126 433 117 430 q 133 437 129 435 q 140 442 137 438 q 138 459 138 450 q 133 472 138 468 l 134 495 m 422 243 q 426 257 426 254 q 423 264 426 260 q 425 279 427 271 q 420 292 423 286 q 418 307 420 301 q 416 319 419 315 q 415 328 414 324 q 408 340 410 339 q 408 345 406 342 q 400 358 403 349 q 393 372 393 366 q 386 379 389 376 q 380 388 382 382 q 368 397 373 389 q 354 404 358 397 q 339 410 342 407 q 328 411 336 412 q 311 419 313 419 q 307 420 309 419 q 292 425 301 425 q 275 425 277 426 q 270 423 273 423 q 258 422 260 425 q 254 422 256 420 q 248 424 251 425 q 237 425 244 423 q 210 419 222 422 q 182 415 197 416 q 186 396 184 408 q 184 373 187 384 q 187 365 187 368 q 186 357 187 362 q 193 336 193 349 q 190 312 193 324 q 195 293 191 302 q 193 277 198 283 q 196 269 195 273 q 199 259 197 264 q 201 244 198 247 q 206 239 203 241 q 203 228 201 233 q 208 217 206 222 q 208 203 206 208 q 209 194 209 198 q 210 176 208 182 q 210 168 210 172 q 212 159 210 163 q 214 136 213 140 q 218 126 216 130 q 220 118 220 122 q 220 103 221 106 q 220 96 220 100 q 222 79 222 81 q 221 75 221 77 q 222 67 221 71 q 224 60 222 64 q 244 60 235 57 q 264 60 254 62 q 272 64 269 62 q 278 66 275 65 q 290 68 289 66 q 293 71 290 71 q 313 81 304 75 q 332 91 323 87 l 345 102 q 352 110 347 109 q 358 118 357 111 q 376 134 370 127 q 384 151 381 141 q 396 164 393 161 q 399 174 399 167 q 408 189 408 186 q 416 210 414 205 q 420 222 419 216 q 422 236 420 233 q 422 243 425 239 z "},"Ž":{"ha":755,"x_min":0,"x_max":810,"o":"m 507 524 q 520 518 510 517 q 534 515 530 519 q 550 519 547 518 q 556 521 553 521 q 559 539 556 537 q 562 545 562 541 q 576 545 574 544 q 581 545 579 545 q 590 542 586 544 q 600 538 594 540 q 600 527 597 533 q 595 519 602 521 q 593 511 597 513 q 589 502 589 509 q 571 490 574 491 q 563 488 568 488 q 547 484 548 483 q 544 483 545 484 q 528 486 537 480 q 509 486 513 486 q 502 483 506 486 q 496 485 498 486 q 487 487 494 484 q 484 479 484 484 q 479 473 483 475 q 472 454 473 460 q 465 448 471 449 q 463 438 465 441 q 463 429 461 435 q 455 417 457 425 q 446 407 453 410 q 445 396 449 400 q 441 384 441 392 q 422 350 430 358 q 414 327 415 342 q 403 305 404 317 q 387 283 393 288 q 385 275 387 278 q 380 269 382 271 q 371 252 372 255 q 365 251 370 250 q 355 231 361 240 q 345 213 350 222 q 337 202 339 202 q 335 198 335 202 q 328 191 328 197 q 320 184 327 186 q 309 170 311 172 q 304 168 308 167 q 292 154 298 160 q 278 141 285 148 q 281 132 277 134 q 285 123 286 130 q 297 114 293 118 q 305 106 301 110 q 317 94 315 95 q 320 90 320 92 q 331 81 328 83 q 332 76 334 80 q 342 70 339 71 q 346 68 345 69 q 361 50 358 54 q 370 45 363 46 q 392 27 388 34 q 404 18 399 20 q 420 5 411 15 q 432 1 429 5 q 446 -3 435 -3 q 458 -9 450 -8 q 471 -16 467 -11 q 483 -18 477 -15 q 495 -20 488 -20 q 511 -22 507 -20 q 517 -23 514 -23 q 539 -22 533 -22 q 552 -22 545 -23 q 563 -20 560 -19 q 568 -22 566 -22 q 587 -18 586 -16 q 599 -14 593 -15 q 609 -7 605 -12 q 621 -3 617 -5 q 627 5 624 0 q 644 14 640 11 q 651 19 647 16 q 661 33 659 33 q 662 34 662 33 q 673 49 674 46 q 674 54 673 52 q 679 62 680 61 q 681 68 678 64 q 684 101 684 88 q 682 126 685 114 q 668 142 671 140 q 663 151 665 144 q 655 154 656 151 q 650 160 654 157 q 623 168 632 167 q 605 167 613 168 q 594 162 597 165 q 586 160 591 159 q 576 152 581 157 q 566 144 572 146 q 560 131 562 137 q 556 114 559 125 q 566 104 563 106 q 567 99 568 102 q 574 71 578 76 q 560 62 560 62 q 549 62 555 61 q 540 62 544 62 q 532 72 537 68 q 528 83 528 76 q 519 93 521 90 q 517 99 518 96 q 516 116 515 110 q 511 122 517 122 q 519 142 517 138 q 521 152 522 145 q 526 157 525 155 q 530 164 528 160 q 542 173 537 168 q 555 182 547 178 q 569 195 567 194 q 572 198 571 195 q 585 201 581 202 q 597 201 590 199 q 608 206 604 206 q 616 209 613 206 q 625 206 621 208 q 635 203 629 205 q 659 199 654 203 q 671 195 663 194 q 680 186 677 191 q 690 178 684 180 q 701 165 699 165 q 704 164 703 165 q 719 141 716 146 q 719 124 718 126 q 720 119 720 122 q 720 105 719 107 q 720 100 720 103 q 720 88 719 91 q 722 83 722 85 q 718 73 720 77 q 719 62 716 68 q 705 41 711 47 q 703 26 700 35 q 694 18 697 22 q 688 8 690 15 q 674 -4 681 -1 q 665 -15 667 -7 q 644 -30 654 -16 q 621 -39 633 -35 q 597 -52 608 -43 q 585 -52 587 -52 q 581 -57 582 -53 q 562 -57 572 -54 q 540 -60 551 -60 q 527 -59 533 -60 q 517 -64 521 -58 q 500 -59 502 -58 q 496 -60 499 -60 q 488 -57 492 -58 q 481 -54 484 -56 q 474 -56 479 -54 q 467 -56 469 -57 q 434 -45 444 -50 q 412 -37 425 -39 q 399 -27 407 -27 q 383 -19 393 -20 q 370 -8 373 -18 q 359 -4 362 -4 q 354 -3 357 -4 q 349 5 351 1 q 340 9 347 8 q 323 28 330 22 q 309 41 317 34 q 298 52 301 50 q 293 58 294 54 q 277 71 282 68 q 269 81 271 75 q 262 86 264 83 q 254 90 260 90 q 237 110 250 104 q 227 102 228 104 q 222 99 225 100 q 205 90 209 92 q 195 90 202 88 q 179 78 184 81 q 171 72 174 75 q 163 71 167 72 q 155 69 160 71 q 136 62 138 62 l 114 62 q 96 62 98 61 q 91 64 94 64 q 79 62 84 64 q 68 60 75 61 q 60 65 62 62 q 52 69 58 68 q 26 85 30 79 q 14 94 22 91 q 7 107 8 106 q 2 119 4 118 q 0 122 0 119 q 5 139 5 137 q 7 142 5 141 l 14 163 q 31 183 24 178 q 41 192 42 191 q 42 194 41 193 q 59 203 54 201 q 71 208 64 205 q 79 211 75 210 q 88 214 83 212 q 103 218 99 218 q 113 218 107 217 q 126 220 125 221 q 130 220 127 220 q 153 217 142 220 q 175 206 167 213 q 195 197 189 197 q 210 189 201 189 q 222 180 220 182 q 229 178 224 178 q 241 168 233 171 q 255 167 251 163 q 263 174 259 171 q 281 188 277 184 q 282 197 285 191 q 296 208 290 208 q 311 229 307 221 q 326 243 316 237 q 334 260 332 254 q 339 270 335 266 q 350 286 349 282 q 351 292 351 289 q 365 318 359 311 q 377 332 370 326 q 380 347 377 346 q 384 350 382 349 q 392 372 388 368 q 400 391 397 385 q 407 399 403 396 q 419 423 411 415 q 429 442 420 434 q 434 458 434 454 q 437 464 434 461 q 448 487 445 481 q 454 498 450 492 q 446 512 448 510 q 444 515 445 514 q 435 516 441 517 q 425 517 430 515 q 406 522 410 521 q 400 522 403 522 q 382 523 384 522 q 380 524 381 524 q 370 519 373 519 q 363 517 366 519 q 339 511 343 513 q 332 502 335 509 q 320 494 326 496 q 308 495 315 491 q 298 497 300 499 q 293 498 296 495 q 294 514 294 513 q 292 514 293 515 q 298 524 294 521 q 302 533 301 526 q 324 541 317 538 q 336 551 331 544 q 357 553 351 553 q 365 556 362 553 q 384 559 382 559 q 395 560 389 560 q 403 560 401 560 q 420 555 418 555 q 426 556 423 556 q 449 547 437 553 q 471 545 467 543 q 477 560 477 559 q 479 563 477 562 q 484 573 484 571 q 484 578 483 575 q 507 621 495 609 q 513 641 511 637 q 518 647 515 644 q 520 656 521 651 q 524 663 519 661 l 528 681 q 536 692 536 689 q 538 697 536 694 q 544 718 543 711 q 547 732 545 724 q 555 740 552 735 q 560 749 557 745 q 567 762 567 760 q 570 765 567 765 q 573 777 571 773 q 578 783 575 780 q 585 798 586 796 q 585 799 583 799 q 591 806 590 803 q 594 811 593 808 q 600 825 601 823 q 600 829 600 826 q 585 836 590 836 q 572 837 579 836 q 553 836 563 836 q 529 834 537 837 q 513 836 518 837 q 505 834 509 834 q 488 836 496 834 q 469 837 479 837 q 448 838 453 837 q 435 838 442 838 q 419 840 429 841 q 401 841 410 838 q 393 840 397 841 q 384 842 388 840 q 368 844 373 834 q 348 840 351 838 q 342 841 345 841 q 330 840 335 842 q 317 837 324 837 q 306 840 307 841 q 302 838 305 838 q 285 837 288 836 q 279 837 282 838 q 272 836 275 837 q 264 834 269 836 q 253 832 258 833 q 240 831 248 831 q 222 829 225 829 q 217 829 220 830 q 209 827 213 829 q 198 826 205 825 q 180 803 179 812 q 184 783 180 793 q 191 754 186 761 q 190 745 189 750 q 187 738 191 741 q 189 712 191 720 q 184 693 186 704 l 176 677 q 171 662 170 674 q 161 648 163 651 q 157 642 159 646 q 142 635 142 635 q 109 629 119 628 q 97 633 99 629 q 88 637 95 636 q 81 646 85 643 q 77 656 77 650 q 73 673 71 673 q 73 688 73 684 q 73 699 72 693 q 78 721 79 712 q 80 736 77 730 q 83 752 84 747 q 84 760 83 757 q 90 770 87 765 q 95 779 92 774 q 103 793 102 792 q 104 798 104 795 q 115 808 115 804 q 121 811 114 812 q 122 830 125 822 q 116 838 118 837 q 114 845 114 840 q 104 856 109 850 q 94 868 99 861 q 85 869 87 867 q 79 871 83 871 q 68 871 75 872 q 56 871 62 869 q 52 878 54 875 q 49 886 49 882 q 58 902 49 897 q 81 903 69 899 q 99 902 92 906 l 117 892 q 130 882 127 884 q 136 876 133 879 q 149 864 146 865 q 155 861 152 863 q 168 852 168 854 q 171 850 167 849 q 184 855 183 853 q 189 860 186 857 q 197 860 194 859 q 208 861 201 861 q 221 863 216 861 q 233 864 227 865 q 252 867 248 867 q 258 868 255 868 l 274 872 q 294 874 289 875 q 302 876 300 873 q 323 875 312 872 q 340 875 335 876 q 349 873 345 873 q 361 873 361 873 q 363 871 361 872 q 374 872 370 871 q 381 873 378 873 l 400 871 q 415 871 408 871 q 429 871 422 872 q 438 869 434 871 q 446 868 442 868 q 460 869 458 869 q 464 868 463 868 q 473 869 469 868 q 481 869 477 869 q 501 869 495 868 q 515 868 507 869 q 527 868 526 867 q 530 869 528 869 q 568 868 555 868 q 591 868 581 868 q 606 866 598 868 q 620 865 614 864 q 629 869 625 867 q 637 873 632 872 q 657 896 652 888 q 671 906 662 903 q 684 916 677 913 q 697 926 692 920 q 706 928 704 925 q 712 933 708 932 q 726 938 724 937 q 732 939 727 939 q 753 941 747 941 q 765 943 760 940 q 784 937 783 940 q 788 935 785 935 q 805 926 804 926 q 808 921 806 925 q 809 909 808 910 q 810 906 810 909 q 806 896 810 902 q 800 887 803 890 q 786 878 788 879 q 783 875 784 878 q 768 869 776 875 q 738 859 751 864 q 730 857 734 857 q 720 854 726 857 q 701 848 703 852 q 686 848 686 846 q 684 849 685 849 q 669 846 674 845 q 662 845 665 846 q 654 838 656 842 q 647 834 652 833 q 634 809 637 818 q 623 796 631 800 q 613 780 620 785 q 604 762 610 769 q 595 743 598 754 q 585 722 587 730 q 581 708 583 715 q 577 698 578 703 q 572 690 576 693 q 567 674 567 677 q 564 671 567 671 q 555 648 562 656 q 547 625 548 640 l 540 609 q 534 600 534 602 q 530 595 533 598 q 524 576 526 583 q 518 563 522 570 q 511 541 514 548 q 507 524 507 533 m 745 910 q 730 903 731 905 q 718 902 723 906 q 705 898 712 898 q 693 884 694 883 q 692 882 692 884 q 708 880 704 880 q 716 882 712 882 q 726 883 720 882 q 743 889 741 887 q 750 888 746 891 q 762 897 760 895 q 768 902 765 899 q 757 910 762 910 q 745 910 751 910 m 134 780 q 129 768 132 774 q 121 758 126 762 q 120 749 122 751 q 115 743 118 747 q 114 726 115 728 q 113 722 113 724 l 111 704 q 114 669 109 682 q 130 662 119 656 q 134 673 132 669 q 140 684 137 678 q 142 694 140 690 q 146 701 144 697 q 146 709 144 705 q 149 719 149 713 q 150 731 151 726 q 149 739 149 736 q 148 764 149 758 q 144 780 146 770 l 134 780 m 203 125 q 210 137 213 130 q 194 146 206 144 q 182 157 186 153 q 167 168 171 164 q 151 173 153 174 q 146 172 149 172 q 124 180 130 176 q 111 179 118 183 q 96 179 99 180 q 90 176 94 178 q 71 170 73 172 q 64 167 68 168 q 56 154 57 155 q 53 152 56 153 q 46 137 49 140 q 43 127 43 134 q 49 122 46 125 q 52 114 52 119 q 66 107 61 111 q 76 102 71 103 q 97 100 85 99 q 118 99 109 102 q 130 99 129 98 q 133 100 130 100 q 149 102 148 102 q 153 104 151 103 q 170 111 164 109 q 183 115 176 114 q 197 122 193 121 q 203 125 201 123 m 435 987 q 425 976 429 977 q 422 972 422 975 q 406 977 406 974 q 388 995 392 986 q 380 1010 384 1004 q 372 1021 374 1019 q 368 1027 370 1024 q 353 1044 357 1035 q 339 1053 342 1050 q 334 1058 336 1055 q 317 1065 319 1063 q 312 1065 316 1066 q 305 1072 309 1069 q 298 1077 301 1074 q 299 1097 296 1089 q 307 1111 302 1104 q 317 1112 312 1109 q 330 1112 323 1115 q 340 1105 338 1105 q 340 1100 342 1105 q 350 1088 347 1092 q 355 1078 353 1085 q 363 1072 359 1076 q 373 1066 368 1069 q 396 1045 389 1055 q 416 1031 403 1035 q 429 1044 429 1042 q 434 1046 430 1047 q 440 1053 437 1051 q 445 1062 444 1055 q 455 1071 453 1065 q 464 1080 457 1077 q 477 1099 468 1093 q 499 1107 487 1104 q 510 1098 510 1097 q 511 1097 510 1099 q 516 1081 518 1081 q 513 1078 514 1081 q 511 1071 513 1073 q 507 1063 509 1069 l 491 1055 q 478 1049 480 1051 q 477 1042 476 1047 q 461 1028 464 1031 q 456 1020 458 1025 q 445 1004 446 1006 q 441 998 444 1002 l 435 987 z "},"ž":{"ha":507,"x_min":4,"x_max":514,"o":"m 205 90 q 211 81 206 83 q 220 77 216 80 q 232 72 231 72 q 236 71 233 72 q 250 65 248 66 q 254 64 251 64 q 264 60 260 61 q 271 56 269 58 q 287 52 285 53 q 292 50 289 52 q 309 46 304 49 q 321 44 315 46 q 331 46 328 42 q 352 47 347 46 q 358 46 357 49 q 368 50 362 49 q 381 56 374 52 q 392 68 391 66 q 401 86 395 73 q 408 104 408 99 q 404 115 408 111 q 400 125 400 118 q 385 142 389 136 q 376 146 381 144 q 369 151 372 148 q 354 146 365 149 q 350 139 351 144 q 345 132 349 134 q 336 113 339 118 q 328 106 334 109 q 312 109 315 106 q 304 110 309 111 q 302 123 302 117 q 301 134 302 129 q 306 144 304 140 q 309 155 308 148 q 316 159 313 156 q 321 167 319 163 q 330 173 327 170 q 340 179 334 176 q 354 183 351 180 q 363 187 357 186 q 377 180 370 184 q 387 181 382 183 q 396 179 391 179 q 414 167 406 172 q 423 153 420 156 q 434 138 433 141 q 438 132 435 134 q 441 122 441 125 q 445 111 442 119 q 445 99 446 104 q 444 84 444 94 q 430 61 437 71 q 418 42 423 52 q 407 35 411 39 q 399 24 403 31 q 378 16 384 18 q 368 11 372 14 q 345 7 355 12 q 323 9 335 12 q 305 11 312 7 q 278 15 289 12 q 267 20 267 19 q 264 22 266 22 q 243 24 248 24 q 231 27 237 24 q 221 36 221 35 q 220 38 221 37 q 199 45 202 42 q 163 39 175 54 q 140 20 149 26 q 125 5 132 15 q 117 4 121 7 q 109 0 113 1 q 91 -2 92 -3 q 88 -1 90 -1 q 73 -3 79 -1 q 61 -3 68 -4 q 51 1 54 -1 q 41 5 47 3 q 22 16 24 14 q 16 19 20 19 q 12 36 20 30 q 8 54 4 42 q 12 75 12 66 q 12 94 11 83 q 26 106 18 102 q 38 119 35 110 q 56 123 52 119 q 64 126 61 126 q 83 126 80 125 q 93 126 91 130 q 98 123 95 122 q 117 125 107 129 q 136 123 126 121 q 142 120 138 121 q 149 117 146 119 q 164 107 164 107 q 177 113 174 104 q 186 125 180 121 q 199 149 195 138 q 212 167 202 160 q 221 188 220 183 q 225 195 222 193 q 237 212 233 208 q 240 224 240 217 q 250 233 247 227 q 255 247 252 240 q 273 266 269 262 q 278 277 277 270 q 287 288 285 285 q 292 293 289 290 q 302 308 298 308 q 309 321 309 317 q 312 323 309 324 q 318 337 316 335 q 321 342 320 339 q 313 347 317 345 q 304 350 309 350 l 282 351 q 266 357 271 358 q 256 362 260 357 q 236 368 240 366 q 220 377 220 370 q 200 382 203 382 q 194 385 197 382 q 174 389 179 389 q 163 391 168 389 q 146 391 148 391 q 137 391 144 392 q 122 389 130 389 q 107 378 114 388 q 94 376 98 381 q 88 363 91 370 q 86 356 85 361 q 84 349 87 351 q 90 335 91 336 q 92 331 90 334 q 111 333 109 334 q 117 334 114 332 q 133 338 125 339 q 140 332 138 336 q 146 327 142 328 q 146 305 151 311 q 127 293 130 296 q 122 289 125 290 l 107 286 q 89 286 94 283 q 77 288 84 289 q 68 296 72 292 q 57 304 64 301 q 47 326 56 315 q 47 336 50 331 q 45 350 43 342 q 46 360 45 354 q 45 370 47 366 q 50 378 46 376 q 56 384 53 381 q 73 406 65 396 q 92 411 90 410 q 98 414 95 412 q 109 417 107 416 q 118 419 111 418 q 140 425 134 425 q 155 425 146 427 q 172 425 164 422 q 189 419 186 422 q 199 418 193 416 q 225 404 221 411 q 233 405 229 407 q 240 401 237 403 q 248 398 244 399 q 255 395 252 397 q 287 386 274 393 q 316 377 300 378 q 326 376 321 374 q 335 377 330 378 q 353 375 351 372 q 358 380 354 378 q 376 399 365 391 q 396 415 387 407 q 408 418 407 416 q 412 422 410 420 q 428 426 426 425 q 433 427 430 427 q 469 426 461 431 q 488 428 479 431 q 505 420 496 425 q 514 404 509 410 q 510 379 513 385 q 505 366 507 373 q 497 360 500 363 q 487 354 494 357 q 481 351 484 351 q 472 349 477 351 q 460 342 461 342 q 457 342 460 343 q 444 338 449 338 q 437 335 439 339 q 427 336 430 335 q 420 334 423 336 q 394 336 407 336 q 366 336 381 335 q 340 293 346 319 q 324 275 331 289 q 316 264 320 269 q 311 254 312 260 q 301 244 304 251 q 292 235 298 237 q 286 220 292 224 q 279 206 279 217 q 265 189 269 201 q 251 171 262 176 q 250 163 252 165 q 247 156 247 161 q 239 145 240 153 q 233 132 237 137 q 227 123 227 126 q 225 118 227 121 q 214 104 217 110 q 210 97 212 102 q 205 90 208 92 m 465 400 q 430 396 449 396 q 424 390 427 392 q 418 384 420 388 q 401 371 406 373 q 396 363 397 369 q 408 363 406 363 q 412 362 410 362 q 427 366 423 365 q 431 366 430 366 q 453 371 449 370 q 460 377 457 372 q 476 389 477 387 q 465 400 475 399 m 129 77 q 118 87 122 84 q 109 91 114 91 q 96 90 96 91 q 94 90 95 90 q 83 92 85 92 q 79 91 81 91 q 67 92 72 91 q 58 91 62 94 q 51 84 53 90 q 45 77 49 79 q 43 63 46 69 q 43 50 41 57 q 52 39 50 39 q 54 35 54 38 q 80 30 72 27 q 96 31 88 33 q 103 37 99 34 q 114 41 107 41 q 132 58 126 53 q 141 69 138 62 l 129 77 m 312 503 q 302 492 305 492 q 298 488 298 491 q 282 492 282 490 q 264 511 269 502 q 256 526 260 519 q 249 537 251 534 q 244 543 247 540 q 229 560 233 551 q 216 568 218 566 q 210 574 213 571 q 194 581 195 579 q 189 581 193 582 q 182 587 186 585 q 175 593 178 590 q 176 612 172 605 q 183 627 179 620 q 194 628 189 625 q 206 628 199 631 q 216 621 214 621 q 217 616 218 621 q 227 604 224 608 q 232 594 229 601 q 240 588 236 591 q 250 582 244 585 q 273 561 266 571 q 293 547 279 551 q 306 560 305 557 q 311 562 307 563 q 317 569 313 567 q 321 578 320 571 q 332 587 330 581 q 340 595 334 593 q 354 614 345 609 q 376 623 363 620 q 387 614 387 613 q 388 613 387 614 q 393 597 395 597 q 389 594 391 597 q 387 587 389 589 q 384 579 385 585 l 368 571 q 355 565 357 567 q 354 557 353 563 q 338 544 340 547 q 332 536 335 541 q 321 520 323 522 q 317 514 320 518 l 312 503 z "},"½":{"ha":397,"x_min":41,"x_max":433,"o":"m 98 521 q 95 498 94 507 q 94 477 96 488 l 98 461 q 100 439 99 446 q 96 430 102 433 q 96 412 98 416 q 95 404 95 408 q 95 391 96 392 q 94 388 94 391 q 94 375 95 381 q 95 363 94 369 q 91 351 90 353 q 91 346 92 350 q 85 340 88 343 q 81 332 83 338 q 71 328 76 330 q 60 324 65 327 q 51 330 53 326 q 45 338 49 335 q 52 355 49 346 q 57 378 56 365 q 60 399 60 396 q 60 414 58 411 q 60 419 61 416 q 58 439 58 434 q 57 452 57 445 q 58 471 60 463 q 56 494 56 488 q 58 502 56 499 q 54 519 54 509 q 54 537 54 530 q 50 550 49 549 q 50 553 50 551 q 60 568 60 567 q 81 572 76 575 q 94 567 87 570 q 96 550 96 552 q 95 545 95 548 q 96 526 98 529 q 98 521 95 524 m 263 494 q 242 462 250 472 q 229 437 235 452 q 213 418 221 423 q 207 399 212 407 q 195 385 202 392 q 189 368 194 373 q 183 355 187 359 q 178 343 179 351 q 167 329 170 331 q 161 324 164 327 q 157 310 161 313 q 152 297 152 307 q 145 292 145 296 q 138 286 145 288 q 129 270 138 274 q 125 257 130 260 q 121 245 121 254 q 115 239 117 243 q 109 233 113 236 q 104 214 104 224 q 99 198 99 209 q 93 189 95 194 q 88 179 91 183 q 85 163 88 168 q 66 146 73 152 q 52 144 58 141 q 43 166 41 161 q 42 176 45 171 q 52 181 49 178 q 58 187 54 184 q 65 205 65 199 q 71 212 65 210 q 77 227 69 218 q 94 252 81 248 q 97 264 92 262 q 100 275 102 267 q 110 297 110 285 q 127 317 119 312 q 137 335 133 332 q 142 347 141 346 q 146 350 144 347 q 156 368 152 358 q 167 388 160 377 q 172 401 172 397 q 175 407 172 404 q 180 413 178 411 q 183 420 182 415 q 185 431 184 427 q 189 437 186 434 q 198 449 198 449 q 205 463 203 457 q 210 470 208 467 q 213 477 212 473 q 230 506 224 498 q 239 529 236 514 q 253 536 245 532 q 269 538 260 541 q 272 511 279 518 q 263 494 264 505 m 304 320 q 305 308 302 313 q 309 296 308 302 q 314 281 315 282 q 315 277 313 281 q 319 266 320 267 q 320 262 317 264 q 323 245 324 251 q 327 235 321 239 q 326 211 324 224 q 320 190 327 198 q 319 176 321 182 q 316 164 316 171 q 304 125 311 137 q 296 98 297 114 q 294 81 290 81 q 301 77 297 80 q 317 74 311 73 q 327 71 323 75 q 339 72 332 73 q 353 73 346 71 q 384 91 376 83 q 393 105 395 103 q 395 107 392 107 q 378 119 382 115 q 374 129 373 122 l 384 141 q 401 151 397 149 q 411 151 406 152 q 418 144 418 148 q 426 137 419 140 q 429 128 429 133 q 431 122 429 123 q 430 108 433 113 q 427 95 427 103 q 417 83 422 90 q 407 69 412 76 q 397 64 397 66 q 393 58 396 61 q 374 47 378 49 q 370 41 370 45 q 353 37 359 39 q 340 34 347 35 q 328 34 334 33 q 315 33 321 35 q 303 37 308 37 q 289 37 298 37 q 274 43 278 41 q 266 49 270 46 q 244 39 250 45 q 223 33 229 34 q 213 27 217 31 q 202 28 203 26 q 198 30 201 30 q 191 28 195 30 q 183 27 187 27 q 173 28 180 27 q 163 30 165 30 q 140 41 145 39 q 130 46 134 42 q 123 59 121 58 q 125 61 125 60 q 125 85 123 77 q 126 99 126 92 q 140 111 138 109 q 146 114 142 113 q 162 120 161 118 q 165 119 163 122 q 190 125 180 122 q 210 122 205 125 q 222 117 216 119 q 241 111 239 110 q 247 109 244 111 q 264 117 260 109 q 271 136 269 125 q 275 151 277 151 q 274 153 274 151 q 279 170 279 163 q 285 180 279 176 q 283 199 282 189 q 285 224 283 210 q 285 236 286 235 q 282 240 283 237 q 279 254 281 252 q 281 256 278 255 q 276 268 277 263 q 271 278 275 273 q 271 292 273 293 q 266 293 269 292 q 241 297 245 298 q 229 278 231 285 q 224 264 227 273 q 222 248 222 256 q 224 235 225 237 q 225 232 222 233 q 218 222 220 222 q 214 218 216 221 q 208 218 210 220 q 199 217 205 216 q 187 231 191 225 q 187 250 186 239 q 187 269 189 260 q 193 284 191 281 q 197 292 195 288 q 199 308 201 302 q 214 314 213 313 q 216 317 214 315 q 227 328 220 324 q 237 333 233 335 q 244 331 241 331 q 255 333 254 334 q 259 332 256 332 q 275 331 270 334 q 294 323 290 327 q 304 320 297 320 m 193 81 q 172 84 175 83 q 164 83 168 85 q 162 68 157 71 q 172 65 167 66 q 194 61 183 61 q 205 64 202 64 q 210 65 209 65 q 223 66 221 64 q 227 69 225 68 q 210 76 213 76 q 198 83 201 83 q 193 81 195 83 z "},"¼":{"ha":423,"x_min":42,"x_max":410,"o":"m 88 581 q 94 574 91 576 q 99 568 96 571 q 99 549 98 556 q 100 534 100 541 q 102 519 102 524 q 102 509 102 514 q 104 494 102 505 q 106 478 104 480 q 107 473 107 476 q 107 462 106 464 q 109 457 109 460 q 106 441 109 449 q 109 420 104 433 q 106 405 102 414 q 109 389 111 396 q 106 374 106 377 q 104 369 107 372 q 91 367 96 369 q 76 363 85 365 q 66 372 73 370 q 57 380 60 373 q 64 395 61 392 q 68 401 68 399 q 69 422 71 415 q 68 454 68 445 q 65 471 69 464 q 65 483 65 479 q 62 490 65 487 q 62 517 66 505 q 60 544 57 530 q 53 555 57 551 q 50 571 49 560 q 58 574 54 572 q 64 579 61 576 q 75 579 71 576 q 88 581 79 582 m 332 551 q 326 539 328 545 q 316 530 323 533 q 308 514 308 518 q 298 504 300 506 q 297 498 297 502 q 292 492 294 495 q 289 483 289 488 q 281 474 282 480 q 273 465 279 468 q 267 454 270 458 q 262 444 264 450 q 250 429 251 433 q 250 422 250 426 q 236 408 241 415 q 222 393 231 400 q 216 374 218 384 q 203 362 205 363 q 198 359 202 361 q 193 349 197 353 q 186 339 189 345 q 180 330 183 334 q 174 320 176 326 q 162 307 164 311 q 159 301 160 304 q 149 290 151 293 q 140 283 146 286 q 132 272 133 271 q 129 271 130 273 q 123 264 126 269 q 117 255 119 260 q 99 240 106 244 q 91 225 92 236 q 68 219 73 221 q 60 218 64 217 q 51 227 53 221 q 42 236 49 233 q 47 241 45 239 q 53 248 50 243 q 61 256 58 255 q 61 262 64 256 q 74 264 68 259 q 83 275 80 270 q 97 283 95 281 q 100 290 99 286 q 116 304 109 297 q 127 324 123 312 q 142 339 136 335 q 151 351 149 343 q 173 377 165 361 q 195 403 180 393 q 205 422 201 415 q 216 435 209 430 q 220 445 217 442 q 224 453 222 448 q 236 469 233 467 q 239 476 239 471 q 246 488 247 486 q 248 496 245 491 q 267 517 260 513 q 272 528 273 526 q 274 532 271 529 q 285 548 282 543 q 290 557 288 553 q 303 568 298 567 q 313 570 308 570 q 330 559 330 564 q 332 551 331 555 m 239 191 q 254 194 252 194 q 270 196 269 197 q 274 195 271 195 q 289 197 289 199 q 292 194 289 194 q 300 197 297 195 q 308 199 304 198 q 307 214 307 208 q 311 227 307 220 q 310 241 309 235 q 308 256 311 248 q 309 275 307 269 q 313 292 308 288 q 328 300 323 301 q 338 301 334 298 q 348 283 349 288 q 347 274 347 279 q 347 258 349 260 q 346 254 346 256 q 347 241 346 243 q 347 239 347 240 q 346 222 346 227 q 343 212 346 218 q 352 202 347 201 q 359 206 357 203 q 395 206 377 205 q 406 193 406 197 q 410 187 407 190 q 399 168 401 172 q 392 163 396 164 q 372 164 387 160 l 346 168 q 342 152 342 165 q 342 141 343 145 q 345 134 342 137 q 342 111 342 122 q 342 89 342 100 q 343 67 342 77 q 347 49 345 57 q 341 34 342 35 q 338 35 340 33 q 327 23 328 23 q 307 22 311 20 q 298 26 304 24 q 295 41 294 41 q 296 43 296 42 q 297 57 296 54 q 298 62 298 60 q 302 84 298 79 q 303 95 302 91 q 301 104 304 99 q 301 132 307 118 q 302 151 302 145 q 301 163 302 156 q 286 163 294 163 q 270 161 278 163 q 241 159 247 157 q 221 149 225 156 q 206 144 206 144 q 189 138 190 140 q 182 137 187 137 q 165 130 165 130 q 147 130 149 130 q 141 133 145 130 q 146 159 136 155 q 163 171 156 163 q 178 178 175 171 q 191 188 187 180 q 203 198 194 195 q 212 212 208 208 q 224 233 220 229 q 227 248 225 247 q 231 251 229 248 q 236 263 233 260 q 236 266 239 266 q 241 277 241 274 q 241 282 240 279 q 245 295 247 294 q 245 297 244 296 q 249 308 248 305 q 251 316 250 311 q 257 339 254 328 q 258 359 260 350 q 276 369 270 365 q 288 370 282 373 q 300 351 300 366 q 296 331 298 335 q 292 319 293 323 q 289 312 290 316 l 286 297 q 281 282 282 286 q 277 275 279 278 q 276 268 279 271 q 275 258 273 264 q 271 252 273 255 q 264 247 269 248 q 258 228 262 231 q 254 222 255 225 l 248 206 q 239 193 237 194 q 239 191 240 191 z "},"¹":{"ha":137,"x_min":41,"x_max":103,"o":"m 79 568 q 91 556 80 562 q 91 536 90 543 q 92 522 92 529 q 94 507 94 511 q 94 496 94 502 q 96 480 94 491 q 98 466 96 468 q 99 461 99 464 q 99 449 98 450 q 100 445 100 448 q 98 427 100 435 q 100 408 96 419 q 98 392 94 401 q 100 374 103 382 q 98 361 98 363 q 96 357 99 359 q 81 355 87 357 q 68 351 76 353 q 58 359 65 358 q 49 366 52 359 q 56 383 53 380 q 60 389 60 387 q 61 410 62 403 q 60 442 60 433 q 57 458 61 452 q 57 471 57 467 q 54 477 57 475 q 54 505 58 492 q 52 530 49 518 q 45 543 49 537 q 42 559 41 548 q 50 562 46 560 q 56 567 53 564 q 66 567 62 564 q 79 568 71 570 z "},"¾":{"ha":442,"x_min":35,"x_max":449,"o":"m 308 526 q 327 530 315 530 q 343 522 339 529 q 338 504 340 513 q 330 488 336 495 q 321 465 324 473 q 312 449 319 456 q 307 431 309 437 q 308 422 305 426 q 296 398 300 403 q 293 387 293 393 q 286 372 288 374 q 285 368 285 370 q 277 359 279 365 q 271 350 275 353 q 269 337 270 340 q 264 332 269 334 q 259 320 263 326 q 255 307 255 315 q 242 290 244 293 q 241 283 240 288 q 233 272 235 273 q 233 267 232 271 q 224 257 228 263 q 214 247 221 251 q 208 222 209 228 q 198 210 198 218 q 190 199 198 202 q 183 181 183 186 q 182 171 183 176 q 174 161 175 168 q 168 152 172 155 q 155 151 161 149 q 137 155 148 153 q 125 178 132 172 q 151 197 141 193 q 161 216 160 202 l 172 227 q 177 241 178 239 q 178 245 176 243 q 183 251 182 247 q 189 256 184 255 q 197 278 194 267 q 208 295 206 290 q 212 305 209 300 q 220 327 220 321 q 231 340 228 340 q 235 349 233 345 q 239 355 236 353 q 242 367 240 366 q 245 370 244 368 q 250 385 245 380 q 258 393 254 389 q 266 418 263 412 q 271 431 269 425 q 277 456 273 449 q 285 476 285 471 q 294 494 293 491 q 297 498 296 496 q 307 515 298 510 l 308 526 m 343 338 q 342 328 340 331 q 346 317 343 324 q 332 296 336 309 q 326 267 328 282 q 316 245 321 252 q 313 229 311 239 q 307 218 308 225 q 302 206 307 210 q 299 193 300 194 q 296 190 298 191 q 285 171 294 180 q 298 171 292 168 q 309 176 304 174 q 324 176 317 174 q 336 182 331 179 q 337 191 336 189 q 335 198 338 194 q 340 213 338 205 q 339 228 342 221 q 342 235 342 231 q 342 243 342 240 q 347 264 347 258 q 349 274 346 271 q 357 280 351 278 q 366 285 362 282 q 381 280 380 278 q 385 279 382 282 q 389 259 388 267 q 382 239 385 244 q 378 231 380 235 q 379 223 381 227 q 374 216 377 220 q 376 207 374 212 q 373 195 378 202 q 393 193 387 189 q 410 198 400 197 q 424 197 419 195 q 430 199 429 199 q 441 192 439 197 q 449 180 444 187 q 442 163 445 167 q 433 157 439 160 q 417 158 418 159 q 414 157 416 157 q 389 159 396 161 q 373 155 382 157 q 372 119 370 136 q 370 85 373 102 q 372 70 373 75 q 369 60 370 65 q 365 26 368 43 q 347 19 358 19 q 327 22 335 19 q 325 36 324 28 q 321 46 326 43 q 330 60 323 53 q 329 69 327 66 q 334 75 331 72 q 332 88 331 87 q 335 92 334 90 q 336 106 338 99 q 336 123 335 113 q 336 142 335 138 q 334 148 336 145 q 326 143 331 142 q 311 142 320 144 q 281 130 290 133 q 263 122 271 126 q 253 115 254 114 q 250 114 252 117 q 241 107 243 110 q 236 102 239 104 q 222 96 225 95 q 217 95 220 96 q 204 96 206 94 q 195 100 202 98 q 195 109 197 106 q 194 115 193 113 q 203 125 199 125 q 208 130 206 126 q 228 151 224 140 q 235 157 233 152 q 243 163 236 161 l 251 178 q 260 189 259 187 q 264 191 262 191 q 271 210 267 208 q 275 224 275 222 q 277 227 274 227 q 288 262 278 247 q 290 273 289 267 q 292 282 290 278 q 296 300 297 294 q 297 312 296 305 q 305 330 301 326 q 323 340 317 340 q 334 341 328 339 q 343 338 339 343 m 178 471 q 189 463 184 468 q 198 453 194 458 q 214 435 212 441 q 218 427 216 430 q 219 418 216 422 q 222 410 222 414 q 222 380 228 395 q 212 363 214 363 q 205 350 206 351 q 193 335 197 338 q 187 327 189 332 q 176 323 180 326 q 165 320 172 320 q 140 308 149 312 q 119 302 130 304 q 106 302 113 301 q 94 304 100 302 q 87 309 91 307 q 79 309 84 311 q 64 321 66 320 q 60 323 62 323 q 54 332 60 330 q 45 339 47 335 q 43 347 42 343 q 42 357 43 351 q 51 363 45 361 q 58 373 57 366 q 68 378 64 376 q 76 382 73 380 q 83 379 80 381 q 90 374 85 377 q 90 357 92 358 q 88 355 88 357 q 93 347 90 350 q 99 340 96 343 q 127 339 118 340 q 135 343 132 340 q 141 347 138 346 q 150 350 146 350 q 156 353 153 350 q 161 358 159 355 q 170 363 164 361 q 178 378 178 373 q 182 384 178 382 q 180 401 179 393 q 178 416 180 410 q 173 423 175 419 q 168 430 171 427 q 159 435 161 431 q 155 438 157 438 q 143 435 148 437 q 132 435 138 433 q 121 431 125 433 q 115 427 118 429 q 106 427 111 430 q 98 426 102 425 q 90 434 94 429 q 83 444 87 439 q 91 458 87 457 q 95 463 95 458 q 109 469 102 463 q 137 484 132 479 q 146 496 144 494 q 152 502 149 499 q 156 529 152 513 q 142 541 144 538 q 137 545 140 543 q 126 543 127 543 q 122 544 125 544 q 106 538 109 541 q 95 528 95 534 q 85 517 88 521 q 85 513 83 514 q 79 500 81 503 q 79 495 77 498 q 80 475 80 480 q 69 473 73 476 q 60 468 65 469 q 35 481 41 479 q 43 502 37 494 q 45 522 49 510 q 51 531 47 526 q 54 543 54 536 q 68 554 62 547 q 81 564 73 562 q 102 575 98 575 q 110 581 106 575 q 126 579 118 579 q 140 582 134 579 q 156 574 152 578 q 174 564 171 567 q 183 559 178 562 q 185 551 184 555 q 190 545 186 547 q 195 530 193 534 q 195 522 194 525 q 194 511 195 518 q 188 494 189 499 q 186 484 187 488 q 178 471 178 483 z "},"³":{"ha":279,"x_min":42,"x_max":235,"o":"m 184 480 q 196 473 191 477 q 206 463 201 468 q 220 446 218 450 q 225 437 222 441 q 226 427 222 431 q 229 419 229 423 q 229 389 235 404 q 218 373 221 373 l 209 357 q 200 344 205 346 q 194 336 195 342 q 183 332 187 335 q 172 330 179 330 q 146 318 156 323 q 126 312 137 313 q 113 311 119 311 q 100 313 107 312 q 95 318 98 316 q 85 320 92 320 q 71 331 73 330 q 66 332 69 332 q 60 341 66 339 q 52 349 54 343 q 50 356 49 353 q 49 365 50 359 q 58 373 52 370 q 65 384 64 376 q 83 392 77 387 q 91 389 88 391 q 96 385 94 388 q 96 376 96 380 q 99 369 96 372 q 100 356 96 359 q 106 350 103 353 q 134 349 125 350 q 142 353 138 350 q 149 357 145 355 q 168 367 165 363 q 176 373 171 370 q 184 388 184 384 q 189 393 184 392 q 186 411 186 403 q 184 426 187 419 q 180 433 182 429 q 175 439 178 437 q 166 444 168 442 q 161 446 164 446 q 151 444 155 446 q 138 444 146 442 q 128 441 132 442 q 122 437 125 439 q 113 437 118 439 q 104 435 109 435 q 91 453 96 442 q 98 467 95 467 q 102 472 102 468 q 115 479 109 472 q 136 486 132 483 q 144 495 140 490 q 154 505 152 503 q 159 510 156 507 q 163 538 159 522 q 149 551 152 549 q 144 556 146 553 q 133 554 134 553 q 129 555 132 555 q 113 548 114 552 q 102 537 102 544 q 93 527 95 530 q 94 521 91 524 q 87 510 90 513 q 85 505 84 507 q 88 484 88 490 q 77 482 81 486 q 66 477 72 479 q 42 491 47 488 q 50 511 43 503 q 52 532 56 519 q 58 541 54 536 q 61 553 61 545 q 75 564 69 557 q 90 574 80 571 q 109 585 104 585 q 117 589 113 585 q 133 588 125 587 q 148 590 141 589 q 163 583 161 583 q 181 574 178 576 q 190 568 184 571 q 199 547 198 552 q 203 540 201 543 q 202 530 201 534 q 201 519 203 526 q 195 503 195 507 q 193 495 194 499 q 184 480 184 490 z "},"²":{"ha":381,"x_min":35,"x_max":347,"o":"m 217 587 q 220 577 217 582 q 224 564 222 572 q 228 549 228 549 q 233 530 233 530 q 236 514 237 521 q 240 503 235 507 q 239 479 237 491 q 233 460 240 467 q 232 446 233 452 q 231 431 231 439 q 218 393 225 404 q 209 365 212 382 q 208 349 203 350 q 214 346 212 349 q 229 344 224 343 q 240 339 235 345 q 252 341 245 342 q 267 342 259 340 q 287 351 282 349 q 297 358 292 354 q 306 372 307 370 q 308 377 305 374 q 292 388 296 385 q 288 397 288 391 q 293 408 292 408 q 297 410 294 408 q 315 418 311 416 q 326 418 319 419 q 333 412 332 416 q 340 406 334 408 q 343 397 343 403 q 346 391 343 392 q 345 376 347 381 q 342 362 342 370 q 332 351 336 357 q 321 338 327 345 q 310 332 311 335 q 307 327 309 330 q 298 324 301 326 q 293 320 296 323 q 278 311 282 308 q 254 302 267 304 q 241 302 247 301 q 229 301 235 302 q 218 304 222 304 q 203 305 213 304 q 179 316 189 309 q 163 311 165 312 q 159 308 161 309 q 126 296 132 300 q 106 297 110 298 q 98 296 102 296 q 87 296 95 296 q 76 297 79 297 q 68 301 72 298 q 61 302 65 304 q 54 309 58 308 q 45 313 49 311 q 37 328 35 328 q 39 330 39 328 q 39 353 38 346 q 41 366 39 359 q 58 384 56 381 q 75 389 73 387 q 79 389 76 391 q 104 393 95 391 q 123 391 118 393 q 134 387 129 388 q 146 382 145 384 q 151 381 148 381 q 165 374 164 376 q 168 369 165 372 q 178 385 175 377 q 184 404 182 393 q 189 418 190 418 q 187 420 187 418 q 193 437 193 430 q 198 449 193 445 q 196 468 195 458 q 198 491 197 477 q 198 505 199 503 q 195 509 197 506 q 193 522 194 521 q 194 525 191 524 q 189 536 190 532 q 184 545 189 540 q 184 561 186 562 q 179 562 182 560 q 161 568 164 568 q 156 566 159 567 q 141 545 144 552 q 137 532 140 540 q 134 517 134 525 q 137 504 138 506 q 137 500 136 502 q 131 489 133 490 q 127 486 129 488 q 108 492 111 487 q 102 499 104 496 q 102 518 100 507 q 102 537 103 529 q 106 553 104 549 q 111 560 109 556 q 114 576 115 571 q 127 583 126 582 q 129 586 127 583 q 141 598 141 597 q 142 600 141 600 q 151 600 146 602 q 159 598 156 598 q 170 601 168 602 q 174 600 171 600 q 189 598 183 601 q 208 592 205 595 q 217 587 212 589 m 107 350 q 77 351 81 354 q 75 338 69 339 q 85 334 80 336 q 97 332 92 335 q 109 330 102 330 q 119 333 115 332 q 123 334 122 334 q 136 335 133 334 q 138 338 138 336 q 123 345 126 345 q 112 351 114 351 q 107 350 110 351 z "},"¦":{"ha":193,"x_min":35,"x_max":130,"o":"m 88 465 q 87 476 85 475 q 88 480 88 477 q 86 493 88 483 q 83 506 84 503 q 80 531 83 522 q 77 543 77 540 q 75 564 76 555 q 69 578 73 572 q 68 593 71 593 q 65 597 66 594 q 64 618 64 608 q 60 635 64 628 q 59 659 62 648 q 53 680 56 669 q 47 696 49 694 q 46 701 46 699 q 35 722 35 708 q 41 730 38 728 q 45 739 45 732 q 59 747 58 746 q 60 750 60 747 q 68 748 65 750 q 76 746 72 746 q 80 721 77 728 q 83 707 83 713 q 88 699 87 704 q 92 692 90 694 q 93 683 91 686 q 92 677 95 680 q 95 655 96 656 q 100 635 100 637 q 96 631 100 632 q 101 622 99 627 q 109 614 103 617 q 108 602 107 608 q 110 591 109 597 q 111 579 113 579 q 111 575 110 579 q 114 557 114 562 q 118 548 114 552 q 117 535 115 543 q 122 522 119 528 q 123 514 122 519 q 126 506 123 509 q 127 497 127 503 q 127 484 127 491 q 127 469 127 476 q 130 461 127 463 q 129 452 127 461 q 129 442 130 442 q 123 431 127 431 q 115 423 118 430 q 100 428 104 419 q 90 444 95 437 q 89 454 90 446 q 88 465 88 463 m 123 244 q 125 227 126 235 q 126 210 123 220 q 123 203 123 208 q 122 193 122 198 q 120 179 119 179 q 121 176 121 179 q 118 170 119 174 q 117 161 117 165 q 117 151 118 153 q 115 146 115 149 q 116 134 117 138 q 117 126 115 130 q 109 104 110 115 q 108 98 107 102 q 107 90 109 94 q 101 58 104 73 q 95 24 98 42 q 90 -1 92 8 q 85 -19 88 -11 q 83 -41 85 -37 q 80 -50 81 -45 q 68 -60 73 -58 q 61 -68 62 -61 q 45 -65 50 -72 q 35 -52 41 -58 q 37 -35 37 -41 q 43 -22 37 -28 q 43 -13 42 -15 q 42 -7 43 -11 q 49 3 49 -5 q 53 16 49 11 q 55 24 54 19 q 57 34 56 28 q 60 50 61 49 q 61 57 60 52 q 64 73 61 64 q 69 91 66 81 l 69 106 q 73 125 71 114 q 75 144 75 136 q 76 159 75 156 q 79 164 77 161 q 78 172 79 168 q 77 179 77 176 q 81 188 79 184 q 80 195 83 191 q 83 227 83 216 q 85 250 84 239 q 87 271 85 267 q 91 281 90 274 q 104 292 104 288 q 113 290 110 292 q 121 288 117 288 q 124 276 123 283 q 127 266 125 269 q 126 255 129 263 q 123 244 123 247 z "},"−":{"ha":534,"x_min":42,"x_max":484,"o":"m 252 305 q 266 307 254 302 q 277 305 278 311 q 296 305 293 305 q 301 304 298 305 q 317 305 309 307 q 334 307 326 304 q 349 304 346 305 q 355 302 353 302 q 370 302 369 304 q 374 298 372 301 q 387 299 380 301 q 397 294 393 297 q 414 295 412 296 q 420 292 416 294 q 429 293 425 294 q 439 290 433 292 q 456 288 453 289 q 463 285 460 286 q 476 283 473 285 q 481 279 479 281 q 482 271 480 274 q 483 263 484 269 q 471 236 477 240 q 448 239 454 236 q 435 240 442 241 q 411 255 422 251 q 363 263 387 263 q 342 266 345 269 q 328 269 330 267 q 323 270 326 270 q 307 273 312 273 q 292 271 296 270 q 288 271 289 273 q 273 267 275 269 l 255 266 q 242 265 252 267 q 229 266 232 263 q 214 265 217 264 q 208 264 212 266 q 193 259 193 259 q 179 258 180 256 q 175 258 178 259 q 159 255 163 255 q 144 250 146 250 q 142 247 141 250 q 119 245 123 248 q 109 244 115 243 q 87 239 94 243 q 73 236 80 236 q 57 232 60 232 q 52 233 54 232 q 42 247 42 248 q 43 255 42 251 q 43 262 43 259 q 52 268 46 267 q 61 273 58 269 q 88 274 80 271 q 106 275 96 277 q 129 284 122 281 q 144 290 136 288 q 159 293 157 293 q 163 292 160 293 q 180 294 176 293 q 187 294 183 296 q 203 298 193 300 q 218 300 213 296 l 252 305 z "},"×":{"ha":397,"x_min":27,"x_max":355,"o":"m 187 292 q 205 300 203 298 q 209 304 206 301 q 216 309 212 307 q 224 315 221 312 q 239 326 237 321 q 244 335 241 331 q 254 344 254 342 q 256 349 254 346 q 278 378 277 365 q 287 387 286 385 q 285 392 288 389 q 291 402 292 397 q 296 411 290 407 q 315 412 309 414 q 327 410 320 411 q 329 401 327 406 q 334 395 331 397 q 325 385 324 387 q 323 380 326 382 q 307 363 312 370 q 296 351 301 355 q 288 342 290 347 q 279 328 282 331 q 273 320 275 324 q 268 311 270 315 q 263 304 266 307 q 254 296 259 300 q 245 289 250 293 q 235 279 236 278 q 233 278 235 279 q 226 271 229 275 q 220 264 222 267 q 232 250 227 258 q 247 239 237 241 q 262 222 256 221 q 268 216 263 218 q 277 210 273 213 q 299 186 289 197 q 320 172 309 175 q 328 164 323 165 q 338 160 332 163 q 349 149 342 151 q 351 140 350 142 q 355 136 353 138 q 346 126 347 127 q 343 122 345 125 q 312 117 323 107 q 301 134 307 126 q 283 147 293 141 q 270 164 273 153 q 257 174 259 172 q 252 178 255 175 q 244 186 245 186 q 240 187 243 186 q 229 201 233 193 q 217 214 224 209 q 205 223 212 220 q 197 233 198 227 q 179 232 186 237 q 167 221 172 227 q 138 193 152 202 q 123 171 125 183 q 106 149 115 159 q 103 138 104 140 q 99 132 102 137 q 90 116 91 117 q 88 113 90 115 q 75 88 81 96 q 64 80 68 80 q 46 92 46 88 q 43 103 46 96 q 54 121 49 111 q 60 132 58 129 q 65 141 62 134 q 73 155 71 152 q 75 163 76 157 q 83 177 83 168 q 95 186 84 186 q 107 204 106 199 q 106 212 109 209 q 116 220 113 214 q 122 228 119 225 q 135 243 132 240 q 142 248 138 245 q 159 263 151 254 q 151 273 156 269 q 140 281 145 278 q 119 296 125 290 q 107 305 113 301 l 94 316 q 80 326 81 324 q 76 331 79 328 q 59 342 64 342 q 50 349 54 342 q 36 359 38 357 q 27 369 34 362 q 32 376 31 372 q 34 385 33 381 q 43 391 34 392 q 57 392 53 389 q 70 384 62 388 q 79 373 77 380 q 94 367 94 368 q 95 366 94 366 q 104 357 100 358 q 111 354 109 357 q 134 336 123 339 q 149 321 146 326 q 159 316 152 317 q 172 304 167 307 q 182 298 176 301 l 187 292 z "}," ":{"ha":334,"x_min":0,"x_max":0,"o":""},"!":{"ha":225,"x_min":27,"x_max":156,"o":"m 68 989 q 73 965 71 971 q 77 951 76 959 q 82 943 80 948 q 88 936 84 939 q 87 927 84 930 q 88 921 91 924 q 92 901 94 903 q 96 894 94 897 q 99 887 98 891 q 101 867 99 871 q 109 860 103 863 q 109 848 109 853 q 111 837 110 844 q 114 825 115 826 q 114 821 113 825 q 119 804 118 808 q 122 796 119 799 q 125 774 125 779 q 129 766 126 769 q 132 751 132 762 q 134 736 132 741 q 134 726 133 732 q 132 715 134 719 q 137 700 136 701 q 136 696 138 699 q 138 688 138 693 q 140 675 138 682 q 143 660 144 661 q 142 658 142 659 q 144 642 141 655 q 146 625 144 633 q 146 610 148 617 q 149 572 145 583 q 152 543 151 551 q 153 526 153 534 q 153 509 153 514 q 155 499 152 503 q 154 475 155 483 q 156 458 153 468 q 153 452 153 456 q 153 442 153 448 q 152 426 151 426 q 153 425 153 426 q 151 410 151 414 q 151 399 152 400 q 151 395 151 397 q 151 383 152 387 q 153 373 151 380 q 146 351 146 362 q 145 345 144 349 q 146 336 146 340 q 141 304 144 320 q 136 273 138 289 q 134 245 136 255 q 132 227 133 235 q 131 206 133 210 q 127 195 129 202 q 117 184 122 187 q 110 175 111 182 q 94 178 99 171 q 83 190 90 184 q 83 208 83 201 q 90 221 83 216 q 89 230 88 228 q 88 236 90 232 q 94 245 94 237 q 96 259 94 254 q 98 267 98 262 q 99 278 98 273 q 102 294 103 292 q 102 301 100 296 q 104 317 102 308 q 107 335 106 327 l 107 350 q 109 370 107 358 q 110 389 111 381 q 110 404 109 400 q 111 410 111 407 q 111 417 111 414 q 110 425 110 420 q 112 433 110 429 q 111 442 114 438 q 112 473 111 461 q 113 496 113 484 q 112 523 113 515 q 110 537 111 530 q 109 573 109 556 q 109 606 110 590 q 108 628 109 617 q 103 648 107 639 q 103 661 104 654 q 99 674 102 669 q 99 683 100 678 q 100 690 98 688 q 96 709 96 705 q 95 720 95 713 q 93 734 92 734 q 94 738 94 735 q 92 749 91 747 q 92 753 92 750 q 87 770 85 766 q 85 776 88 773 q 82 790 81 789 q 80 791 83 791 q 79 806 81 798 q 73 821 76 815 q 71 836 73 836 q 68 838 69 837 q 64 859 65 849 q 58 876 64 869 q 56 900 60 890 q 49 921 53 910 q 42 938 43 936 q 41 943 41 940 q 31 952 34 945 q 27 963 27 959 q 33 971 30 968 q 37 981 37 974 q 50 991 50 989 q 60 991 56 993 q 68 989 64 989 m 119 61 q 124 52 122 57 q 127 42 126 47 q 130 28 132 33 q 129 19 129 24 q 115 5 119 9 q 95 -7 103 -4 q 76 -9 87 -9 q 68 -7 72 -9 q 60 -7 64 -4 q 39 15 49 0 q 43 41 38 31 q 53 61 47 50 q 62 62 60 60 q 69 66 65 65 q 85 68 79 61 q 97 68 92 68 q 106 68 102 69 q 117 63 115 62 q 119 61 118 64 z "},"\"":{"ha":289,"x_min":54,"x_max":240,"o":"m 239 595 q 232 578 240 581 q 233 557 236 564 q 229 536 229 549 q 229 525 231 526 q 227 521 227 524 q 225 513 225 517 q 222 506 225 509 q 224 498 225 502 q 225 488 224 494 q 227 481 225 484 q 229 472 228 477 q 227 454 231 464 q 225 437 224 445 q 229 413 227 420 q 229 399 232 406 q 233 381 233 391 q 231 363 233 372 q 234 345 233 353 q 237 335 235 338 q 235 323 235 330 q 233 311 236 316 q 220 304 228 305 q 206 305 213 302 q 195 313 199 308 q 194 327 191 319 q 191 340 190 339 q 195 346 193 342 q 195 356 193 351 q 197 366 197 361 q 195 380 197 373 q 194 393 194 387 q 195 405 197 403 q 194 410 194 407 q 195 424 197 423 q 193 427 194 425 q 195 444 194 442 q 195 446 195 445 q 193 467 191 464 q 191 473 194 471 q 193 481 191 477 q 195 488 194 486 q 191 509 191 503 q 191 519 191 515 q 197 547 198 538 q 195 562 195 555 q 190 580 193 574 q 190 591 187 586 q 202 603 193 595 q 218 610 212 610 q 229 604 225 610 q 239 595 232 598 m 106 591 q 104 576 107 576 q 98 574 100 575 q 98 552 102 560 q 96 532 95 544 q 95 519 96 521 q 94 517 94 518 q 92 509 91 513 q 88 502 92 505 q 90 492 91 498 q 91 483 90 487 q 94 475 92 479 q 95 468 95 472 q 94 450 96 458 q 92 431 91 441 q 96 409 94 416 q 96 393 99 401 q 100 376 100 385 q 98 358 100 366 q 100 340 99 347 q 104 330 102 332 q 102 319 102 326 q 99 307 102 312 q 86 299 94 300 q 72 300 79 298 q 62 309 65 302 q 61 323 58 315 q 61 342 57 336 q 60 351 58 346 q 62 362 62 357 q 62 375 62 369 q 61 388 61 381 q 60 406 62 397 q 61 418 62 418 q 60 422 60 419 q 62 442 62 441 q 58 463 57 460 q 57 469 60 467 q 60 476 58 472 q 61 484 61 480 q 58 505 58 499 q 58 514 57 511 q 63 541 65 534 q 62 556 61 548 q 57 575 60 570 q 57 587 54 581 q 68 597 60 590 q 83 604 76 604 q 96 599 92 604 q 106 591 99 594 z "},"#":{"ha":415,"x_min":26,"x_max":416,"o":"m 182 370 q 178 361 179 368 q 176 350 176 355 q 178 334 174 335 q 186 332 183 334 q 210 336 205 338 q 220 335 214 335 q 234 336 227 335 q 251 335 241 336 q 270 336 262 332 q 276 355 273 346 q 285 372 279 363 q 289 399 283 387 q 297 425 294 411 q 306 431 304 426 q 315 435 308 435 q 325 431 321 435 q 330 423 328 427 q 328 406 327 408 q 327 401 330 404 q 318 382 317 388 q 315 370 319 377 q 311 357 312 358 q 308 350 309 355 q 319 338 313 336 q 328 339 324 339 q 342 337 340 336 q 345 338 343 338 q 356 337 347 338 q 368 340 365 336 q 387 342 376 338 q 398 345 397 346 q 401 345 399 345 q 416 329 416 339 q 411 311 415 319 q 401 309 408 308 q 392 304 395 309 q 384 305 389 307 q 374 307 378 304 q 355 303 358 304 q 351 302 353 302 q 343 304 347 302 q 335 305 339 307 q 321 305 330 305 q 305 304 312 305 q 292 297 298 304 q 287 279 290 288 q 282 262 283 271 q 279 247 281 248 q 278 243 278 245 q 277 233 277 237 q 277 222 278 228 q 304 208 293 206 q 317 210 311 209 q 327 214 324 212 q 334 214 331 212 q 342 216 338 216 q 349 205 345 209 q 355 194 353 201 q 353 185 354 189 q 353 176 351 182 q 334 170 346 168 q 312 168 323 172 q 304 171 308 170 q 294 174 300 172 q 271 175 275 174 q 262 174 267 176 q 257 165 258 171 q 252 156 256 159 q 251 139 255 146 q 244 125 247 132 q 245 115 244 118 q 244 107 245 111 q 238 91 237 94 q 237 81 239 88 q 216 67 221 71 q 203 71 210 64 q 201 80 201 75 q 199 91 201 85 q 206 104 206 104 q 210 119 210 113 q 216 127 210 125 q 218 143 216 142 q 222 146 221 144 q 224 163 225 160 q 225 174 224 167 q 208 176 209 178 q 205 174 208 174 q 195 175 198 176 q 184 172 191 174 q 167 172 168 174 q 163 171 165 170 q 136 174 144 175 q 122 170 127 172 q 119 157 121 163 q 117 144 117 152 q 116 130 117 130 q 114 129 115 129 q 108 111 113 117 q 96 106 103 106 q 88 106 92 104 q 80 110 84 109 q 75 122 77 114 q 77 136 72 130 q 85 157 81 152 q 81 170 88 163 q 66 170 68 170 q 34 167 47 163 q 31 176 31 171 q 27 186 30 180 q 42 195 38 191 q 57 197 56 195 q 61 198 58 198 q 76 198 75 198 q 96 202 94 198 q 102 209 99 206 q 105 228 104 222 q 107 240 106 233 q 112 249 110 244 q 111 258 114 254 q 116 264 114 259 q 119 274 118 270 q 121 290 119 288 q 125 296 122 292 q 111 296 113 297 q 106 294 109 296 q 96 294 99 296 q 90 292 92 293 q 68 290 72 290 q 62 293 65 290 q 45 288 56 289 q 27 293 34 288 q 29 309 26 304 q 37 317 33 313 q 53 320 52 317 q 57 324 54 323 q 88 325 72 326 q 117 331 104 324 q 132 331 123 327 q 135 338 134 334 q 140 345 136 342 q 140 357 138 353 q 146 369 142 362 q 150 379 151 376 q 151 385 149 382 q 158 406 157 401 q 161 416 159 411 q 161 428 160 422 q 164 438 161 434 q 184 440 178 445 q 194 427 191 435 q 191 414 190 416 q 191 411 191 412 q 188 400 187 403 q 187 395 189 397 q 182 377 184 381 q 182 370 180 373 m 191 305 q 184 302 187 302 q 175 302 182 302 q 168 300 172 301 q 159 297 163 298 q 153 281 157 288 q 149 263 148 270 q 140 246 144 256 q 140 227 137 236 q 133 209 133 220 q 151 202 140 202 q 172 206 163 202 q 182 203 176 201 q 194 203 189 206 q 202 207 197 206 q 212 208 208 208 q 224 208 221 206 q 229 209 227 209 q 239 220 240 218 q 239 227 239 221 q 245 251 243 244 q 250 267 248 258 q 252 277 251 273 q 252 286 252 281 q 256 294 254 289 q 258 302 258 298 q 224 304 243 304 q 191 305 206 304 z "},"$":{"ha":399,"x_min":42,"x_max":355,"o":"m 354 553 q 353 538 354 540 q 348 522 349 524 q 346 519 347 521 q 338 502 339 505 q 336 496 336 499 q 324 486 326 487 q 312 475 313 477 l 298 468 q 289 465 294 468 q 277 463 283 463 q 260 463 263 461 q 256 464 258 464 q 242 464 244 463 q 237 467 240 465 q 225 479 225 476 q 231 493 231 491 q 232 498 231 495 q 258 498 251 500 q 271 495 264 495 l 286 498 q 304 514 298 505 q 316 526 316 526 q 321 547 320 543 l 321 562 q 320 583 320 578 q 313 606 313 601 q 312 613 313 610 q 305 629 305 627 l 297 643 q 286 656 288 654 q 275 669 278 666 q 267 675 271 673 l 255 685 q 240 693 244 693 q 232 696 236 693 l 216 700 q 195 694 199 694 q 182 696 184 694 q 176 701 179 699 l 161 697 q 142 690 145 692 q 137 688 140 689 q 132 685 134 686 q 123 681 129 684 q 109 669 113 673 q 102 662 106 666 q 92 648 98 654 q 84 631 84 636 l 79 616 q 78 607 79 612 q 77 600 77 602 l 77 583 q 80 567 77 578 q 86 553 85 557 q 90 544 87 549 q 94 534 92 540 q 96 522 96 529 l 104 506 l 115 494 q 125 475 121 479 q 132 467 129 472 q 143 455 142 456 q 146 453 144 454 q 157 442 153 446 q 175 429 171 429 q 186 416 186 418 q 190 415 187 415 q 199 403 199 406 q 212 393 210 393 l 231 373 l 241 361 q 254 350 251 353 q 273 332 262 339 q 285 315 282 317 q 298 296 294 300 q 305 286 302 292 q 311 275 311 275 q 312 273 312 274 q 317 266 315 270 q 323 255 320 262 q 328 239 330 239 q 334 214 332 228 q 333 204 334 209 q 332 195 332 199 q 330 174 331 176 q 323 152 324 156 q 308 122 316 130 q 300 108 301 110 q 298 103 300 106 q 288 91 289 94 q 277 79 278 80 q 273 75 275 77 q 258 61 264 68 q 249 58 252 60 q 241 53 245 56 q 234 50 237 50 q 228 46 231 49 q 218 31 218 34 q 216 26 218 28 q 216 12 217 12 q 216 11 216 12 l 214 -4 q 214 -22 217 -16 q 209 -45 214 -37 q 203 -50 206 -47 q 195 -52 199 -52 q 178 -42 184 -49 l 176 -27 l 179 -9 q 180 4 179 1 q 182 9 182 7 q 183 24 182 23 l 182 41 q 169 41 174 41 q 160 43 164 41 l 144 45 q 136 47 140 46 q 129 49 133 49 q 114 54 117 53 q 103 62 104 61 q 100 64 102 64 q 83 81 87 75 q 75 91 80 87 l 65 104 q 58 126 58 121 q 57 138 58 136 q 56 146 56 141 q 54 161 54 159 q 53 167 53 163 q 54 177 53 172 q 56 189 56 182 l 57 203 q 65 217 62 213 l 71 233 q 88 245 88 247 q 98 253 94 251 q 103 258 102 255 q 123 267 117 267 q 141 272 138 271 q 149 273 144 273 q 163 268 163 269 q 165 267 164 267 l 182 263 q 192 252 190 254 q 197 247 194 250 l 217 222 q 224 208 224 209 q 225 206 225 208 q 227 197 225 202 q 228 186 228 193 l 228 170 l 221 155 q 212 146 213 148 q 208 141 210 144 q 191 139 191 138 q 187 140 190 140 q 176 151 176 149 q 172 153 175 152 q 178 168 178 167 q 179 170 179 168 l 189 183 l 186 198 q 176 210 179 210 q 168 221 170 220 q 164 225 167 222 l 148 232 q 126 231 132 231 l 113 224 q 104 216 106 218 q 100 212 103 214 q 94 199 94 199 q 92 198 94 198 q 89 185 88 186 q 90 182 90 184 q 90 166 90 167 q 91 163 91 165 q 92 138 90 144 q 102 118 100 125 q 106 111 104 115 q 111 104 109 107 l 123 94 q 138 82 134 83 q 144 79 141 81 q 155 77 152 79 q 160 77 157 76 l 176 76 q 191 75 183 75 l 209 77 q 224 81 217 77 q 241 88 232 85 q 253 102 250 98 q 263 110 256 106 l 267 125 q 279 138 279 136 q 288 168 288 156 q 294 186 293 184 q 293 203 294 198 q 291 216 292 216 q 290 218 290 217 q 286 233 286 229 l 277 247 q 272 264 275 262 q 266 271 269 267 q 256 283 256 282 q 255 286 256 285 q 244 299 244 298 q 241 302 244 300 q 229 316 231 315 q 227 320 228 317 q 210 337 213 332 q 203 345 208 342 l 190 354 q 182 369 184 363 q 167 380 172 378 l 155 391 q 145 403 146 403 q 142 404 144 403 q 130 412 134 410 q 123 419 126 414 q 109 431 114 427 q 102 446 104 435 q 89 458 90 457 q 85 463 88 460 q 78 473 80 471 q 75 481 76 476 q 69 490 71 488 q 65 498 68 492 q 61 511 62 510 q 58 514 60 511 l 56 532 q 45 547 47 544 q 45 563 43 560 q 42 578 42 572 q 43 595 45 591 q 42 604 42 600 q 44 616 42 610 q 46 631 46 623 q 53 644 52 642 q 62 663 60 659 q 68 669 64 666 q 88 693 76 686 q 96 699 94 696 q 102 704 98 701 q 125 716 117 713 q 137 726 134 726 q 155 731 148 730 q 170 735 163 732 q 174 753 176 746 q 172 770 172 761 q 170 789 170 784 q 178 807 178 806 q 197 810 194 812 q 205 806 201 808 q 207 788 208 792 q 206 780 206 784 q 209 756 209 762 q 210 743 209 750 q 220 735 217 738 q 224 732 222 732 l 239 732 q 256 726 245 726 q 270 716 267 718 q 278 711 275 712 q 285 707 281 709 q 300 691 297 693 q 305 684 304 689 q 317 674 316 675 q 320 671 317 673 q 330 660 328 661 q 332 656 331 659 q 340 632 339 640 q 346 618 342 624 q 350 593 350 600 q 353 570 353 575 q 355 559 354 566 l 354 553 z "},"%":{"ha":431,"x_min":35,"x_max":418,"o":"m 106 -5 q 87 -9 94 -4 q 69 -14 80 -14 q 64 14 57 -1 q 73 25 71 24 q 77 27 76 26 q 82 41 79 35 q 88 54 85 46 q 100 71 98 60 q 111 90 103 83 q 118 106 113 100 q 123 122 123 111 q 132 135 130 133 q 134 142 134 137 q 146 159 141 155 q 153 170 151 164 q 167 189 160 186 q 169 201 168 197 q 172 208 170 205 l 179 221 q 183 237 182 235 q 187 241 184 239 q 197 266 193 254 q 208 292 202 278 q 213 307 214 302 q 218 314 217 309 q 222 321 220 319 q 228 334 224 328 q 231 345 232 339 l 239 361 q 244 377 244 372 q 245 388 244 382 q 249 397 250 393 q 251 404 248 401 q 261 421 259 418 q 266 427 263 425 q 269 445 263 435 q 279 463 278 458 q 283 475 281 475 q 285 477 285 476 q 289 490 288 484 q 293 498 290 495 q 294 507 293 503 q 297 514 296 510 q 307 534 305 532 q 313 551 311 543 q 321 564 317 560 q 328 579 326 576 q 332 586 331 582 q 334 593 334 589 q 335 601 334 597 q 355 616 353 616 q 370 603 370 606 q 373 598 370 600 q 371 590 370 595 q 369 581 372 585 q 361 574 362 579 q 354 566 359 568 q 349 553 354 557 q 346 537 343 549 q 333 513 338 519 q 328 496 328 507 q 318 477 320 480 q 313 469 316 473 q 308 448 313 456 q 301 426 302 439 q 292 412 296 420 q 289 403 292 406 q 288 396 286 400 q 275 378 281 382 q 271 358 273 359 q 268 347 267 351 q 267 340 269 343 q 259 326 263 330 q 252 316 255 321 q 250 304 254 308 q 247 293 245 301 q 240 278 240 286 q 231 260 233 271 q 221 241 228 248 q 216 227 216 232 q 209 220 216 221 q 206 207 212 210 q 203 193 201 203 q 197 186 198 190 q 190 179 195 182 q 185 164 186 168 q 182 157 184 160 q 178 151 182 155 q 178 142 175 146 q 167 129 170 132 q 163 123 164 126 q 156 110 156 111 q 146 90 151 103 q 139 75 144 81 q 130 60 134 68 q 121 43 122 45 q 119 41 121 42 q 112 19 117 28 q 106 -5 107 9 m 164 464 q 173 452 171 453 q 176 449 175 452 q 180 433 179 431 q 182 429 182 434 q 179 411 179 414 q 170 397 174 397 q 165 389 168 391 q 161 381 163 387 q 149 371 153 373 q 142 362 144 369 q 125 357 130 357 q 117 352 121 354 q 109 349 113 350 q 95 347 102 346 q 80 349 88 349 q 69 357 71 355 q 62 358 68 358 q 52 368 53 365 q 49 370 52 370 q 44 382 46 377 q 38 392 42 388 q 36 408 35 407 q 37 412 37 410 q 37 426 35 423 q 39 431 38 429 q 43 444 42 444 q 45 448 45 445 q 53 464 53 461 q 63 471 57 468 q 72 479 69 473 q 85 486 84 486 q 102 492 100 490 q 107 494 104 494 q 115 492 111 495 q 123 487 119 490 q 140 480 140 481 q 155 469 152 472 q 164 464 157 465 m 137 446 q 127 448 130 445 q 118 454 123 452 q 103 454 109 452 q 88 454 98 457 q 83 449 85 452 q 77 444 80 446 q 68 426 69 426 q 69 408 68 414 q 73 397 71 403 q 85 389 83 391 q 92 384 87 387 q 104 382 103 382 q 107 381 104 381 q 127 388 126 388 q 132 391 129 388 q 136 399 133 396 q 141 404 140 401 q 152 435 152 415 q 144 440 149 438 q 137 446 140 442 m 311 206 q 329 203 317 206 q 349 205 340 201 q 366 193 361 198 q 377 184 372 189 q 395 178 393 179 q 404 165 403 165 q 404 163 404 165 q 415 144 412 157 q 417 129 418 132 q 415 122 416 126 q 410 104 412 107 q 410 96 408 100 q 392 79 399 90 q 370 66 385 69 l 351 56 q 335 50 338 52 q 328 50 332 49 q 309 54 317 50 q 289 56 300 57 q 283 59 285 58 q 275 62 281 60 q 264 73 273 69 q 256 83 256 76 q 252 96 254 90 q 247 107 250 103 q 248 120 248 118 q 247 125 247 122 q 254 145 254 140 q 258 156 255 151 q 271 174 267 171 q 277 176 274 176 q 292 197 285 190 q 311 206 298 203 m 365 151 q 350 158 351 159 q 346 159 349 157 q 331 166 332 167 q 328 165 330 165 q 317 167 319 168 q 312 167 315 165 q 294 152 298 156 q 288 136 286 138 q 288 132 289 134 q 285 115 283 118 q 286 106 286 111 q 295 99 293 100 q 300 95 297 98 q 321 87 313 90 q 334 84 330 84 l 349 91 q 357 93 354 94 q 363 94 361 92 q 372 107 372 106 q 382 123 381 117 q 381 140 382 129 q 368 150 370 151 q 365 151 366 149 z "},"&":{"ha":545,"x_min":14,"x_max":547,"o":"m 372 551 q 382 534 381 536 q 382 530 382 533 q 374 511 376 515 q 372 502 373 506 q 374 469 377 481 q 377 445 370 456 q 374 431 372 434 q 373 427 376 427 q 368 420 372 422 q 362 412 365 418 q 339 415 347 410 q 332 430 332 429 q 331 434 331 431 q 335 446 332 444 q 335 456 338 449 q 334 472 336 468 q 331 489 332 486 q 328 495 330 492 q 321 511 323 511 q 314 519 317 515 q 308 526 311 522 q 300 529 301 524 q 290 533 298 534 q 275 541 281 540 q 263 543 270 543 q 254 540 258 543 q 248 541 251 537 q 222 531 237 533 q 199 514 206 529 q 193 511 195 514 q 186 506 190 509 q 188 497 189 500 q 184 487 187 494 q 187 479 187 483 q 189 471 187 475 q 197 450 194 453 q 199 442 199 446 q 212 429 206 435 q 224 418 217 422 q 245 414 239 414 q 256 412 251 415 q 273 407 273 408 q 274 406 273 406 q 286 404 285 406 q 290 403 288 403 q 309 400 305 403 q 315 395 312 397 q 313 380 316 380 q 309 377 311 380 q 300 367 302 369 q 294 363 297 365 q 286 366 290 363 q 278 369 282 368 q 263 372 264 372 q 248 374 251 374 q 243 378 245 373 q 216 378 229 380 q 191 378 203 376 q 176 372 180 373 q 168 369 172 370 q 155 363 163 366 q 144 354 148 359 q 122 339 133 350 q 110 335 109 338 q 109 331 111 332 q 98 323 100 326 q 92 321 96 321 q 87 311 90 315 q 85 301 85 307 l 79 288 q 65 269 71 274 q 64 259 68 263 q 64 251 60 255 q 59 241 58 248 q 54 232 60 235 q 56 206 56 218 q 60 179 57 194 q 65 159 64 163 q 71 141 68 144 q 81 121 80 123 q 92 109 88 111 q 96 100 96 106 q 103 97 102 100 q 111 95 104 94 q 118 85 113 87 q 125 76 123 83 q 137 72 133 76 q 149 68 141 68 q 178 47 171 54 q 193 42 189 46 q 208 41 201 41 q 221 37 216 42 q 233 39 228 38 q 243 38 237 41 q 250 41 245 41 q 258 43 255 41 q 275 45 269 42 q 286 53 281 49 q 301 57 297 52 q 315 64 305 62 q 336 79 328 73 q 348 90 346 85 q 353 95 350 94 q 363 111 361 107 q 369 117 366 114 q 377 130 373 127 q 380 139 380 136 q 382 151 381 142 q 383 160 384 156 q 382 171 382 164 q 381 192 382 189 q 380 201 380 195 q 375 208 377 205 q 372 216 373 212 q 359 231 362 229 q 353 240 355 233 q 341 250 346 244 q 327 259 336 256 q 319 267 324 264 q 311 271 315 269 q 292 271 297 271 q 283 270 288 270 q 264 269 270 270 q 254 264 258 267 q 247 264 251 262 q 233 257 240 259 q 222 248 227 255 q 206 241 210 245 q 198 232 202 237 q 192 216 193 218 q 190 210 191 213 q 193 186 187 194 q 198 176 197 179 q 201 170 199 172 q 213 155 209 156 q 218 148 217 153 q 231 139 225 142 q 243 130 237 136 q 256 135 248 136 q 267 127 264 134 q 267 114 266 115 q 264 110 267 113 q 259 106 263 109 q 252 100 255 103 q 236 97 237 96 q 233 98 235 98 q 225 100 229 99 q 220 104 221 100 q 213 105 216 102 q 203 107 210 109 q 192 117 195 114 q 186 123 189 121 q 178 130 182 127 q 171 138 174 133 q 166 146 168 142 q 164 153 164 151 q 154 174 156 165 q 152 193 152 183 q 154 208 155 206 q 153 210 153 209 q 161 231 160 228 q 165 239 163 235 q 178 260 171 254 q 189 277 184 267 q 198 281 194 279 q 208 286 202 283 q 217 296 214 296 q 220 300 220 296 q 237 302 237 302 q 252 304 250 305 q 256 305 254 304 q 293 310 282 312 q 316 309 304 308 q 324 306 320 307 q 331 304 328 305 q 348 304 340 307 q 363 308 355 302 q 378 306 376 305 q 384 308 381 307 q 403 308 395 305 q 410 310 406 308 q 420 312 415 312 l 437 311 q 460 316 454 316 q 471 317 465 316 q 480 322 476 320 q 490 324 484 324 q 502 334 502 332 q 510 350 507 343 q 502 368 503 365 q 494 382 499 372 q 475 388 477 385 q 469 389 473 391 q 446 374 450 382 q 430 370 441 366 q 419 382 420 381 q 415 384 418 384 q 414 394 415 391 q 415 403 414 397 q 438 414 430 411 q 452 420 446 416 q 469 423 460 418 q 479 422 475 420 q 487 422 483 423 q 502 416 494 422 l 519 407 q 534 392 532 392 q 543 378 534 384 q 545 355 543 363 q 544 338 547 346 q 534 323 534 326 q 532 317 533 320 q 521 309 522 311 q 514 307 519 307 q 506 299 507 301 q 502 296 505 297 q 486 291 491 292 q 477 285 481 290 q 456 278 465 285 q 422 277 441 281 q 392 275 403 273 q 383 272 387 274 q 374 273 380 270 q 378 265 377 269 q 382 258 380 262 q 397 244 387 252 q 404 232 400 237 q 412 220 408 227 q 419 201 419 210 q 419 190 419 193 q 420 170 420 179 q 418 156 419 161 l 416 140 q 413 131 415 134 q 410 125 411 127 q 395 94 399 107 q 380 76 391 81 q 368 63 370 66 q 359 57 365 60 q 340 42 353 46 q 317 27 327 38 q 310 26 313 30 q 302 20 307 22 q 295 19 298 19 q 288 18 292 19 q 267 11 279 14 q 260 9 263 9 q 251 8 258 9 q 239 5 244 7 q 228 5 235 3 q 197 5 210 5 q 176 8 184 5 q 159 15 160 14 q 156 18 159 16 q 140 24 144 23 q 133 30 136 26 q 114 41 119 37 q 100 51 103 50 q 96 54 96 52 q 75 68 80 65 q 65 75 71 72 q 61 83 62 77 q 54 88 60 88 q 50 98 53 94 q 43 106 46 102 q 34 121 34 119 q 33 125 34 123 q 26 141 27 137 q 22 159 22 155 q 20 168 22 164 q 15 187 15 184 q 16 200 15 194 q 14 212 16 206 q 16 228 18 224 q 16 236 15 232 q 27 255 22 250 q 37 282 34 273 q 46 297 39 292 q 50 311 49 311 q 53 313 52 311 q 64 334 61 330 q 68 340 66 336 q 75 345 71 343 q 82 356 80 355 q 84 359 84 357 q 108 372 100 369 q 119 384 115 376 q 142 396 133 388 q 159 401 153 397 q 172 408 165 404 q 171 415 174 411 q 165 423 168 419 q 157 445 159 434 q 151 476 155 464 q 151 502 148 488 q 161 519 159 517 q 163 529 163 522 q 178 541 176 540 q 179 545 179 543 q 186 549 184 545 q 195 552 189 552 q 221 565 214 563 q 239 567 228 567 q 258 576 254 576 q 266 576 263 576 q 315 562 298 578 q 327 559 326 560 q 331 556 328 559 l 343 547 q 362 549 358 547 q 372 551 366 552 z "},"'":{"ha":156,"x_min":54,"x_max":107,"o":"m 106 591 q 104 576 107 576 q 98 574 100 575 q 98 552 102 560 q 96 532 95 544 q 95 519 96 521 q 94 517 94 518 q 92 509 91 513 q 88 502 92 505 q 90 492 91 498 q 91 483 90 487 q 94 475 92 479 q 95 468 95 472 q 94 450 96 458 q 92 431 91 441 q 96 409 94 416 q 96 393 99 401 q 100 376 100 385 q 98 358 100 366 q 100 340 99 347 q 104 330 102 332 q 102 319 102 326 q 99 307 102 312 q 86 299 94 300 q 72 300 79 298 q 62 309 65 302 q 61 323 58 315 q 61 342 57 336 q 60 351 58 346 q 62 362 62 357 q 62 375 62 369 q 61 388 61 381 q 60 406 62 397 q 61 418 62 418 q 60 422 60 419 q 62 442 62 441 q 58 463 57 460 q 57 469 60 467 q 60 476 58 472 q 61 484 61 480 q 58 505 58 499 q 58 514 57 511 q 63 541 65 534 q 62 556 61 548 q 57 575 60 570 q 57 587 54 581 q 68 597 60 590 q 83 604 76 604 q 96 599 92 604 q 106 591 99 594 z "},"(":{"ha":198,"x_min":20,"x_max":248,"o":"m 241 -113 q 245 -123 241 -118 q 247 -134 248 -127 q 242 -141 244 -138 q 240 -152 240 -144 q 206 -141 214 -151 q 199 -133 203 -137 q 191 -126 195 -129 q 182 -115 182 -117 q 179 -113 182 -114 q 161 -98 165 -104 q 148 -88 157 -91 q 137 -74 140 -76 q 134 -68 134 -72 q 122 -56 125 -58 q 112 -39 115 -43 q 104 -31 109 -34 q 94 -14 98 -16 q 84 -1 85 -3 q 81 3 83 0 q 73 18 75 15 q 71 26 71 20 q 64 42 65 33 q 56 56 62 52 q 50 73 56 68 q 48 92 53 83 q 43 113 43 102 q 39 123 41 118 q 39 136 37 129 q 36 155 38 149 q 37 163 34 160 q 30 176 28 168 q 26 189 31 184 q 26 216 30 202 q 22 244 23 229 q 23 264 22 255 q 20 282 24 274 q 23 295 23 289 q 24 312 23 301 q 25 323 26 319 q 26 334 24 328 q 28 345 24 338 q 31 357 31 351 q 34 377 34 368 q 34 392 33 389 q 37 399 35 395 q 38 416 39 407 q 42 433 37 426 q 43 452 39 441 q 43 472 46 464 q 47 488 49 481 q 52 494 45 494 q 56 515 56 510 q 60 524 57 519 q 66 537 62 530 q 68 551 71 544 q 73 564 72 562 q 73 570 75 566 q 78 575 76 572 q 79 585 80 578 q 88 598 85 597 q 92 602 91 600 q 98 621 96 617 q 100 629 99 624 q 112 641 110 639 q 114 647 114 643 q 121 652 118 648 q 126 658 123 655 q 131 665 129 661 q 137 671 133 670 q 149 684 142 684 q 153 690 151 688 q 159 697 156 693 q 170 708 164 703 q 181 720 180 719 q 183 720 182 720 q 199 742 197 736 q 214 744 210 745 q 218 742 217 743 q 226 725 227 730 q 224 718 225 720 q 214 709 218 715 q 209 697 209 704 q 191 684 199 686 q 164 652 178 665 q 155 637 155 643 q 142 625 145 628 q 133 612 138 617 q 127 598 127 598 q 125 595 126 598 q 119 581 122 585 q 113 574 115 578 q 106 538 106 552 q 100 530 100 536 q 95 521 99 524 q 90 497 92 503 q 84 483 87 491 q 83 465 83 475 q 79 449 83 456 q 77 429 77 438 q 72 418 77 420 q 74 401 76 403 q 72 396 72 399 l 72 380 q 70 372 72 374 q 66 365 68 369 q 67 356 69 361 q 65 347 65 351 q 64 323 62 328 q 64 312 65 319 q 62 297 61 298 q 62 293 62 296 q 61 285 62 289 q 60 275 60 281 q 61 260 60 262 q 62 255 62 258 q 62 243 61 244 q 64 240 64 243 q 64 226 62 231 q 65 217 65 221 q 66 202 65 208 q 69 191 68 197 q 71 174 72 175 q 72 167 69 172 q 75 145 76 155 q 80 129 75 136 q 81 118 80 119 q 83 114 83 117 q 87 97 85 102 q 90 88 90 92 q 96 70 96 73 q 100 65 96 66 q 109 41 104 49 q 115 26 113 34 q 126 7 122 18 q 141 -8 130 -3 q 146 -19 142 -15 q 152 -30 151 -23 q 170 -49 165 -45 q 176 -54 172 -52 q 179 -61 179 -57 q 191 -69 186 -64 q 203 -77 195 -75 q 222 -99 214 -91 q 238 -109 236 -107 q 241 -113 240 -111 z "},")":{"ha":218,"x_min":-22,"x_max":197,"o":"m -16 704 q -19 715 -16 709 q -20 727 -22 720 q -16 734 -18 731 q -14 745 -14 736 q 11 740 4 743 q 20 734 18 736 q 27 725 23 730 q 34 718 31 720 q 46 705 42 709 q 64 690 60 697 q 77 681 68 684 q 87 666 84 669 q 90 659 91 663 q 102 647 100 648 q 113 631 110 635 q 121 623 115 627 q 126 610 125 612 q 130 605 127 608 q 138 593 137 594 q 141 589 140 593 q 151 574 149 576 q 152 566 153 571 q 159 549 157 559 q 168 536 161 540 q 172 518 167 522 q 174 499 170 509 q 178 479 178 490 q 182 456 186 468 q 185 437 183 444 q 184 429 187 431 q 190 416 191 425 q 193 403 189 407 q 193 376 190 391 q 195 347 195 362 q 194 328 195 336 q 197 311 193 320 q 194 296 194 302 q 193 279 194 290 q 191 269 191 273 q 190 258 191 264 q 189 247 191 254 q 186 236 187 240 q 183 217 183 222 q 182 201 183 203 q 179 193 180 198 q 178 175 178 184 q 174 159 179 165 q 173 140 176 152 q 172 119 170 127 q 168 105 165 110 q 163 99 170 100 q 155 68 157 75 q 146 54 152 61 q 144 42 141 47 q 138 28 140 31 q 138 23 137 26 q 134 18 136 20 q 133 8 132 15 q 123 -5 125 -4 q 121 -9 122 -7 q 111 -38 113 -30 q 100 -50 102 -47 q 99 -56 98 -52 q 91 -60 94 -57 q 84 -66 88 -64 q 79 -73 81 -69 q 72 -79 77 -76 q 62 -92 68 -92 q 57 -99 60 -96 q 52 -106 54 -102 l 42 -118 q 26 -129 27 -127 q 14 -140 18 -136 q 8 -149 11 -145 q -3 -153 0 -153 q -8 -151 -7 -152 q -14 -125 -16 -136 q 3 -106 0 -119 q 19 -91 11 -95 q 33 -74 26 -80 q 47 -61 41 -68 q 57 -46 57 -52 q 69 -34 66 -34 q 77 -19 72 -23 q 88 -4 84 -7 q 94 11 91 7 q 100 18 98 15 q 109 54 107 41 q 113 63 113 57 q 119 72 114 69 q 125 96 122 90 q 129 109 127 102 q 131 127 132 118 q 136 142 130 136 q 137 164 137 156 q 142 175 137 172 q 141 191 140 189 q 144 195 142 193 q 143 211 144 210 q 142 213 142 212 q 146 220 144 217 q 151 227 149 222 q 150 236 148 232 q 153 245 152 240 q 154 269 155 264 q 155 279 153 274 q 157 294 157 293 q 156 298 156 296 q 157 308 156 304 q 159 316 159 312 q 157 334 159 332 q 156 338 156 335 q 157 355 156 354 q 157 357 157 355 q 156 366 157 361 q 155 374 155 370 q 153 391 155 387 q 151 401 152 396 q 150 418 149 416 q 149 425 151 419 q 145 448 144 439 q 140 464 146 456 q 138 481 137 480 q 138 486 138 481 q 134 495 136 490 q 133 505 133 500 q 126 522 126 518 q 122 526 126 526 q 115 551 119 543 q 109 567 111 559 q 98 584 102 574 q 83 601 94 594 q 77 611 80 608 q 72 621 73 614 q 54 642 61 633 q 35 662 39 655 q 22 671 30 669 q 9 685 12 682 q 3 690 7 688 q -12 701 -11 699 q -16 704 -14 703 z "},"*":{"ha":345,"x_min":27,"x_max":327,"o":"m 176 526 q 179 534 179 532 q 180 543 179 536 q 186 554 183 549 q 189 563 189 559 q 208 598 195 591 q 212 614 208 608 q 214 628 217 621 q 225 645 222 643 q 227 654 228 647 q 236 675 235 662 q 242 680 239 678 q 248 685 245 682 q 247 701 245 697 q 259 717 255 713 q 264 720 263 720 q 273 720 269 722 q 282 718 277 719 q 281 697 285 701 q 275 690 278 693 q 271 675 274 681 q 267 659 269 669 q 259 648 260 650 q 258 643 258 646 q 250 624 250 636 q 237 600 240 605 q 235 586 235 594 q 227 572 231 575 q 225 563 222 570 q 218 549 221 552 q 214 543 216 545 q 209 526 214 532 q 204 517 206 521 q 199 506 202 513 q 215 505 209 506 q 224 509 221 505 q 235 507 229 506 q 245 511 240 509 q 252 511 248 513 q 263 513 256 510 q 277 517 273 517 q 285 519 282 517 q 302 526 298 528 q 312 524 307 524 q 321 510 315 515 q 324 494 327 505 q 316 490 317 494 q 312 483 315 486 q 301 479 308 480 q 288 480 294 477 q 271 481 277 483 q 258 479 264 480 q 241 477 248 477 q 229 472 233 476 q 216 470 222 471 q 208 467 210 469 q 215 455 212 461 q 221 444 218 449 q 235 429 224 433 q 241 406 239 414 q 247 392 243 399 q 258 376 256 380 q 262 370 259 373 q 255 360 259 363 q 251 350 251 357 q 240 344 244 347 q 229 343 236 340 q 216 357 218 354 q 213 362 214 359 q 212 371 212 366 q 210 382 213 376 q 205 393 206 389 q 201 400 203 397 q 192 414 193 412 q 189 416 191 415 q 182 433 180 430 q 180 437 183 437 q 172 427 172 429 q 168 423 171 425 q 164 411 165 412 q 161 406 163 410 q 159 398 160 403 q 157 389 159 393 q 147 370 148 376 q 142 363 146 365 q 140 351 141 357 q 134 342 138 345 q 129 324 134 331 q 125 303 129 308 q 122 293 122 298 q 113 288 115 290 q 103 286 110 285 q 93 294 96 288 q 90 308 90 300 q 93 322 94 320 q 92 323 92 324 q 106 349 102 346 q 109 360 109 358 q 111 363 109 362 q 117 380 117 377 q 121 385 118 382 q 126 405 125 397 q 133 416 127 412 q 138 431 137 429 q 140 435 140 433 q 142 442 142 438 q 144 450 141 446 q 140 463 145 464 q 133 461 136 461 q 111 458 117 457 q 100 457 106 458 q 85 452 85 454 q 81 450 84 450 q 71 451 76 450 q 58 450 65 452 q 50 447 54 449 q 42 446 46 445 q 35 449 38 446 q 27 454 33 452 q 30 470 27 461 q 39 481 33 479 q 49 481 45 481 q 56 481 53 480 q 62 482 58 483 q 72 481 65 481 q 83 484 80 483 q 92 484 87 484 q 111 490 104 490 q 121 494 118 490 q 135 494 127 491 q 149 498 142 496 q 144 508 148 505 q 140 519 140 511 q 127 537 133 529 q 123 545 126 540 q 121 553 119 549 q 108 566 111 557 q 95 578 104 575 q 90 592 94 587 q 81 602 87 597 q 81 612 80 609 q 83 620 83 614 q 110 625 99 628 q 119 612 118 613 q 119 605 121 610 q 138 585 132 590 q 149 570 145 579 l 161 556 q 168 543 164 545 q 168 537 171 540 l 176 526 z "},"+":{"ha":487,"x_min":26,"x_max":453,"o":"m 271 278 q 288 273 286 271 q 296 273 290 274 q 304 271 298 271 q 313 270 309 271 q 332 267 328 264 q 342 269 336 269 q 355 269 353 267 q 359 270 357 270 q 396 275 385 269 q 411 281 411 277 q 422 283 419 279 q 431 286 425 288 q 448 273 445 278 q 453 264 450 269 q 450 256 450 260 q 448 248 449 251 q 433 248 434 250 q 427 245 431 245 l 407 245 q 391 243 397 243 q 378 241 384 244 q 350 237 357 239 q 342 236 346 237 q 334 233 338 235 q 322 234 328 233 q 311 235 316 235 q 296 235 296 235 q 294 236 296 236 q 283 237 289 239 q 274 236 278 235 q 274 217 277 227 q 277 198 271 208 q 274 178 271 180 q 273 168 271 172 q 275 157 275 163 q 275 125 275 140 q 279 102 274 111 q 279 90 277 95 q 283 77 281 84 q 283 62 281 68 q 270 52 274 47 q 254 45 258 47 q 247 45 251 43 q 236 65 236 53 q 239 79 239 76 q 240 85 240 83 q 237 109 240 98 q 239 130 233 119 q 238 145 239 142 q 237 152 237 148 q 237 164 239 163 q 236 167 236 165 q 235 185 233 176 q 237 203 237 194 q 235 217 236 210 q 237 229 233 224 q 223 241 232 240 q 206 241 214 243 q 167 243 183 240 q 141 237 151 247 q 113 235 123 235 q 96 228 103 231 q 88 227 92 227 q 81 224 84 227 q 68 220 71 221 q 60 216 65 218 q 47 214 57 214 q 35 217 38 214 q 29 237 26 235 q 35 247 33 240 q 56 252 45 247 q 68 256 65 255 q 79 258 72 256 q 94 262 90 263 q 100 267 98 260 q 117 271 110 264 q 130 270 123 277 q 152 275 148 273 q 157 279 156 277 q 169 278 163 277 q 179 279 175 279 q 209 279 198 282 q 231 278 216 278 q 232 290 233 283 q 231 304 231 297 q 226 330 227 321 q 225 346 225 339 q 222 362 222 359 q 220 378 218 373 q 221 385 221 382 q 216 404 218 400 q 216 416 213 408 q 212 434 212 430 q 214 446 213 438 q 228 453 220 448 q 238 451 232 457 q 250 442 244 445 q 254 426 251 434 q 252 412 256 418 q 256 400 255 401 q 258 397 258 399 q 262 377 256 388 q 262 361 262 368 q 266 347 263 354 q 266 326 266 331 q 269 315 266 321 q 269 298 269 304 q 273 288 270 293 l 271 278 z "},",":{"ha":126,"x_min":20,"x_max":107,"o":"m 64 -83 q 56 -79 61 -80 q 50 -76 52 -79 q 38 -69 41 -75 q 38 -60 35 -64 q 52 -37 50 -43 q 58 -26 53 -30 q 62 -12 61 -19 q 68 0 64 -5 q 56 7 57 5 q 53 8 54 8 q 35 11 39 11 q 27 20 28 14 q 20 30 26 26 q 21 39 22 34 q 20 52 20 45 q 31 61 24 58 q 41 71 38 64 q 71 68 61 72 q 81 60 81 61 q 83 57 81 58 q 98 41 95 46 q 104 30 102 37 q 104 16 102 22 q 106 0 107 11 q 100 -18 102 -15 q 98 -23 99 -20 q 92 -39 92 -39 q 90 -42 91 -39 q 87 -49 87 -46 q 83 -56 87 -52 q 82 -71 84 -71 q 79 -72 80 -71 q 64 -83 64 -83 z "},"-":{"ha":389,"x_min":42,"x_max":347,"o":"m 334 244 q 317 245 317 241 q 315 251 316 248 q 294 249 301 245 q 274 251 286 252 q 262 250 264 248 q 258 252 260 252 q 250 253 254 254 q 243 255 245 252 q 235 253 239 252 q 227 252 231 254 q 219 250 222 251 q 210 247 216 248 q 192 248 201 245 q 174 248 183 251 q 151 242 159 245 q 136 241 144 239 q 119 237 127 237 q 102 239 110 237 q 83 235 91 236 q 72 231 75 233 q 60 232 66 232 q 50 233 54 232 q 43 245 43 237 q 44 260 42 254 q 52 271 46 267 q 65 274 57 275 q 84 274 79 278 q 94 275 90 277 q 104 274 99 274 q 117 275 111 274 q 130 277 123 277 q 142 277 140 275 q 149 278 145 278 q 162 278 161 277 q 165 281 163 279 q 181 279 180 281 q 184 278 182 278 q 206 283 202 285 q 213 285 210 282 q 220 283 216 285 q 228 282 224 282 q 256 288 248 288 q 285 284 278 282 q 298 285 292 286 q 318 292 312 289 q 330 292 324 294 q 340 282 334 290 q 347 267 347 274 q 341 254 346 258 q 334 244 336 251 z "},".":{"ha":136,"x_min":20,"x_max":114,"o":"m 103 61 q 107 52 106 56 q 110 42 109 47 q 113 28 114 33 q 111 19 111 24 q 101 9 102 9 q 99 5 100 8 q 77 -7 84 -4 q 60 -11 69 -11 q 51 -8 54 -11 q 42 -8 47 -5 q 30 2 35 -3 q 20 14 24 7 q 26 41 20 31 q 37 61 31 50 q 46 62 43 60 q 53 66 49 64 q 68 68 61 61 q 79 68 75 68 q 88 68 83 69 q 100 62 98 62 q 103 61 102 62 z "},"/":{"ha":388,"x_min":-49,"x_max":346,"o":"m 346 713 q 340 690 340 697 q 336 677 339 684 q 336 667 338 673 q 336 658 335 662 q 328 633 330 637 q 323 619 321 623 q 321 612 324 616 q 313 591 313 597 q 315 582 312 586 q 311 572 312 576 q 307 562 309 567 q 302 550 302 549 q 300 545 302 551 q 295 528 297 532 q 294 519 293 524 q 286 491 286 499 q 281 477 288 486 q 275 463 274 468 q 269 454 273 460 q 263 446 266 449 q 258 429 259 431 q 255 426 258 427 q 254 418 256 423 q 248 407 251 414 l 241 392 q 239 385 240 389 q 235 377 237 381 q 228 361 231 369 q 220 349 225 354 q 209 326 213 332 q 203 313 205 320 q 189 288 193 296 q 182 274 186 281 q 173 258 176 263 q 170 248 170 254 q 157 230 161 236 q 151 214 153 224 q 143 208 145 212 q 138 199 141 205 q 131 188 130 189 q 130 186 132 187 q 125 180 127 183 q 121 174 123 176 q 112 159 111 160 q 111 156 113 159 q 108 151 110 153 q 104 141 106 148 q 96 135 100 138 q 88 126 91 132 q 83 120 85 123 q 79 114 81 117 q 60 88 71 100 q 39 62 49 76 q 22 40 28 47 q 12 24 16 33 q 0 8 4 11 q -7 1 -4 5 q -22 -1 -16 -3 q -34 -7 -27 0 q -45 4 -45 -4 q -49 20 -46 12 q -39 36 -42 30 q -27 43 -37 42 q -12 62 -16 54 q -3 73 -8 71 q 3 79 0 75 q 8 85 5 83 q 20 100 19 98 q 23 106 20 102 q 34 118 27 111 q 46 132 41 125 q 56 146 56 144 q 64 161 57 153 q 76 176 72 170 q 88 193 81 187 q 92 201 91 197 q 95 208 92 205 q 100 214 98 212 q 104 221 103 217 q 120 247 114 237 q 133 267 126 256 q 146 292 142 285 q 153 305 149 298 q 169 335 160 320 q 186 365 178 350 q 196 385 191 376 q 203 403 201 393 q 210 414 208 407 q 212 427 212 420 q 217 435 214 430 q 222 442 220 441 q 228 460 227 456 q 232 469 229 464 q 237 482 236 483 q 240 484 239 481 q 243 496 241 496 q 245 499 245 496 q 250 516 248 513 q 254 522 252 519 q 255 537 256 536 q 264 551 260 543 q 266 567 267 560 q 273 581 274 579 q 270 586 271 583 q 277 604 273 594 q 282 623 282 614 q 291 644 289 633 q 296 665 293 654 q 298 684 298 681 q 300 689 297 686 q 296 700 296 693 q 298 712 296 707 q 307 715 302 715 q 315 722 312 715 q 324 722 321 720 q 330 722 327 724 q 340 720 338 723 q 346 713 343 716 z "},":":{"ha":187,"x_min":27,"x_max":160,"o":"m 136 353 q 125 354 127 355 q 117 350 122 353 q 105 351 111 353 q 95 347 99 350 q 66 354 76 350 q 52 365 57 358 q 52 383 49 377 q 57 399 56 389 q 69 415 64 403 q 92 425 84 414 q 109 425 109 423 q 110 426 109 426 q 122 427 114 429 q 136 425 130 426 q 146 417 144 416 q 149 416 148 418 q 156 405 155 406 q 159 403 157 404 q 160 394 160 400 q 160 385 160 388 q 157 377 160 381 q 151 370 153 373 q 144 363 148 363 q 138 361 141 363 l 136 353 m 110 61 q 114 52 113 56 q 117 42 115 47 q 119 28 121 33 q 118 19 118 24 q 108 9 109 9 q 106 5 107 8 q 84 -7 92 -4 q 66 -11 76 -11 q 58 -8 61 -11 q 49 -8 54 -5 q 27 14 37 1 q 33 41 27 31 q 43 61 38 50 q 53 62 50 60 q 60 66 56 64 q 75 68 68 61 q 86 68 81 68 q 95 68 91 69 q 106 62 104 62 q 110 61 109 62 z "},";":{"ha":178,"x_min":27,"x_max":136,"o":"m 136 401 q 132 387 133 399 q 122 362 127 369 q 111 350 111 350 q 94 340 98 342 q 91 339 90 339 q 74 344 75 342 q 72 347 73 346 l 56 353 q 45 366 45 363 q 41 381 43 370 q 43 406 39 401 q 49 414 46 410 q 62 427 60 425 q 75 429 72 425 q 85 435 79 433 q 101 427 95 431 q 118 422 107 422 q 127 412 121 415 q 136 401 133 408 m 71 -83 q 63 -79 68 -80 q 57 -76 58 -79 q 45 -69 47 -75 q 45 -60 42 -64 q 58 -37 57 -43 q 65 -26 60 -30 q 69 -12 68 -19 q 75 0 71 -5 q 62 7 64 5 q 60 8 61 8 q 42 11 46 11 q 35 20 37 14 q 27 30 34 26 q 28 39 30 34 q 27 52 27 45 q 39 61 33 58 q 47 71 45 64 q 77 68 68 72 q 90 60 90 61 q 91 57 90 58 q 105 41 102 46 q 111 30 109 37 q 111 16 109 22 q 113 0 114 11 q 107 -18 109 -15 q 104 -23 106 -20 q 98 -39 99 -39 q 96 -42 98 -39 l 91 -68 q 79 -78 81 -79 q 75 -79 77 -77 l 71 -83 z "},"<":{"ha":448,"x_min":20,"x_max":403,"o":"m 388 460 q 380 460 384 461 q 373 457 377 458 q 361 450 363 453 q 355 444 358 446 q 342 437 347 442 q 330 429 336 431 q 305 414 312 419 q 292 404 298 410 q 272 395 275 399 q 266 389 269 392 q 254 385 259 387 q 245 381 250 384 q 233 372 233 372 q 219 358 221 359 q 216 353 217 357 q 194 338 202 351 q 178 328 186 336 q 164 321 167 326 q 151 314 153 315 q 148 311 148 313 q 140 311 142 312 q 133 309 137 309 q 125 304 130 307 q 119 296 121 301 q 103 285 107 293 q 90 280 96 282 q 81 273 84 278 q 96 266 96 267 q 99 263 96 264 q 112 261 107 264 q 122 255 117 258 q 138 248 136 248 q 144 247 141 248 l 159 241 q 180 229 175 232 q 190 221 184 225 q 208 216 202 217 q 217 213 213 216 q 235 201 231 206 q 248 195 239 195 q 256 191 251 193 q 264 183 262 189 q 275 180 271 180 q 281 174 279 179 q 295 170 293 170 q 304 168 297 171 q 317 164 316 165 q 320 163 317 163 q 327 160 323 161 q 334 156 331 159 q 345 152 343 152 q 347 149 347 152 q 359 147 358 146 q 362 148 361 148 q 370 143 366 146 q 381 142 374 140 q 387 120 391 126 q 380 109 384 114 q 361 109 363 109 q 357 106 359 109 q 339 111 350 106 q 326 117 327 115 q 324 119 326 118 q 313 124 319 122 q 304 132 307 126 q 297 130 300 129 q 289 132 294 132 q 277 138 279 138 q 273 137 275 137 q 260 144 263 144 q 258 149 256 145 q 244 157 250 149 q 228 163 228 163 q 215 170 217 170 q 212 174 213 171 q 191 181 198 180 q 182 187 184 182 q 168 193 171 191 q 167 197 165 194 l 152 197 q 142 207 149 203 q 129 209 134 210 q 113 221 115 220 q 95 227 100 224 q 80 232 84 228 q 66 233 73 233 q 53 236 60 233 q 23 254 35 247 q 20 263 20 258 q 22 274 20 269 q 36 281 28 279 q 46 293 43 283 q 60 299 53 296 q 71 309 68 302 q 85 312 85 311 q 88 313 85 313 q 102 321 98 316 q 113 328 106 327 q 123 336 122 332 q 126 340 123 339 q 138 345 138 346 q 141 346 138 345 q 156 354 153 354 q 168 363 167 363 q 171 365 170 363 q 178 371 175 368 q 187 378 182 374 q 203 391 199 388 q 221 401 218 399 q 229 406 224 404 q 247 416 244 416 q 252 420 250 416 q 289 446 273 430 q 309 458 301 448 q 317 460 312 460 q 324 464 321 461 q 337 473 335 472 q 342 475 339 473 q 350 481 346 477 q 357 488 354 486 q 370 496 372 496 q 385 500 382 500 q 393 500 388 499 q 402 492 403 494 q 403 488 401 491 l 400 473 q 388 460 388 463 z "},"=":{"ha":378,"x_min":34,"x_max":343,"o":"m 330 213 q 313 213 313 210 q 311 218 312 216 q 290 218 297 214 q 271 218 282 221 q 258 218 259 217 q 254 221 256 220 q 245 222 250 222 q 239 224 241 221 q 231 222 235 221 q 222 221 227 222 q 215 218 218 220 q 206 216 212 217 q 188 217 197 214 q 170 217 179 220 q 147 211 156 214 q 132 210 138 208 q 115 206 123 206 q 98 208 106 206 q 78 202 85 203 q 68 198 71 201 q 57 199 62 199 q 46 201 52 199 q 39 214 39 206 q 40 228 38 221 q 47 239 42 235 q 61 241 53 243 q 80 241 75 245 q 90 243 84 244 q 102 241 96 241 q 113 243 107 241 q 126 244 119 244 q 138 244 136 243 q 144 245 141 245 q 158 245 157 244 q 161 248 159 247 q 177 247 176 248 q 180 245 178 245 q 201 251 197 252 q 209 252 206 250 q 216 251 212 252 q 224 250 220 250 q 252 255 244 255 q 281 252 274 250 q 294 252 288 254 q 313 259 308 256 q 326 259 319 262 q 336 250 330 258 q 343 235 343 241 q 337 223 342 227 q 330 213 332 220 m 327 346 q 310 347 311 345 q 308 353 309 350 q 287 351 294 347 q 267 353 279 354 q 255 353 256 351 q 251 354 254 354 q 243 355 247 355 q 236 358 239 354 q 228 355 232 355 q 220 354 224 355 q 212 351 216 353 q 203 350 209 350 q 185 350 194 347 q 167 351 176 353 q 144 345 152 349 q 129 345 136 342 q 112 340 121 340 q 95 340 103 339 q 75 337 83 339 q 65 332 68 335 q 54 334 60 335 q 43 336 47 334 q 35 349 37 340 q 37 363 34 357 q 45 374 39 370 q 58 374 50 377 q 72 379 71 380 q 77 374 73 378 q 87 376 81 378 q 98 374 92 374 q 111 377 104 374 q 123 380 117 380 q 136 380 133 378 q 141 381 138 381 q 155 381 155 380 q 159 382 156 382 q 174 382 174 382 q 178 381 175 381 q 198 386 194 387 q 206 388 202 385 q 213 385 209 387 q 221 384 217 384 q 240 389 235 389 q 250 389 245 389 q 278 386 271 384 q 292 388 285 388 q 311 395 305 392 q 323 395 316 397 q 334 384 327 393 q 340 368 340 374 q 334 357 339 361 q 327 346 330 353 z "},">":{"ha":435,"x_min":42,"x_max":415,"o":"m 407 343 q 413 333 411 340 q 412 317 415 326 q 406 313 410 315 q 399 309 401 312 q 389 303 393 307 q 380 297 385 300 q 361 289 372 290 q 343 273 353 278 q 334 267 336 270 q 330 262 332 264 q 320 256 321 258 q 316 254 319 255 q 307 250 312 251 q 300 244 302 248 q 292 241 296 244 q 285 241 289 239 q 274 231 275 232 q 270 229 273 229 q 259 218 262 218 q 245 209 247 210 q 241 209 244 208 q 230 203 231 203 q 225 201 229 203 q 215 194 220 198 q 205 186 210 190 q 183 174 187 176 q 176 165 179 172 q 161 153 165 156 q 152 148 156 151 q 137 142 141 148 q 125 136 133 137 q 117 124 119 126 q 110 121 114 122 q 97 121 99 122 q 92 119 95 119 q 72 123 80 119 q 75 144 77 130 q 80 149 77 146 q 88 155 83 152 l 104 165 q 117 171 111 168 q 130 178 123 174 q 146 189 142 187 q 153 194 151 191 q 178 208 172 203 q 191 220 184 213 q 201 223 195 222 q 208 229 206 224 q 227 237 220 235 q 236 244 233 239 q 258 260 251 251 q 281 271 266 269 q 296 281 294 279 q 306 291 301 286 q 317 297 311 296 q 331 307 327 302 q 342 317 340 316 q 321 335 330 334 q 311 342 313 336 q 288 349 292 351 q 269 358 277 354 q 252 365 262 362 q 245 368 248 366 q 237 368 241 369 q 218 373 233 370 q 214 380 217 377 q 208 385 210 382 q 192 389 191 387 q 190 392 193 391 q 176 398 176 399 q 172 399 175 397 q 159 410 163 406 q 144 413 145 412 q 140 414 142 414 q 125 416 129 415 q 121 418 122 418 q 102 427 103 426 q 76 438 85 434 q 57 448 66 442 q 45 463 49 460 q 42 471 42 465 q 45 477 42 475 q 52 484 49 480 q 66 485 60 487 q 81 481 73 483 q 87 475 81 476 q 95 469 94 475 q 109 464 102 467 q 121 456 117 461 q 138 450 136 452 q 142 446 140 449 q 152 445 148 445 q 157 442 156 445 q 178 437 174 437 q 184 437 182 438 q 193 429 189 430 q 199 423 197 427 q 228 411 218 412 q 247 397 243 404 q 262 395 258 397 q 273 393 266 392 q 289 387 288 388 q 294 387 290 387 q 317 378 302 378 q 323 372 321 376 q 328 368 324 369 q 342 364 342 365 q 345 363 342 363 q 358 354 354 358 q 372 350 368 351 q 385 350 377 349 q 395 345 389 347 q 407 343 400 343 z "},"?":{"ha":575,"x_min":35,"x_max":562,"o":"m 309 423 q 304 416 308 418 q 298 408 300 414 q 283 397 285 400 q 278 395 282 395 q 271 378 277 384 q 258 366 264 372 q 255 354 256 359 q 250 346 254 349 q 243 330 243 330 q 236 315 236 317 q 235 312 236 313 q 232 301 235 305 q 227 292 229 297 q 228 283 227 288 q 227 274 229 278 q 233 260 235 260 q 235 256 232 259 q 239 250 237 254 q 245 244 240 245 q 253 236 252 239 q 256 231 254 233 q 275 222 267 228 q 302 220 290 220 q 320 227 315 227 q 335 240 332 236 q 339 251 338 244 q 351 263 351 256 q 353 273 350 270 q 336 285 340 286 q 330 286 332 283 q 318 277 319 275 q 316 279 317 279 q 301 275 302 274 q 297 279 300 277 q 290 280 293 277 q 282 285 286 283 q 285 300 283 300 q 294 312 290 311 q 298 320 298 313 q 307 322 302 320 q 316 326 311 324 q 338 327 334 323 q 350 323 343 324 q 357 313 357 321 q 374 306 368 311 q 388 294 381 301 q 389 286 388 290 q 391 277 391 282 q 388 258 391 267 q 384 243 385 250 q 372 232 374 232 q 369 231 370 232 q 359 220 361 220 q 355 218 358 220 l 336 201 q 323 193 326 195 q 316 194 321 191 q 301 189 301 189 q 287 189 293 187 q 277 186 281 191 q 251 193 259 190 q 235 198 243 197 q 226 206 228 206 q 222 208 224 206 q 213 219 214 217 q 209 224 212 221 q 202 236 205 236 q 197 236 199 236 q 191 249 195 243 q 189 262 186 255 q 185 269 186 263 q 189 277 184 275 q 188 287 186 282 q 191 296 190 292 q 193 319 191 313 q 198 331 195 324 q 209 355 206 349 q 216 366 212 361 q 222 381 221 377 q 228 385 222 385 q 232 400 231 399 q 245 412 243 410 q 251 414 247 414 q 261 427 256 420 q 275 437 266 434 q 280 444 278 441 q 283 452 282 448 q 304 467 297 458 q 323 480 311 476 q 332 488 328 483 q 342 495 335 492 q 356 507 354 505 q 358 513 358 509 q 388 532 378 524 q 411 545 397 540 q 416 553 414 549 q 422 562 418 557 q 435 572 435 570 q 444 587 441 585 q 449 594 448 590 q 466 609 460 602 q 475 627 472 616 q 481 633 480 628 q 488 642 483 639 q 493 652 488 648 q 495 663 498 656 q 500 673 498 670 q 503 684 503 677 q 511 701 511 696 q 514 711 510 707 q 513 719 514 716 q 515 727 513 722 l 511 743 l 513 758 q 512 782 514 774 q 507 798 510 789 q 505 819 507 811 q 501 836 502 834 q 498 838 500 838 q 487 853 488 852 q 479 871 486 865 q 471 883 473 876 q 457 896 461 890 q 446 906 453 902 q 437 918 441 914 q 426 929 430 922 q 416 935 419 930 q 410 943 414 939 q 395 951 396 949 q 387 956 391 954 q 381 962 382 958 q 372 964 374 963 q 365 968 369 966 q 345 970 353 970 q 326 975 336 971 q 299 977 305 974 q 283 979 293 981 q 271 979 278 979 q 258 982 263 979 q 245 972 245 975 q 231 972 239 975 q 217 967 224 968 q 204 957 206 962 q 197 949 202 952 q 180 941 184 948 q 164 932 175 935 q 152 917 155 920 q 146 911 149 914 q 136 899 138 902 q 132 892 134 897 q 126 885 129 890 q 122 873 123 880 q 116 867 119 871 q 113 856 113 863 q 106 840 109 845 q 103 831 104 834 q 98 820 99 821 q 96 817 96 819 q 92 791 95 802 q 88 777 91 781 q 84 769 85 773 q 79 746 79 753 q 74 734 73 736 q 71 730 75 731 q 75 707 73 713 q 77 694 76 701 q 80 675 79 677 q 89 662 83 667 q 100 650 95 656 q 114 643 109 647 q 126 637 119 639 q 142 643 142 642 q 142 646 141 644 q 157 651 155 651 q 159 660 160 658 q 165 667 159 662 q 164 689 165 682 q 161 701 163 696 q 146 708 146 707 q 142 712 145 709 q 132 728 132 724 q 134 735 132 732 q 137 743 137 738 q 161 746 155 749 q 174 743 167 743 q 188 730 186 732 q 193 727 190 728 q 197 713 195 713 q 201 709 199 712 q 204 694 206 696 q 206 693 202 693 q 205 684 202 689 q 209 675 208 680 q 208 659 206 661 q 208 655 209 658 q 201 644 201 646 q 199 640 201 642 q 189 629 189 629 q 173 617 179 618 q 165 609 167 616 q 155 607 159 610 q 146 601 152 604 q 132 600 133 601 q 129 598 132 598 q 113 603 115 601 q 107 604 111 605 q 101 612 106 610 q 95 618 96 613 q 75 628 80 620 q 58 640 69 636 q 53 651 53 648 q 50 655 53 654 q 41 675 45 671 q 41 686 37 680 q 37 699 35 697 q 38 703 38 700 q 39 720 37 716 q 38 730 41 723 q 43 749 42 743 q 45 761 43 755 q 50 774 49 774 q 52 777 52 774 q 56 796 54 793 q 54 803 57 799 q 60 812 58 811 q 62 817 62 814 q 67 840 65 836 q 68 852 69 845 q 75 861 73 854 q 83 871 76 868 q 90 886 87 884 q 91 891 92 887 q 99 905 98 903 q 112 922 107 918 q 121 929 117 925 q 127 937 126 936 q 132 940 129 939 q 140 948 138 945 q 142 954 141 951 q 156 964 155 964 q 172 974 171 972 q 175 978 172 975 q 191 985 189 983 q 195 989 193 987 q 212 995 205 990 q 228 997 220 1000 q 241 1004 233 1004 q 256 1010 250 1005 q 282 1013 271 1016 q 298 1008 293 1010 q 320 1006 311 1006 q 335 1002 330 1006 q 344 1004 339 1005 q 351 1004 349 1002 q 366 1001 361 1004 q 380 1001 370 998 q 387 996 382 998 q 393 990 391 994 q 411 985 406 987 q 424 977 422 978 q 429 975 426 977 q 446 964 441 970 q 460 948 456 949 q 471 935 472 935 q 480 927 477 926 q 484 926 483 928 q 498 910 487 914 q 507 896 505 899 q 514 890 510 892 q 529 865 525 869 q 534 852 533 860 q 540 841 538 848 q 545 830 541 834 q 546 814 544 818 q 551 807 548 811 q 551 791 548 793 q 552 785 553 788 q 557 769 559 769 q 555 766 555 769 q 553 747 560 753 q 557 730 557 735 q 562 722 557 724 q 555 707 556 708 q 551 688 552 694 q 545 678 551 682 q 538 652 543 666 q 522 631 533 637 q 516 614 517 616 q 511 610 515 612 q 505 600 506 600 q 506 595 503 600 q 494 587 499 591 q 486 575 488 582 q 477 567 479 570 q 473 560 475 564 q 460 547 465 552 q 450 536 454 543 q 435 527 442 533 q 420 515 427 521 q 408 505 412 506 q 401 496 403 503 q 393 492 395 496 q 387 487 392 487 q 374 476 378 476 q 368 475 370 476 q 362 470 366 471 q 358 463 358 469 q 342 451 346 456 q 335 442 339 446 q 321 431 324 434 q 316 423 319 427 l 309 423 m 274 76 q 286 73 281 76 q 296 66 290 69 q 312 64 308 68 q 321 57 320 58 q 326 54 323 56 q 334 41 334 43 q 338 30 338 35 q 336 23 338 24 q 333 10 335 11 q 332 7 331 9 q 319 -4 321 -4 q 316 -5 317 -4 q 302 -12 307 -11 q 292 -12 297 -14 q 277 -9 282 -12 q 265 -4 266 -4 q 263 -3 264 -4 q 254 9 262 4 q 244 26 248 26 q 240 46 239 42 q 241 57 241 50 q 248 63 245 60 q 254 69 251 66 q 269 72 267 75 q 273 72 270 69 l 274 76 z "}}}
